<svg id="Layer_1" data-name="Layer 1" xmlns="http://www.w3.org/2000/svg" xmlns:xlink="http://www.w3.org/1999/xlink" viewBox="0 0 88 88"><defs><style>.cls-1{fill:none;}.cls-10,.cls-2,.cls-8{fill:#1a2966;}.cls-2,.cls-3,.cls-4{clip-rule:evenodd;}.cls-19,.cls-3,.cls-5{fill:#dc554f;}.cls-29,.cls-4,.cls-41,.cls-6{fill:#fff;}.cls-7{clip-path:url(#clip-path);}.cls-19,.cls-29,.cls-8{fill-rule:evenodd;}.cls-9{clip-path:url(#clip-path-2);}.cls-11{clip-path:url(#clip-path-3);}.cls-12{clip-path:url(#clip-path-4);}.cls-13{clip-path:url(#clip-path-5);}.cls-14{clip-path:url(#clip-path-6);}.cls-15{clip-path:url(#clip-path-7);}.cls-16{clip-path:url(#clip-path-8);}.cls-17{clip-path:url(#clip-path-9);}.cls-18{clip-path:url(#clip-path-10);}.cls-20{clip-path:url(#clip-path-11);}.cls-21{clip-path:url(#clip-path-12);}.cls-22{clip-path:url(#clip-path-13);}.cls-23{clip-path:url(#clip-path-14);}.cls-24{clip-path:url(#clip-path-15);}.cls-25{clip-path:url(#clip-path-16);}.cls-26{clip-path:url(#clip-path-17);}.cls-27{clip-path:url(#clip-path-18);}.cls-28{clip-path:url(#clip-path-19);}.cls-30{clip-path:url(#clip-path-20);}.cls-31{clip-path:url(#clip-path-21);}.cls-32{clip-path:url(#clip-path-22);}.cls-33{clip-path:url(#clip-path-23);}.cls-34{clip-path:url(#clip-path-24);}.cls-35{clip-path:url(#clip-path-25);}.cls-36{clip-path:url(#clip-path-26);}.cls-37{clip-path:url(#clip-path-27);}.cls-38{clip-path:url(#clip-path-28);}.cls-39{clip-path:url(#clip-path-29);}.cls-40{clip-path:url(#clip-path-30);}.cls-41{font-size:65px;font-family:BreeSerif-Regular, BreeSerif Regular;}</style><clipPath id="clip-path"><circle class="cls-1" cx="-493.01" cy="-73.37" r="44"/></clipPath><clipPath id="clip-path-2"><path class="cls-2" d="M-476-83.68a9,9,0,0,0,3.79-5,16.66,16.66,0,0,1-5.47,2.21,8.39,8.39,0,0,0-6.29-2.87,8.86,8.86,0,0,0-8.62,9.08,10,10,0,0,0,.22,2.07,24.08,24.08,0,0,1-17.76-9.49,9.48,9.48,0,0,0-1.16,4.57,9.26,9.26,0,0,0,3.83,7.57,8.28,8.28,0,0,1-3.9-1.14v.11a9,9,0,0,0,6.91,8.91,8.09,8.09,0,0,1-2.27.32,7.81,7.81,0,0,1-1.62-.16,8.69,8.69,0,0,0,8.05,6.31,16.73,16.73,0,0,1-10.7,3.89,17.41,17.41,0,0,1-2.06-.12,23.53,23.53,0,0,0,13.21,4.08c15.85,0,24.51-13.85,24.51-25.86,0-.39,0-.79,0-1.18a17.87,17.87,0,0,0,4.3-4.7A16.61,16.61,0,0,1-476-83.68Z"/></clipPath><clipPath id="clip-path-3"><circle class="cls-1" cx="-170.8" cy="-73.37" r="44"/></clipPath><clipPath id="clip-path-4"><path class="cls-2" d="M-156.49-85.16a2.62,2.62,0,0,1-2.62,2.62,2.61,2.61,0,0,1-2.61-2.62,2.62,2.62,0,0,1,2.61-2.62A2.62,2.62,0,0,1-156.49-85.16ZM-170.76-66a7.34,7.34,0,0,1-7.34-7.34,7.34,7.34,0,0,1,7.34-7.34,7.34,7.34,0,0,1,7.34,7.34A7.34,7.34,0,0,1-170.76-66Zm0-18.64a11.31,11.31,0,0,0-11.31,11.3A11.31,11.31,0,0,0-170.76-62a11.31,11.31,0,0,0,11.31-11.31A11.31,11.31,0,0,0-170.76-84.63Zm0-10.74c-6,0-6.73,0-9.07.13a16.24,16.24,0,0,0-5.34,1,10.76,10.76,0,0,0-3.9,2.54,10.76,10.76,0,0,0-2.54,3.9,16.35,16.35,0,0,0-1,5.34c-.11,2.34-.13,3.09-.13,9.07s0,6.72.13,9.07a16.35,16.35,0,0,0,1,5.34,10.84,10.84,0,0,0,2.54,3.9,10.73,10.73,0,0,0,3.9,2.53,16,16,0,0,0,5.34,1c2.34.1,3.09.13,9.07.13s6.72,0,9.07-.13a16.06,16.06,0,0,0,5.34-1,10.78,10.78,0,0,0,3.89-2.53A10.71,10.71,0,0,0-150-59a15.84,15.84,0,0,0,1-5.34c.11-2.35.14-3.1.14-9.07s0-6.73-.14-9.07a15.84,15.84,0,0,0-1-5.34,10.63,10.63,0,0,0-2.54-3.9,10.81,10.81,0,0,0-3.89-2.54,16.35,16.35,0,0,0-5.34-1C-164.08-95.35-164.83-95.37-170.8-95.37Zm0,4c5.87,0,6.57,0,8.89.13a12.2,12.2,0,0,1,4.08.76,6.79,6.79,0,0,1,2.53,1.64,6.9,6.9,0,0,1,1.65,2.53,12.09,12.09,0,0,1,.75,4.09c.11,2.32.13,3,.13,8.89s0,6.57-.13,8.89a12,12,0,0,1-.75,4.08,6.81,6.81,0,0,1-1.65,2.53,6.81,6.81,0,0,1-2.53,1.65,12.2,12.2,0,0,1-4.08.76c-2.32.1-3,.12-8.89.12s-6.57,0-8.89-.12a12.28,12.28,0,0,1-4.09-.76,6.81,6.81,0,0,1-2.53-1.65,6.67,6.67,0,0,1-1.64-2.53,12,12,0,0,1-.76-4.08c-.11-2.32-.13-3-.13-8.89s0-6.57.13-8.89a12,12,0,0,1,.76-4.09,6.75,6.75,0,0,1,1.64-2.53,6.79,6.79,0,0,1,2.53-1.64,12.28,12.28,0,0,1,4.09-.76c2.32-.11,3-.13,8.89-.13"/></clipPath><clipPath id="clip-path-5"><circle class="cls-1" cx="-385.61" cy="-73.37" r="44"/></clipPath><clipPath id="clip-path-6"><path class="cls-2" d="M-365.61-53.37h-8.84V-67.44c0-3.68-1.38-6.19-4.42-6.19a4.53,4.53,0,0,0-4.22,3.33,6.67,6.67,0,0,0-.19,2.22v14.71H-392s.11-24.91,0-27.18h8.76v4.27c.51-1.87,3.31-4.53,7.78-4.53,5.54,0,9.89,3.91,9.89,12.33ZM-400.9-83.94H-401a4.51,4.51,0,0,1-4.65-4.71,4.55,4.55,0,0,1,4.77-4.72,4.53,4.53,0,0,1,4.7,4.71A4.55,4.55,0,0,1-400.9-83.94Zm-3.7,3.39h7.8v27.17h-7.8Z"/></clipPath><clipPath id="clip-path-7"><circle class="cls-1" cx="-278.21" cy="-73.37" r="44"/></clipPath><clipPath id="clip-path-8"><path class="cls-2" d="M-258.66-77.08q-8.05,5.06-12.23,7.84c-.93.64-1.69,1.14-2.27,1.49a13.85,13.85,0,0,1-2.32,1.09,7.63,7.63,0,0,1-2.7.56h-.05a7.54,7.54,0,0,1-2.7-.56,13.85,13.85,0,0,1-2.32-1.09c-.58-.35-1.34-.85-2.27-1.49q-3.32-2.25-12.21-7.84a12.73,12.73,0,0,1-2.48-2v18A3.38,3.38,0,0,0-299-58.44a3.94,3.94,0,0,0,2.77,1.07h36.15a3.94,3.94,0,0,0,2.77-1.07A3.37,3.37,0,0,0-256.21-61V-79A13.46,13.46,0,0,1-258.66-77.08ZM-296-79.51l5,3.24,6.43,4.15q.25.15,1,.69c.53.36,1,.64,1.32.86s.78.47,1.28.74a7.6,7.6,0,0,0,1.41.62,4.37,4.37,0,0,0,1.23.2h.05a4.43,4.43,0,0,0,1.23-.2,8.33,8.33,0,0,0,1.41-.62c.5-.27.92-.52,1.28-.74s.79-.5,1.32-.86l1-.69,11.5-7.39a11.24,11.24,0,0,0,3-2.79,5.75,5.75,0,0,0,1.2-3.44,3.33,3.33,0,0,0-1.16-2.56,3.93,3.93,0,0,0-2.76-1.07h-36.15a3.63,3.63,0,0,0-2.91,1.18,4.36,4.36,0,0,0-1,3,5.11,5.11,0,0,0,1.35,3.11A12,12,0,0,0-296-79.51Z"/></clipPath><clipPath id="clip-path-9"><circle class="cls-1" cx="-63.4" cy="-73.37" r="44"/></clipPath><clipPath id="clip-path-10"><circle class="cls-1" cx="-493.01" cy="45.81" r="44"/></clipPath><clipPath id="clip-path-11"><path class="cls-3" d="M-476,35.5a9,9,0,0,0,3.79-5,16.86,16.86,0,0,1-5.47,2.2,8.39,8.39,0,0,0-6.29-2.87,8.86,8.86,0,0,0-8.62,9.09,10,10,0,0,0,.22,2.07,24.09,24.09,0,0,1-17.76-9.5A9.48,9.48,0,0,0-511.25,36a9.23,9.23,0,0,0,3.83,7.57,8.28,8.28,0,0,1-3.9-1.14v.12a9,9,0,0,0,6.91,8.91,8.09,8.09,0,0,1-2.27.32,7.81,7.81,0,0,1-1.62-.17A8.69,8.69,0,0,0-500.25,58a16.73,16.73,0,0,1-10.7,3.89,15.51,15.51,0,0,1-2.06-.12,23.45,23.45,0,0,0,13.21,4.08c15.85,0,24.51-13.85,24.51-25.86,0-.39,0-.78,0-1.17a17.76,17.76,0,0,0,4.3-4.71A16.32,16.32,0,0,1-476,35.5Z"/></clipPath><clipPath id="clip-path-12"><circle class="cls-1" cx="-170.8" cy="45.81" r="44"/></clipPath><clipPath id="clip-path-13"><path class="cls-3" d="M-156.49,34a2.61,2.61,0,0,1-2.62,2.61A2.61,2.61,0,0,1-161.72,34a2.61,2.61,0,0,1,2.61-2.62A2.62,2.62,0,0,1-156.49,34Zm-14.27,19.16a7.34,7.34,0,0,1-7.34-7.33,7.34,7.34,0,0,1,7.34-7.34,7.34,7.34,0,0,1,7.34,7.34A7.34,7.34,0,0,1-170.76,53.19Zm0-18.64a11.31,11.31,0,0,0-11.31,11.31,11.31,11.31,0,0,0,11.31,11.3,11.31,11.31,0,0,0,11.31-11.3A11.31,11.31,0,0,0-170.76,34.55Zm0-10.74c-6,0-6.73,0-9.07.13a16,16,0,0,0-5.34,1,10.73,10.73,0,0,0-3.9,2.53,10.84,10.84,0,0,0-2.54,3.9,16.35,16.35,0,0,0-1,5.34c-.11,2.35-.13,3.1-.13,9.07s0,6.73.13,9.07a16.35,16.35,0,0,0,1,5.34,10.76,10.76,0,0,0,2.54,3.9,10.89,10.89,0,0,0,3.9,2.54,16.24,16.24,0,0,0,5.34,1c2.34.11,3.09.13,9.07.13s6.72,0,9.07-.13a16.35,16.35,0,0,0,5.34-1,10.94,10.94,0,0,0,3.89-2.54,10.63,10.63,0,0,0,2.54-3.9,15.84,15.84,0,0,0,1-5.34c.11-2.34.14-3.09.14-9.07s0-6.72-.14-9.07a15.84,15.84,0,0,0-1-5.34,10.71,10.71,0,0,0-2.54-3.9A10.78,10.78,0,0,0-156.39,25a16.06,16.06,0,0,0-5.34-1C-164.08,23.84-164.83,23.81-170.8,23.81Zm0,4c5.87,0,6.57,0,8.89.12a12.2,12.2,0,0,1,4.08.76,6.81,6.81,0,0,1,2.53,1.65,6.81,6.81,0,0,1,1.65,2.53,12,12,0,0,1,.75,4.08c.11,2.32.13,3,.13,8.89s0,6.57-.13,8.89a12.09,12.09,0,0,1-.75,4.09,6.9,6.9,0,0,1-1.65,2.53A6.79,6.79,0,0,1-157.83,63a12.2,12.2,0,0,1-4.08.76c-2.32.11-3,.13-8.89.13s-6.57,0-8.89-.13a12.28,12.28,0,0,1-4.09-.76,6.79,6.79,0,0,1-2.53-1.64,6.75,6.75,0,0,1-1.64-2.53,12,12,0,0,1-.76-4.09c-.11-2.32-.13-3-.13-8.89s0-6.57.13-8.89a12,12,0,0,1,.76-4.08,6.67,6.67,0,0,1,1.64-2.53,6.81,6.81,0,0,1,2.53-1.65,12.28,12.28,0,0,1,4.09-.76c2.32-.1,3-.12,8.89-.12"/></clipPath><clipPath id="clip-path-14"><circle class="cls-1" cx="-385.61" cy="45.81" r="44"/></clipPath><clipPath id="clip-path-15"><path class="cls-3" d="M-365.61,65.81h-8.84V51.75c0-3.68-1.38-6.19-4.42-6.19a4.52,4.52,0,0,0-4.22,3.33,6.64,6.64,0,0,0-.19,2.22v14.7H-392s.11-24.91,0-27.17h8.76V42.9c.51-1.86,3.31-4.52,7.78-4.52,5.54,0,9.89,3.91,9.89,12.32ZM-400.9,35.24H-401a4.51,4.51,0,0,1-4.65-4.71,4.55,4.55,0,0,1,4.77-4.72,4.53,4.53,0,0,1,4.7,4.71A4.55,4.55,0,0,1-400.9,35.24Zm-3.7,3.4h7.8V65.81h-7.8Z"/></clipPath><clipPath id="clip-path-16"><circle class="cls-1" cx="-278.21" cy="45.81" r="44"/></clipPath><clipPath id="clip-path-17"><path class="cls-3" d="M-258.66,42.11q-8.05,5-12.23,7.84c-.93.63-1.69,1.13-2.27,1.49a14.69,14.69,0,0,1-2.32,1.09,7.6,7.6,0,0,1-2.7.55h-.05a7.52,7.52,0,0,1-2.7-.55,14.69,14.69,0,0,1-2.32-1.09c-.58-.36-1.34-.86-2.27-1.49q-3.32-2.25-12.21-7.84a13.15,13.15,0,0,1-2.48-2v18A3.37,3.37,0,0,0-299,60.74a3.9,3.9,0,0,0,2.77,1.07h36.15a3.9,3.9,0,0,0,2.77-1.07,3.36,3.36,0,0,0,1.15-2.57v-18A13.09,13.09,0,0,1-258.66,42.11ZM-296,39.68l5,3.23,6.43,4.15,1,.69q.8.54,1.32.87c.36.22.78.46,1.28.74a8.23,8.23,0,0,0,1.41.61,4,4,0,0,0,1.23.2h.05a4.09,4.09,0,0,0,1.23-.2,8.23,8.23,0,0,0,1.41-.61c.5-.28.92-.52,1.28-.74s.79-.51,1.32-.87l1-.69,11.5-7.39a11.24,11.24,0,0,0,3-2.79,5.73,5.73,0,0,0,1.2-3.43,3.35,3.35,0,0,0-1.16-2.57,4,4,0,0,0-2.76-1.07h-36.15A3.66,3.66,0,0,0-299.19,31a4.38,4.38,0,0,0-1,3,5.09,5.09,0,0,0,1.35,3.1A12.09,12.09,0,0,0-296,39.68Z"/></clipPath><clipPath id="clip-path-18"><circle class="cls-1" cx="-63.4" cy="45.81" r="44"/></clipPath><clipPath id="clip-path-19"><circle class="cls-1" cx="-493.01" cy="169.43" r="44"/></clipPath><clipPath id="clip-path-20"><path class="cls-4" d="M-476,159.12a9,9,0,0,0,3.79-5,16.86,16.86,0,0,1-5.47,2.2,8.39,8.39,0,0,0-6.29-2.87,8.86,8.86,0,0,0-8.62,9.09,10.1,10.1,0,0,0,.22,2.07,24.09,24.09,0,0,1-17.76-9.5,9.48,9.48,0,0,0-1.16,4.57,9.24,9.24,0,0,0,3.83,7.57,8.28,8.28,0,0,1-3.9-1.14v.11a9,9,0,0,0,6.91,8.91,7.74,7.74,0,0,1-2.27.32,7.81,7.81,0,0,1-1.62-.16,8.69,8.69,0,0,0,8.05,6.31,16.73,16.73,0,0,1-10.7,3.89,17.41,17.41,0,0,1-2.06-.12,23.45,23.45,0,0,0,13.21,4.08c15.85,0,24.51-13.85,24.51-25.86,0-.39,0-.78,0-1.17a17.91,17.91,0,0,0,4.3-4.71A16.61,16.61,0,0,1-476,159.12Z"/></clipPath><clipPath id="clip-path-21"><circle class="cls-1" cx="-170.8" cy="169.43" r="44"/></clipPath><clipPath id="clip-path-22"><path class="cls-4" d="M-156.49,157.64a2.62,2.62,0,0,1-2.62,2.62,2.61,2.61,0,0,1-2.61-2.62,2.61,2.61,0,0,1,2.61-2.61A2.61,2.61,0,0,1-156.49,157.64Zm-14.27,19.17a7.34,7.34,0,0,1-7.34-7.34,7.34,7.34,0,0,1,7.34-7.33,7.34,7.34,0,0,1,7.34,7.33A7.34,7.34,0,0,1-170.76,176.81Zm0-18.64a11.31,11.31,0,0,0-11.31,11.3,11.31,11.31,0,0,0,11.31,11.31,11.31,11.31,0,0,0,11.31-11.31A11.31,11.31,0,0,0-170.76,158.17Zm0-10.74c-6,0-6.73,0-9.07.13a16,16,0,0,0-5.34,1,10.73,10.73,0,0,0-3.9,2.53,10.84,10.84,0,0,0-2.54,3.9,16.35,16.35,0,0,0-1,5.34c-.11,2.35-.13,3.1-.13,9.07s0,6.72.13,9.07a16.35,16.35,0,0,0,1,5.34,10.76,10.76,0,0,0,2.54,3.9,10.89,10.89,0,0,0,3.9,2.54,16.24,16.24,0,0,0,5.34,1c2.34.11,3.09.13,9.07.13s6.72,0,9.07-.13a16.35,16.35,0,0,0,5.34-1,10.94,10.94,0,0,0,3.89-2.54,10.63,10.63,0,0,0,2.54-3.9,15.84,15.84,0,0,0,1-5.34c.11-2.35.14-3.09.14-9.07s0-6.72-.14-9.07a15.84,15.84,0,0,0-1-5.34,10.71,10.71,0,0,0-2.54-3.9,10.78,10.78,0,0,0-3.89-2.53,16.06,16.06,0,0,0-5.34-1C-164.08,147.46-164.83,147.43-170.8,147.43Zm0,4c5.87,0,6.57,0,8.89.13a12.2,12.2,0,0,1,4.08.76,6.81,6.81,0,0,1,2.53,1.65,6.81,6.81,0,0,1,1.65,2.53,12,12,0,0,1,.75,4.08c.11,2.32.13,3,.13,8.89s0,6.57-.13,8.89a12.09,12.09,0,0,1-.75,4.09,6.9,6.9,0,0,1-1.65,2.53,6.92,6.92,0,0,1-2.53,1.64,12.2,12.2,0,0,1-4.08.76c-2.32.1-3,.13-8.89.13s-6.57,0-8.89-.13a12.28,12.28,0,0,1-4.09-.76,6.92,6.92,0,0,1-2.53-1.64,6.75,6.75,0,0,1-1.64-2.53,12,12,0,0,1-.76-4.09c-.11-2.32-.13-3-.13-8.89s0-6.57.13-8.89a12,12,0,0,1,.76-4.08,6.67,6.67,0,0,1,1.64-2.53,6.81,6.81,0,0,1,2.53-1.65,12.28,12.28,0,0,1,4.09-.76c2.32-.1,3-.13,8.89-.13"/></clipPath><clipPath id="clip-path-23"><circle class="cls-1" cx="-385.61" cy="169.43" r="44"/></clipPath><clipPath id="clip-path-24"><path class="cls-4" d="M-365.61,189.43h-8.84V175.37c0-3.68-1.38-6.19-4.42-6.19a4.52,4.52,0,0,0-4.22,3.33,6.64,6.64,0,0,0-.19,2.22v14.7H-392s.11-24.91,0-27.17h8.76v4.26c.51-1.86,3.31-4.52,7.78-4.52,5.54,0,9.89,3.91,9.89,12.32Zm-35.29-30.57H-401a4.51,4.51,0,0,1-4.65-4.71,4.55,4.55,0,0,1,4.77-4.72,4.53,4.53,0,0,1,4.7,4.71A4.55,4.55,0,0,1-400.9,158.86Zm-3.7,3.4h7.8v27.17h-7.8Z"/></clipPath><clipPath id="clip-path-25"><circle class="cls-1" cx="-278.21" cy="169.43" r="44"/></clipPath><clipPath id="clip-path-26"><path class="cls-4" d="M-258.66,165.73q-8.05,5-12.23,7.84c-.93.63-1.69,1.13-2.27,1.49a15.64,15.64,0,0,1-2.32,1.09,7.6,7.6,0,0,1-2.7.55h-.05a7.52,7.52,0,0,1-2.7-.55,15.64,15.64,0,0,1-2.32-1.09c-.58-.36-1.34-.86-2.27-1.49q-3.32-2.25-12.21-7.84a13.15,13.15,0,0,1-2.48-2v18a3.38,3.38,0,0,0,1.16,2.57,3.94,3.94,0,0,0,2.77,1.07h36.15a3.94,3.94,0,0,0,2.77-1.07,3.37,3.37,0,0,0,1.15-2.57v-18A13.09,13.09,0,0,1-258.66,165.73ZM-296,163.29q.83.56,5,3.24l6.43,4.15,1,.69q.8.54,1.32.87c.36.22.78.46,1.28.74a8.23,8.23,0,0,0,1.41.61,4,4,0,0,0,1.23.2h.05a4.09,4.09,0,0,0,1.23-.2,8.23,8.23,0,0,0,1.41-.61c.5-.28.92-.52,1.28-.74s.79-.51,1.32-.87l1-.69,11.5-7.39a11.24,11.24,0,0,0,3-2.79,5.73,5.73,0,0,0,1.2-3.43,3.35,3.35,0,0,0-1.16-2.57,4,4,0,0,0-2.76-1.07h-36.15a3.63,3.63,0,0,0-2.91,1.18,4.38,4.38,0,0,0-1,3,5.09,5.09,0,0,0,1.35,3.1A11.83,11.83,0,0,0-296,163.29Z"/></clipPath><clipPath id="clip-path-27"><circle class="cls-1" cx="-63.4" cy="169.43" r="44"/></clipPath><clipPath id="clip-path-28"><circle class="cls-5" cx="44" cy="-73.37" r="44"/></clipPath><clipPath id="clip-path-29"><circle class="cls-6" cx="44" cy="44" r="44"/></clipPath><clipPath id="clip-path-30"><rect class="cls-6" x="-440" y="-80" width="1328" height="1168"/></clipPath></defs><path class="cls-8" d="M-476-83.68a9,9,0,0,0,3.79-5,16.66,16.66,0,0,1-5.47,2.21,8.39,8.39,0,0,0-6.29-2.87,8.86,8.86,0,0,0-8.62,9.08,10,10,0,0,0,.22,2.07,24.08,24.08,0,0,1-17.76-9.49,9.48,9.48,0,0,0-1.16,4.57,9.26,9.26,0,0,0,3.83,7.57,8.28,8.28,0,0,1-3.9-1.14v.11a9,9,0,0,0,6.91,8.91,8.09,8.09,0,0,1-2.27.32,7.81,7.81,0,0,1-1.62-.16,8.69,8.69,0,0,0,8.05,6.31,16.73,16.73,0,0,1-10.7,3.89,17.41,17.41,0,0,1-2.06-.12,23.53,23.53,0,0,0,13.21,4.08c15.85,0,24.51-13.85,24.51-25.86,0-.39,0-.79,0-1.18a17.87,17.87,0,0,0,4.3-4.7A16.61,16.61,0,0,1-476-83.68Z"/><g class="cls-9"><rect class="cls-10" x="-737.01" y="-197.37" width="1328" height="1168"/></g><path class="cls-8" d="M-156.49-85.16a2.62,2.62,0,0,1-2.62,2.62,2.61,2.61,0,0,1-2.61-2.62,2.62,2.62,0,0,1,2.61-2.62A2.62,2.62,0,0,1-156.49-85.16ZM-170.76-66a7.34,7.34,0,0,1-7.34-7.34,7.34,7.34,0,0,1,7.34-7.34,7.34,7.34,0,0,1,7.34,7.34A7.34,7.34,0,0,1-170.76-66Zm0-18.64a11.31,11.31,0,0,0-11.31,11.3A11.31,11.31,0,0,0-170.76-62a11.31,11.31,0,0,0,11.31-11.31A11.31,11.31,0,0,0-170.76-84.63Zm0-10.74c-6,0-6.73,0-9.07.13a16.24,16.24,0,0,0-5.34,1,10.76,10.76,0,0,0-3.9,2.54,10.76,10.76,0,0,0-2.54,3.9,16.35,16.35,0,0,0-1,5.34c-.11,2.34-.13,3.09-.13,9.07s0,6.72.13,9.07a16.35,16.35,0,0,0,1,5.34,10.84,10.84,0,0,0,2.54,3.9,10.73,10.73,0,0,0,3.9,2.53,16,16,0,0,0,5.34,1c2.34.1,3.09.13,9.07.13s6.72,0,9.07-.13a16.06,16.06,0,0,0,5.34-1,10.78,10.78,0,0,0,3.89-2.53A10.71,10.71,0,0,0-150-59a15.84,15.84,0,0,0,1-5.34c.11-2.35.14-3.1.14-9.07s0-6.73-.14-9.07a15.84,15.84,0,0,0-1-5.34,10.63,10.63,0,0,0-2.54-3.9,10.81,10.81,0,0,0-3.89-2.54,16.35,16.35,0,0,0-5.34-1C-164.08-95.35-164.83-95.37-170.8-95.37Zm0,4c5.87,0,6.57,0,8.89.13a12.2,12.2,0,0,1,4.08.76,6.79,6.79,0,0,1,2.53,1.64,6.9,6.9,0,0,1,1.65,2.53,12.09,12.09,0,0,1,.75,4.09c.11,2.32.13,3,.13,8.89s0,6.57-.13,8.89a12,12,0,0,1-.75,4.08,6.81,6.81,0,0,1-1.65,2.53,6.81,6.81,0,0,1-2.53,1.65,12.2,12.2,0,0,1-4.08.76c-2.32.1-3,.12-8.89.12s-6.57,0-8.89-.12a12.28,12.28,0,0,1-4.09-.76,6.81,6.81,0,0,1-2.53-1.65,6.67,6.67,0,0,1-1.64-2.53,12,12,0,0,1-.76-4.08c-.11-2.32-.13-3-.13-8.89s0-6.57.13-8.89a12,12,0,0,1,.76-4.09,6.75,6.75,0,0,1,1.64-2.53,6.79,6.79,0,0,1,2.53-1.64,12.28,12.28,0,0,1,4.09-.76c2.32-.11,3-.13,8.89-.13"/><g class="cls-12"><rect class="cls-10" x="-654.8" y="-197.37" width="1328" height="1168"/></g><path class="cls-8" d="M-365.61-53.37h-8.84V-67.44c0-3.68-1.38-6.19-4.42-6.19a4.53,4.53,0,0,0-4.22,3.33,6.67,6.67,0,0,0-.19,2.22v14.71H-392s.11-24.91,0-27.18h8.76v4.27c.51-1.87,3.31-4.53,7.78-4.53,5.54,0,9.89,3.91,9.89,12.33ZM-400.9-83.94H-401a4.51,4.51,0,0,1-4.65-4.71,4.55,4.55,0,0,1,4.77-4.72,4.53,4.53,0,0,1,4.7,4.71A4.55,4.55,0,0,1-400.9-83.94Zm-3.7,3.39h7.8v27.17h-7.8Z"/><g class="cls-14"><rect class="cls-10" x="-1229.61" y="-197.37" width="1328" height="1168"/></g><path class="cls-8" d="M-258.66-77.08q-8.05,5.06-12.23,7.84c-.93.64-1.69,1.14-2.27,1.49a13.85,13.85,0,0,1-2.32,1.09,7.63,7.63,0,0,1-2.7.56h-.05a7.54,7.54,0,0,1-2.7-.56,13.85,13.85,0,0,1-2.32-1.09c-.58-.35-1.34-.85-2.27-1.49q-3.32-2.25-12.21-7.84a12.73,12.73,0,0,1-2.48-2v18A3.38,3.38,0,0,0-299-58.44a3.94,3.94,0,0,0,2.77,1.07h36.15a3.94,3.94,0,0,0,2.77-1.07A3.37,3.37,0,0,0-256.21-61V-79A13.46,13.46,0,0,1-258.66-77.08ZM-296-79.51l5,3.24,6.43,4.15q.25.15,1,.69c.53.36,1,.64,1.32.86s.78.47,1.28.74a7.6,7.6,0,0,0,1.41.62,4.37,4.37,0,0,0,1.23.2h.05a4.43,4.43,0,0,0,1.23-.2,8.33,8.33,0,0,0,1.41-.62c.5-.27.92-.52,1.28-.74s.79-.5,1.32-.86l1-.69,11.5-7.39a11.24,11.24,0,0,0,3-2.79,5.75,5.75,0,0,0,1.2-3.44,3.33,3.33,0,0,0-1.16-2.56,3.93,3.93,0,0,0-2.76-1.07h-36.15a3.63,3.63,0,0,0-2.91,1.18,4.36,4.36,0,0,0-1,3,5.11,5.11,0,0,0,1.35,3.11A12,12,0,0,0-296-79.51Z"/><g class="cls-16"><rect class="cls-10" x="-642.21" y="-437.37" width="1328" height="1168"/></g><path class="cls-19" d="M-476,35.5a9,9,0,0,0,3.79-5,16.86,16.86,0,0,1-5.47,2.2,8.39,8.39,0,0,0-6.29-2.87,8.86,8.86,0,0,0-8.62,9.09,10,10,0,0,0,.22,2.07,24.09,24.09,0,0,1-17.76-9.5A9.48,9.48,0,0,0-511.25,36a9.23,9.23,0,0,0,3.83,7.57,8.28,8.28,0,0,1-3.9-1.14v.12a9,9,0,0,0,6.91,8.91,8.09,8.09,0,0,1-2.27.32,7.81,7.81,0,0,1-1.62-.17A8.69,8.69,0,0,0-500.25,58a16.73,16.73,0,0,1-10.7,3.89,15.51,15.51,0,0,1-2.06-.12,23.45,23.45,0,0,0,13.21,4.08c15.85,0,24.51-13.85,24.51-25.86,0-.39,0-.78,0-1.17a17.76,17.76,0,0,0,4.3-4.71A16.32,16.32,0,0,1-476,35.5Z"/><g class="cls-20"><rect class="cls-5" x="-737.01" y="-78.19" width="1328" height="1168"/></g><path class="cls-19" d="M-156.49,34a2.61,2.61,0,0,1-2.62,2.61A2.61,2.61,0,0,1-161.72,34a2.61,2.61,0,0,1,2.61-2.62A2.62,2.62,0,0,1-156.49,34Zm-14.27,19.16a7.34,7.34,0,0,1-7.34-7.33,7.34,7.34,0,0,1,7.34-7.34,7.34,7.34,0,0,1,7.34,7.34A7.34,7.34,0,0,1-170.76,53.19Zm0-18.64a11.31,11.31,0,0,0-11.31,11.31,11.31,11.31,0,0,0,11.31,11.3,11.31,11.31,0,0,0,11.31-11.3A11.31,11.31,0,0,0-170.76,34.55Zm0-10.74c-6,0-6.73,0-9.07.13a16,16,0,0,0-5.34,1,10.73,10.73,0,0,0-3.9,2.53,10.84,10.84,0,0,0-2.54,3.9,16.35,16.35,0,0,0-1,5.34c-.11,2.35-.13,3.1-.13,9.07s0,6.73.13,9.07a16.35,16.35,0,0,0,1,5.34,10.76,10.76,0,0,0,2.54,3.9,10.89,10.89,0,0,0,3.9,2.54,16.24,16.24,0,0,0,5.34,1c2.34.11,3.09.13,9.07.13s6.72,0,9.07-.13a16.35,16.35,0,0,0,5.34-1,10.94,10.94,0,0,0,3.89-2.54,10.63,10.63,0,0,0,2.54-3.9,15.84,15.84,0,0,0,1-5.34c.11-2.34.14-3.09.14-9.07s0-6.72-.14-9.07a15.84,15.84,0,0,0-1-5.34,10.71,10.71,0,0,0-2.54-3.9A10.78,10.78,0,0,0-156.39,25a16.06,16.06,0,0,0-5.34-1C-164.08,23.84-164.83,23.81-170.8,23.81Zm0,4c5.87,0,6.57,0,8.89.12a12.2,12.2,0,0,1,4.08.76,6.81,6.81,0,0,1,2.53,1.65,6.81,6.81,0,0,1,1.65,2.53,12,12,0,0,1,.75,4.08c.11,2.32.13,3,.13,8.89s0,6.57-.13,8.89a12.09,12.09,0,0,1-.75,4.09,6.9,6.9,0,0,1-1.65,2.53A6.79,6.79,0,0,1-157.83,63a12.2,12.2,0,0,1-4.08.76c-2.32.11-3,.13-8.89.13s-6.57,0-8.89-.13a12.28,12.28,0,0,1-4.09-.76,6.79,6.79,0,0,1-2.53-1.64,6.75,6.75,0,0,1-1.64-2.53,12,12,0,0,1-.76-4.09c-.11-2.32-.13-3-.13-8.89s0-6.57.13-8.89a12,12,0,0,1,.76-4.08,6.67,6.67,0,0,1,1.64-2.53,6.81,6.81,0,0,1,2.53-1.65,12.28,12.28,0,0,1,4.09-.76c2.32-.1,3-.12,8.89-.12"/><g class="cls-22"><rect class="cls-5" x="-654.8" y="-78.19" width="1328" height="1168"/></g><path class="cls-19" d="M-365.61,65.81h-8.84V51.75c0-3.68-1.38-6.19-4.42-6.19a4.52,4.52,0,0,0-4.22,3.33,6.64,6.64,0,0,0-.19,2.22v14.7H-392s.11-24.91,0-27.17h8.76V42.9c.51-1.86,3.31-4.52,7.78-4.52,5.54,0,9.89,3.91,9.89,12.32ZM-400.9,35.24H-401a4.51,4.51,0,0,1-4.65-4.71,4.55,4.55,0,0,1,4.77-4.72,4.53,4.53,0,0,1,4.7,4.71A4.55,4.55,0,0,1-400.9,35.24Zm-3.7,3.4h7.8V65.81h-7.8Z"/><g class="cls-24"><rect class="cls-5" x="-1229.61" y="-78.19" width="1328" height="1168"/></g><path class="cls-19" d="M-258.66,42.11q-8.05,5-12.23,7.84c-.93.63-1.69,1.13-2.27,1.49a14.69,14.69,0,0,1-2.32,1.09,7.6,7.6,0,0,1-2.7.55h-.05a7.52,7.52,0,0,1-2.7-.55,14.69,14.69,0,0,1-2.32-1.09c-.58-.36-1.34-.86-2.27-1.49q-3.32-2.25-12.21-7.84a13.15,13.15,0,0,1-2.48-2v18A3.37,3.37,0,0,0-299,60.74a3.9,3.9,0,0,0,2.77,1.07h36.15a3.9,3.9,0,0,0,2.77-1.07,3.36,3.36,0,0,0,1.15-2.57v-18A13.09,13.09,0,0,1-258.66,42.11ZM-296,39.68l5,3.23,6.43,4.15,1,.69q.8.54,1.32.87c.36.22.78.46,1.28.74a8.23,8.23,0,0,0,1.41.61,4,4,0,0,0,1.23.2h.05a4.09,4.09,0,0,0,1.23-.2,8.23,8.23,0,0,0,1.41-.61c.5-.28.92-.52,1.28-.74s.79-.51,1.32-.87l1-.69,11.5-7.39a11.24,11.24,0,0,0,3-2.79,5.73,5.73,0,0,0,1.2-3.43,3.35,3.35,0,0,0-1.16-2.57,4,4,0,0,0-2.76-1.07h-36.15A3.66,3.66,0,0,0-299.19,31a4.38,4.38,0,0,0-1,3,5.09,5.09,0,0,0,1.35,3.1A12.09,12.09,0,0,0-296,39.68Z"/><g class="cls-26"><rect class="cls-5" x="-642.21" y="-318.19" width="1328" height="1168"/></g><path class="cls-29" d="M-476,159.12a9,9,0,0,0,3.79-5,16.86,16.86,0,0,1-5.47,2.2,8.39,8.39,0,0,0-6.29-2.87,8.86,8.86,0,0,0-8.62,9.09,10.1,10.1,0,0,0,.22,2.07,24.09,24.09,0,0,1-17.76-9.5,9.48,9.48,0,0,0-1.16,4.57,9.24,9.24,0,0,0,3.83,7.57,8.28,8.28,0,0,1-3.9-1.14v.11a9,9,0,0,0,6.91,8.91,7.74,7.74,0,0,1-2.27.32,7.81,7.81,0,0,1-1.62-.16,8.69,8.69,0,0,0,8.05,6.31,16.73,16.73,0,0,1-10.7,3.89,17.41,17.41,0,0,1-2.06-.12,23.45,23.45,0,0,0,13.21,4.08c15.85,0,24.51-13.85,24.51-25.86,0-.39,0-.78,0-1.17a17.91,17.91,0,0,0,4.3-4.71A16.61,16.61,0,0,1-476,159.12Z"/><g class="cls-30"><rect class="cls-6" x="-737.01" y="45.43" width="1328" height="1168"/></g><path class="cls-29" d="M-156.49,157.64a2.62,2.62,0,0,1-2.62,2.62,2.61,2.61,0,0,1-2.61-2.62,2.61,2.61,0,0,1,2.61-2.61A2.61,2.61,0,0,1-156.49,157.64Zm-14.27,19.17a7.34,7.34,0,0,1-7.34-7.34,7.34,7.34,0,0,1,7.34-7.33,7.34,7.34,0,0,1,7.34,7.33A7.34,7.34,0,0,1-170.76,176.81Zm0-18.64a11.31,11.31,0,0,0-11.31,11.3,11.31,11.31,0,0,0,11.31,11.31,11.31,11.31,0,0,0,11.31-11.31A11.31,11.31,0,0,0-170.76,158.17Zm0-10.74c-6,0-6.73,0-9.07.13a16,16,0,0,0-5.34,1,10.73,10.73,0,0,0-3.9,2.53,10.84,10.84,0,0,0-2.54,3.9,16.35,16.35,0,0,0-1,5.34c-.11,2.35-.13,3.1-.13,9.07s0,6.72.13,9.07a16.35,16.35,0,0,0,1,5.34,10.76,10.76,0,0,0,2.54,3.9,10.89,10.89,0,0,0,3.9,2.54,16.24,16.24,0,0,0,5.34,1c2.34.11,3.09.13,9.07.13s6.72,0,9.07-.13a16.35,16.35,0,0,0,5.34-1,10.94,10.94,0,0,0,3.89-2.54,10.63,10.63,0,0,0,2.54-3.9,15.84,15.84,0,0,0,1-5.34c.11-2.35.14-3.09.14-9.07s0-6.72-.14-9.07a15.84,15.84,0,0,0-1-5.34,10.71,10.71,0,0,0-2.54-3.9,10.78,10.78,0,0,0-3.89-2.53,16.06,16.06,0,0,0-5.34-1C-164.08,147.46-164.83,147.43-170.8,147.43Zm0,4c5.87,0,6.57,0,8.89.13a12.2,12.2,0,0,1,4.08.76,6.81,6.81,0,0,1,2.53,1.65,6.81,6.81,0,0,1,1.65,2.53,12,12,0,0,1,.75,4.08c.11,2.32.13,3,.13,8.89s0,6.57-.13,8.89a12.09,12.09,0,0,1-.75,4.09,6.9,6.9,0,0,1-1.65,2.53,6.92,6.92,0,0,1-2.53,1.64,12.2,12.2,0,0,1-4.08.76c-2.32.1-3,.13-8.89.13s-6.57,0-8.89-.13a12.28,12.28,0,0,1-4.09-.76,6.92,6.92,0,0,1-2.53-1.64,6.75,6.75,0,0,1-1.64-2.53,12,12,0,0,1-.76-4.09c-.11-2.32-.13-3-.13-8.89s0-6.57.13-8.89a12,12,0,0,1,.76-4.08,6.67,6.67,0,0,1,1.64-2.53,6.81,6.81,0,0,1,2.53-1.65,12.28,12.28,0,0,1,4.09-.76c2.32-.1,3-.13,8.89-.13"/><g class="cls-32"><rect class="cls-6" x="-654.8" y="45.43" width="1328" height="1168"/></g><path class="cls-29" d="M-365.61,189.43h-8.84V175.37c0-3.68-1.38-6.19-4.42-6.19a4.52,4.52,0,0,0-4.22,3.33,6.64,6.64,0,0,0-.19,2.22v14.7H-392s.11-24.91,0-27.17h8.76v4.26c.51-1.86,3.31-4.52,7.78-4.52,5.54,0,9.89,3.91,9.89,12.32Zm-35.29-30.57H-401a4.51,4.51,0,0,1-4.65-4.71,4.55,4.55,0,0,1,4.77-4.72,4.53,4.53,0,0,1,4.7,4.71A4.55,4.55,0,0,1-400.9,158.86Zm-3.7,3.4h7.8v27.17h-7.8Z"/><g class="cls-34"><rect class="cls-6" x="-1229.61" y="45.43" width="1328" height="1168"/></g><path class="cls-29" d="M-258.66,165.73q-8.05,5-12.23,7.84c-.93.63-1.69,1.13-2.27,1.49a15.64,15.64,0,0,1-2.32,1.09,7.6,7.6,0,0,1-2.7.55h-.05a7.52,7.52,0,0,1-2.7-.55,15.64,15.64,0,0,1-2.32-1.09c-.58-.36-1.34-.86-2.27-1.49q-3.32-2.25-12.21-7.84a13.15,13.15,0,0,1-2.48-2v18a3.38,3.38,0,0,0,1.16,2.57,3.94,3.94,0,0,0,2.77,1.07h36.15a3.94,3.94,0,0,0,2.77-1.07,3.37,3.37,0,0,0,1.15-2.57v-18A13.09,13.09,0,0,1-258.66,165.73ZM-296,163.29q.83.56,5,3.24l6.43,4.15,1,.69q.8.54,1.32.87c.36.22.78.46,1.28.74a8.23,8.23,0,0,0,1.41.61,4,4,0,0,0,1.23.2h.05a4.09,4.09,0,0,0,1.23-.2,8.23,8.23,0,0,0,1.41-.61c.5-.28.92-.52,1.28-.74s.79-.51,1.32-.87l1-.69,11.5-7.39a11.24,11.24,0,0,0,3-2.79,5.73,5.73,0,0,0,1.2-3.43,3.35,3.35,0,0,0-1.16-2.57,4,4,0,0,0-2.76-1.07h-36.15a3.63,3.63,0,0,0-2.91,1.18,4.38,4.38,0,0,0-1,3,5.09,5.09,0,0,0,1.35,3.1A11.83,11.83,0,0,0-296,163.29Z"/><g class="cls-36"><rect class="cls-6" x="-642.21" y="-194.57" width="1328" height="1168"/></g><circle class="cls-5" cx="44" cy="-73.37" r="44"/><g class="cls-38"><rect class="cls-5" x="-440" y="-197.37" width="1328" height="1168"/></g><circle class="cls-6" cx="44" cy="44" r="44"/><g class="cls-39"><rect class="cls-6" x="-440" y="-80" width="1328" height="1168"/><g class="cls-40"><circle class="cls-6" cx="44" cy="44" r="42" transform="translate(-13.49 20.19) rotate(-22.5)"/><path class="cls-6" d="M44,4A40,40,0,1,1,4,44,40,40,0,0,1,44,4m0-4A44,44,0,1,0,88,44,44,44,0,0,0,44,0Z"/></g></g><text class="cls-41" transform="translate(29.97 64.21)">J</text></svg>