<svg id="Layer_1" data-name="Layer 1" xmlns="http://www.w3.org/2000/svg" xmlns:xlink="http://www.w3.org/1999/xlink" viewBox="0 0 88 88"><defs><style>.cls-1,.cls-5{fill:none;}.cls-10,.cls-2,.cls-8{fill:#1a2966;}.cls-2,.cls-3,.cls-6{clip-rule:evenodd;}.cls-19,.cls-3,.cls-4{fill:#dc554f;}.cls-5{stroke:#fff;stroke-miterlimit:10;}.cls-31,.cls-33,.cls-6{fill:#fff;}.cls-7{clip-path:url(#clip-path);}.cls-19,.cls-31,.cls-8{fill-rule:evenodd;}.cls-9{clip-path:url(#clip-path-2);}.cls-11{clip-path:url(#clip-path-3);}.cls-12{clip-path:url(#clip-path-4);}.cls-13{clip-path:url(#clip-path-5);}.cls-14{clip-path:url(#clip-path-6);}.cls-15{clip-path:url(#clip-path-7);}.cls-16{clip-path:url(#clip-path-8);}.cls-17{clip-path:url(#clip-path-9);}.cls-18{clip-path:url(#clip-path-10);}.cls-20{clip-path:url(#clip-path-11);}.cls-21{clip-path:url(#clip-path-12);}.cls-22{clip-path:url(#clip-path-13);}.cls-23{clip-path:url(#clip-path-14);}.cls-24{clip-path:url(#clip-path-15);}.cls-25{clip-path:url(#clip-path-16);}.cls-26{clip-path:url(#clip-path-17);}.cls-27{clip-path:url(#clip-path-18);}.cls-28{clip-path:url(#clip-path-19);}.cls-29{clip-path:url(#clip-path-20);}.cls-30{clip-path:url(#clip-path-21);}.cls-32{clip-path:url(#clip-path-22);}.cls-34{clip-path:url(#clip-path-23);}.cls-35{clip-path:url(#clip-path-24);}.cls-36{clip-path:url(#clip-path-25);}.cls-37{clip-path:url(#clip-path-26);}.cls-38{clip-path:url(#clip-path-27);}.cls-39{clip-path:url(#clip-path-28);}.cls-40{clip-path:url(#clip-path-29);}.cls-41{clip-path:url(#clip-path-30);}</style><clipPath id="clip-path"><circle class="cls-1" cx="-170.8" cy="-75.18" r="44"/></clipPath><clipPath id="clip-path-2"><path class="cls-2" d="M-153.75-85.49a9.1,9.1,0,0,0,3.79-5,16.84,16.84,0,0,1-5.48,2.21,8.39,8.39,0,0,0-6.29-2.87,8.85,8.85,0,0,0-8.61,9.08,9.32,9.32,0,0,0,.22,2.07,24.06,24.06,0,0,1-17.76-9.49A9.43,9.43,0,0,0-189-84.95a9.2,9.2,0,0,0,3.84,7.56,8.31,8.31,0,0,1-3.91-1.13v.11a9,9,0,0,0,6.92,8.91,8.21,8.21,0,0,1-2.28.32,8.72,8.72,0,0,1-1.62-.16A8.7,8.7,0,0,0-178-63a16.71,16.71,0,0,1-10.7,3.89,15.46,15.46,0,0,1-2.05-.13,23.45,23.45,0,0,0,13.2,4.09c15.86,0,24.52-13.85,24.52-25.86,0-.4,0-.79,0-1.18a18.22,18.22,0,0,0,4.3-4.7A16.7,16.7,0,0,1-153.75-85.49Z"/></clipPath><clipPath id="clip-path-3"><circle class="cls-1" cx="151.4" cy="-75.18" r="44"/></clipPath><clipPath id="clip-path-4"><path class="cls-2" d="M165.72-87a2.62,2.62,0,0,1-2.62,2.62A2.62,2.62,0,0,1,160.48-87a2.62,2.62,0,0,1,2.62-2.62A2.62,2.62,0,0,1,165.72-87ZM151.45-67.8a7.34,7.34,0,0,1-7.34-7.34,7.34,7.34,0,0,1,7.34-7.34,7.34,7.34,0,0,1,7.33,7.34A7.34,7.34,0,0,1,151.45-67.8Zm0-18.65a11.31,11.31,0,0,0-11.31,11.31,11.3,11.3,0,0,0,11.31,11.3,11.3,11.3,0,0,0,11.3-11.3A11.31,11.31,0,0,0,151.45-86.45Zm0-10.73c-6,0-6.72,0-9.07.13A16.09,16.09,0,0,0,137-96a10.71,10.71,0,0,0-3.9,2.54,10.78,10.78,0,0,0-2.53,3.89,16.07,16.07,0,0,0-1,5.35c-.1,2.34-.13,3.09-.13,9.07s0,6.72.13,9.07a16.06,16.06,0,0,0,1,5.34,10.78,10.78,0,0,0,2.53,3.89,10.71,10.71,0,0,0,3.9,2.54,16.09,16.09,0,0,0,5.34,1c2.35.11,3.1.14,9.07.14s6.73,0,9.07-.14a16.09,16.09,0,0,0,5.34-1,10.63,10.63,0,0,0,3.9-2.54,10.94,10.94,0,0,0,2.54-3.89,16.35,16.35,0,0,0,1-5.34c.11-2.35.13-3.1.13-9.07s0-6.73-.13-9.07a16.36,16.36,0,0,0-1-5.35,10.94,10.94,0,0,0-2.54-3.89,10.63,10.63,0,0,0-3.9-2.54,16.09,16.09,0,0,0-5.34-1C158.13-97.16,157.38-97.18,151.4-97.18Zm0,4c5.88,0,6.57,0,8.89.13a12,12,0,0,1,4.09.76,6.75,6.75,0,0,1,2.53,1.64,6.79,6.79,0,0,1,1.64,2.53,12.28,12.28,0,0,1,.76,4.09c.11,2.32.13,3,.13,8.89s0,6.57-.13,8.89a12.2,12.2,0,0,1-.76,4.08,6.79,6.79,0,0,1-1.64,2.53A6.9,6.9,0,0,1,164.38-58a12.09,12.09,0,0,1-4.09.75c-2.32.11-3,.13-8.89.13s-6.57,0-8.89-.13a12,12,0,0,1-4.08-.75,6.81,6.81,0,0,1-2.53-1.65,6.81,6.81,0,0,1-1.65-2.53,12.2,12.2,0,0,1-.76-4.08c-.1-2.32-.12-3-.12-8.89s0-6.57.12-8.89a12.28,12.28,0,0,1,.76-4.09,6.81,6.81,0,0,1,1.65-2.53,6.67,6.67,0,0,1,2.53-1.64,12,12,0,0,1,4.08-.76c2.32-.11,3-.13,8.89-.13"/></clipPath><clipPath id="clip-path-5"><circle class="cls-1" cx="-63.4" cy="-75.18" r="44"/></clipPath><clipPath id="clip-path-6"><path class="cls-2" d="M-43.4-55.18h-8.84V-69.25c0-3.68-1.39-6.19-4.43-6.19a4.53,4.53,0,0,0-4.22,3.33,6.94,6.94,0,0,0-.19,2.22v14.71h-8.76s.12-24.91,0-27.18h8.76v4.27c.52-1.87,3.32-4.53,7.78-4.53,5.54,0,9.9,3.91,9.9,12.33ZM-78.69-85.76h-.06a4.5,4.5,0,0,1-4.65-4.7,4.54,4.54,0,0,1,4.76-4.72,4.52,4.52,0,0,1,4.7,4.71A4.53,4.53,0,0,1-78.69-85.76Zm-3.7,3.4h7.79v27.17h-7.79Z"/></clipPath><clipPath id="clip-path-7"><circle class="cls-1" cx="44" cy="-75.18" r="44"/></clipPath><clipPath id="clip-path-8"><path class="cls-2" d="M63.54-78.89q-8,5-12.22,7.84c-.94.64-1.69,1.14-2.27,1.49a14.65,14.65,0,0,1-2.32,1.09,7.64,7.64,0,0,1-2.71.56h0a7.64,7.64,0,0,1-2.71-.56A14.65,14.65,0,0,1,39-69.56c-.58-.35-1.33-.85-2.27-1.49q-3.32-2.25-12.2-7.84a12.4,12.4,0,0,1-2.48-2v18.05a3.37,3.37,0,0,0,1.15,2.57,4,4,0,0,0,2.78,1.07H62.07a4,4,0,0,0,2.78-1.07A3.37,3.37,0,0,0,66-62.82V-80.87A12.85,12.85,0,0,1,63.54-78.89ZM26.22-81.32l5,3.24c2.8,1.79,4.94,3.18,6.43,4.15l1,.69c.53.36,1,.64,1.33.86s.78.47,1.28.74a7.24,7.24,0,0,0,1.41.61,4.07,4.07,0,0,0,1.23.21h0A4.07,4.07,0,0,0,45.25-71a7.24,7.24,0,0,0,1.41-.61c.5-.27.93-.52,1.28-.74s.79-.5,1.33-.86l1-.69L61.8-81.32a11.32,11.32,0,0,0,3-2.8A5.7,5.7,0,0,0,66-87.55a3.37,3.37,0,0,0-1.17-2.57,3.94,3.94,0,0,0-2.76-1.06H25.93A3.63,3.63,0,0,0,23-90a4.36,4.36,0,0,0-1,3,5.07,5.07,0,0,0,1.35,3.1A11.85,11.85,0,0,0,26.22-81.32Z"/></clipPath><clipPath id="clip-path-9"><circle class="cls-1" cx="258.8" cy="-75.18" r="44"/></clipPath><clipPath id="clip-path-10"><circle class="cls-1" cx="-170.8" cy="44" r="44"/></clipPath><clipPath id="clip-path-11"><path class="cls-3" d="M-153.75,33.69a9,9,0,0,0,3.79-5,16.82,16.82,0,0,1-5.48,2.2A8.39,8.39,0,0,0-161.73,28a8.86,8.86,0,0,0-8.61,9.09,9.44,9.44,0,0,0,.22,2.07,24.07,24.07,0,0,1-17.76-9.5A9.49,9.49,0,0,0-189,34.23a9.22,9.22,0,0,0,3.84,7.57,8.32,8.32,0,0,1-3.91-1.14v.11a9,9,0,0,0,6.92,8.91,7.85,7.85,0,0,1-2.28.32,8,8,0,0,1-1.62-.16,8.7,8.7,0,0,0,8,6.31A16.71,16.71,0,0,1-188.75,60a17.36,17.36,0,0,1-2.05-.12A23.52,23.52,0,0,0-177.6,64c15.86,0,24.52-13.85,24.52-25.86,0-.39,0-.79,0-1.17a18.26,18.26,0,0,0,4.3-4.71A16.7,16.7,0,0,1-153.75,33.69Z"/></clipPath><clipPath id="clip-path-12"><circle class="cls-1" cx="151.4" cy="44" r="44"/></clipPath><clipPath id="clip-path-13"><path class="cls-3" d="M165.72,32.21a2.62,2.62,0,1,1-2.62-2.62A2.62,2.62,0,0,1,165.72,32.21ZM151.45,51.38A7.34,7.34,0,1,1,158.78,44,7.33,7.33,0,0,1,151.45,51.38Zm0-18.64A11.31,11.31,0,1,0,162.75,44,11.3,11.3,0,0,0,151.45,32.74Zm0-10.74c-6,0-6.72,0-9.07.13a16.06,16.06,0,0,0-5.34,1,11.15,11.15,0,0,0-6.43,6.43,16.06,16.06,0,0,0-1,5.34c-.1,2.35-.13,3.1-.13,9.07s0,6.72.13,9.07a16.06,16.06,0,0,0,1,5.34A11.15,11.15,0,0,0,137,64.84a16.06,16.06,0,0,0,5.34,1c2.35.1,3.1.13,9.07.13s6.73,0,9.07-.13a16.06,16.06,0,0,0,5.34-1,10.73,10.73,0,0,0,3.9-2.53,11,11,0,0,0,2.54-3.9,16.35,16.35,0,0,0,1-5.34c.11-2.35.13-3.1.13-9.07s0-6.72-.13-9.07a16.35,16.35,0,0,0-1-5.34,11,11,0,0,0-2.54-3.9,10.73,10.73,0,0,0-3.9-2.53,16.06,16.06,0,0,0-5.34-1C158.13,22,157.38,22,151.4,22Zm0,4c5.88,0,6.57,0,8.89.13a12.28,12.28,0,0,1,4.09.76,7,7,0,0,1,2.53,1.64A6.91,6.91,0,0,1,168.55,31a12.14,12.14,0,0,1,.76,4.08c.11,2.32.13,3,.13,8.89s0,6.57-.13,8.89a12.14,12.14,0,0,1-.76,4.08,6.91,6.91,0,0,1-1.64,2.54,7,7,0,0,1-2.53,1.64,12.28,12.28,0,0,1-4.09.76c-2.32.1-3,.13-8.89.13s-6.57,0-8.89-.13a12.2,12.2,0,0,1-4.08-.76A7.26,7.26,0,0,1,134.25,57a12.14,12.14,0,0,1-.76-4.08c-.1-2.32-.12-3-.12-8.89s0-6.57.12-8.89a12.14,12.14,0,0,1,.76-4.08,7.26,7.26,0,0,1,4.18-4.18,12.2,12.2,0,0,1,4.08-.76c2.32-.1,3-.13,8.89-.13"/></clipPath><clipPath id="clip-path-14"><circle class="cls-1" cx="-63.4" cy="44" r="44"/></clipPath><clipPath id="clip-path-15"><path class="cls-3" d="M-43.4,64h-8.84V49.94c0-3.68-1.39-6.19-4.43-6.19a4.53,4.53,0,0,0-4.22,3.33,6.91,6.91,0,0,0-.19,2.22V64h-8.76s.12-24.91,0-27.17h8.76v4.26c.52-1.86,3.32-4.53,7.78-4.53,5.54,0,9.9,3.92,9.9,12.33ZM-78.69,33.43h-.06a4.51,4.51,0,0,1-4.65-4.71A4.55,4.55,0,0,1-78.64,24a4.52,4.52,0,0,1,4.7,4.71A4.54,4.54,0,0,1-78.69,33.43Zm-3.7,3.4h7.79V64h-7.79Z"/></clipPath><clipPath id="clip-path-16"><circle class="cls-1" cx="44" cy="44" r="44"/></clipPath><clipPath id="clip-path-17"><rect class="cls-1" x="-320" y="-320" width="1328" height="1168"/></clipPath><clipPath id="clip-path-18"><path class="cls-3" d="M63.54,40.3q-8,5-12.22,7.84c-.94.63-1.69,1.13-2.27,1.48a15.52,15.52,0,0,1-2.32,1.1,7.61,7.61,0,0,1-2.71.55h0a7.61,7.61,0,0,1-2.71-.55A15.52,15.52,0,0,1,39,49.62c-.58-.35-1.33-.85-2.27-1.48q-3.32-2.25-12.2-7.84a13.15,13.15,0,0,1-2.48-2v18a3.37,3.37,0,0,0,1.15,2.57A4,4,0,0,0,25.93,60H62.07a4,4,0,0,0,2.78-1.07A3.37,3.37,0,0,0,66,56.36v-18A13.24,13.24,0,0,1,63.54,40.3ZM26.22,37.86q.84.55,5,3.24l6.43,4.15,1,.69c.53.36,1,.65,1.33.87s.78.46,1.28.74a7.91,7.91,0,0,0,1.41.61,4,4,0,0,0,1.23.2h0a4,4,0,0,0,1.23-.2,7.91,7.91,0,0,0,1.41-.61c.5-.28.93-.52,1.28-.74l1.33-.87,1-.69L61.8,37.86a11.28,11.28,0,0,0,3-2.79A5.73,5.73,0,0,0,66,31.64a3.36,3.36,0,0,0-1.17-2.57A4,4,0,0,0,62.07,28H25.93A3.63,3.63,0,0,0,23,29.18a4.37,4.37,0,0,0-1,3,5.09,5.09,0,0,0,1.35,3.1A11.8,11.8,0,0,0,26.22,37.86Z"/></clipPath><clipPath id="clip-path-19"><rect class="cls-4" x="-320" y="-320" width="1328" height="1168"/></clipPath><clipPath id="clip-path-20"><circle class="cls-1" cx="258.8" cy="44" r="44"/></clipPath><clipPath id="clip-path-21"><circle class="cls-5" cx="-170.8" cy="167.62" r="44"/></clipPath><clipPath id="clip-path-22"><path class="cls-6" d="M-153.75,157.31a9,9,0,0,0,3.79-5,16.62,16.62,0,0,1-5.48,2.21,8.39,8.39,0,0,0-6.29-2.87,8.86,8.86,0,0,0-8.61,9.09,9.44,9.44,0,0,0,.22,2.07,24.07,24.07,0,0,1-17.76-9.5,9.49,9.49,0,0,0-1.17,4.57,9.24,9.24,0,0,0,3.84,7.57,8.32,8.32,0,0,1-3.91-1.14v.11a9,9,0,0,0,6.92,8.91,7.85,7.85,0,0,1-2.28.32,8,8,0,0,1-1.62-.16,8.7,8.7,0,0,0,8,6.31,16.71,16.71,0,0,1-10.7,3.89,17.36,17.36,0,0,1-2.05-.12,23.52,23.52,0,0,0,13.2,4.08c15.86,0,24.52-13.85,24.52-25.86,0-.39,0-.79,0-1.17a18.43,18.43,0,0,0,4.3-4.71A16.7,16.7,0,0,1-153.75,157.31Z"/></clipPath><clipPath id="clip-path-23"><circle class="cls-5" cx="151.4" cy="167.62" r="44"/></clipPath><clipPath id="clip-path-24"><path class="cls-6" d="M165.72,155.83a2.62,2.62,0,1,1-2.62-2.62A2.62,2.62,0,0,1,165.72,155.83ZM151.45,175a7.34,7.34,0,1,1,7.33-7.34A7.33,7.33,0,0,1,151.45,175Zm0-18.64a11.31,11.31,0,1,0,11.3,11.3A11.3,11.3,0,0,0,151.45,156.36Zm0-10.74c-6,0-6.72,0-9.07.13a16.35,16.35,0,0,0-5.34,1,11,11,0,0,0-3.9,2.54,10.73,10.73,0,0,0-2.53,3.9,16.06,16.06,0,0,0-1,5.34c-.1,2.34-.13,3.09-.13,9.07s0,6.72.13,9.07a16.06,16.06,0,0,0,1,5.34,11.15,11.15,0,0,0,6.43,6.43,16.06,16.06,0,0,0,5.34,1c2.35.1,3.1.13,9.07.13s6.73,0,9.07-.13a16.06,16.06,0,0,0,5.34-1,10.73,10.73,0,0,0,3.9-2.53,11,11,0,0,0,2.54-3.9,16.35,16.35,0,0,0,1-5.34c.11-2.35.13-3.1.13-9.07s0-6.73-.13-9.07a16.35,16.35,0,0,0-1-5.34,11.26,11.26,0,0,0-6.44-6.44,16.35,16.35,0,0,0-5.34-1C158.13,145.64,157.38,145.62,151.4,145.62Zm0,4c5.88,0,6.57,0,8.89.13a12.28,12.28,0,0,1,4.09.76,7.22,7.22,0,0,1,4.17,4.17,12.28,12.28,0,0,1,.76,4.09c.11,2.32.13,3,.13,8.89s0,6.57-.13,8.89a12.2,12.2,0,0,1-.76,4.08,6.79,6.79,0,0,1-1.64,2.53,6.9,6.9,0,0,1-2.53,1.65,12.28,12.28,0,0,1-4.09.76c-2.32.1-3,.12-8.89.12s-6.57,0-8.89-.12a12.2,12.2,0,0,1-4.08-.76,7.33,7.33,0,0,1-4.18-4.18,12.2,12.2,0,0,1-.76-4.08c-.1-2.32-.12-3-.12-8.89s0-6.57.12-8.89a12.28,12.28,0,0,1,.76-4.09,6.9,6.9,0,0,1,1.65-2.53,6.79,6.79,0,0,1,2.53-1.64,12.2,12.2,0,0,1,4.08-.76c2.32-.11,3-.13,8.89-.13"/></clipPath><clipPath id="clip-path-25"><circle class="cls-5" cx="-63.4" cy="167.62" r="44"/></clipPath><clipPath id="clip-path-26"><path class="cls-6" d="M-43.4,187.62h-8.84V173.56c0-3.69-1.39-6.2-4.43-6.2a4.54,4.54,0,0,0-4.22,3.33,7,7,0,0,0-.19,2.22v14.71h-8.76s.12-24.91,0-27.18h8.76v4.27c.52-1.87,3.32-4.53,7.78-4.53,5.54,0,9.9,3.91,9.9,12.33Zm-35.29-30.57h-.06a4.51,4.51,0,0,1-4.65-4.71,4.54,4.54,0,0,1,4.76-4.72,4.52,4.52,0,0,1,4.7,4.71A4.54,4.54,0,0,1-78.69,157.05Zm-3.7,3.39h7.79v27.18h-7.79Z"/></clipPath><clipPath id="clip-path-27"><circle class="cls-5" cx="44" cy="167.62" r="44"/></clipPath><clipPath id="clip-path-28"><path class="cls-6" d="M63.54,163.91q-8,5.06-12.22,7.85c-.94.63-1.69,1.13-2.27,1.48a14.65,14.65,0,0,1-2.32,1.09,7.42,7.42,0,0,1-2.71.56h0a7.42,7.42,0,0,1-2.71-.56A14.65,14.65,0,0,1,39,173.24c-.58-.35-1.33-.85-2.27-1.48q-3.32-2.25-12.2-7.85a12.73,12.73,0,0,1-2.48-2v18a3.37,3.37,0,0,0,1.15,2.57,4,4,0,0,0,2.78,1.07H62.07a4,4,0,0,0,2.78-1.07A3.37,3.37,0,0,0,66,180v-18A13.2,13.2,0,0,1,63.54,163.91Zm-37.32-2.43q.84.56,5,3.24l6.43,4.15,1,.69c.53.36,1,.65,1.33.87s.78.46,1.28.73a7.32,7.32,0,0,0,1.41.62A4.37,4.37,0,0,0,44,172h0a4.37,4.37,0,0,0,1.23-.2,7.32,7.32,0,0,0,1.41-.62c.5-.27.93-.51,1.28-.73l1.33-.87,1-.69,11.49-7.39a11.28,11.28,0,0,0,3-2.79,5.73,5.73,0,0,0,1.2-3.43,3.36,3.36,0,0,0-1.17-2.57,3.91,3.91,0,0,0-2.76-1.07H25.93A3.63,3.63,0,0,0,23,152.8a4.37,4.37,0,0,0-1,3,5.11,5.11,0,0,0,1.35,3.1A11.8,11.8,0,0,0,26.22,161.48Z"/></clipPath><clipPath id="clip-path-29"><circle class="cls-5" cx="258.8" cy="167.62" r="44"/></clipPath><clipPath id="clip-path-30"><circle class="cls-4" cx="366.21" cy="-75.18" r="44"/></clipPath></defs><path class="cls-8" d="M-153.75-85.49a9.1,9.1,0,0,0,3.79-5,16.84,16.84,0,0,1-5.48,2.21,8.39,8.39,0,0,0-6.29-2.87,8.85,8.85,0,0,0-8.61,9.08,9.32,9.32,0,0,0,.22,2.07,24.06,24.06,0,0,1-17.76-9.49A9.43,9.43,0,0,0-189-84.95a9.2,9.2,0,0,0,3.84,7.56,8.31,8.31,0,0,1-3.91-1.13v.11a9,9,0,0,0,6.92,8.91,8.21,8.21,0,0,1-2.28.32,8.72,8.72,0,0,1-1.62-.16A8.7,8.7,0,0,0-178-63a16.71,16.71,0,0,1-10.7,3.89,15.46,15.46,0,0,1-2.05-.13,23.45,23.45,0,0,0,13.2,4.09c15.86,0,24.52-13.85,24.52-25.86,0-.4,0-.79,0-1.18a18.22,18.22,0,0,0,4.3-4.7A16.7,16.7,0,0,1-153.75-85.49Z"/><g class="cls-9"><rect class="cls-10" x="-414.8" y="-199.18" width="1328" height="1168"/></g><path class="cls-8" d="M165.72-87a2.62,2.62,0,0,1-2.62,2.62A2.62,2.62,0,0,1,160.48-87a2.62,2.62,0,0,1,2.62-2.62A2.62,2.62,0,0,1,165.72-87ZM151.45-67.8a7.34,7.34,0,0,1-7.34-7.34,7.34,7.34,0,0,1,7.34-7.34,7.34,7.34,0,0,1,7.33,7.34A7.34,7.34,0,0,1,151.45-67.8Zm0-18.65a11.31,11.31,0,0,0-11.31,11.31,11.3,11.3,0,0,0,11.31,11.3,11.3,11.3,0,0,0,11.3-11.3A11.31,11.31,0,0,0,151.45-86.45Zm0-10.73c-6,0-6.72,0-9.07.13A16.09,16.09,0,0,0,137-96a10.71,10.71,0,0,0-3.9,2.54,10.78,10.78,0,0,0-2.53,3.89,16.07,16.07,0,0,0-1,5.35c-.1,2.34-.13,3.09-.13,9.07s0,6.72.13,9.07a16.06,16.06,0,0,0,1,5.34,10.78,10.78,0,0,0,2.53,3.89,10.71,10.71,0,0,0,3.9,2.54,16.09,16.09,0,0,0,5.34,1c2.35.11,3.1.14,9.07.14s6.73,0,9.07-.14a16.09,16.09,0,0,0,5.34-1,10.63,10.63,0,0,0,3.9-2.54,10.94,10.94,0,0,0,2.54-3.89,16.35,16.35,0,0,0,1-5.34c.11-2.35.13-3.1.13-9.07s0-6.73-.13-9.07a16.36,16.36,0,0,0-1-5.35,10.94,10.94,0,0,0-2.54-3.89,10.63,10.63,0,0,0-3.9-2.54,16.09,16.09,0,0,0-5.34-1C158.13-97.16,157.38-97.18,151.4-97.18Zm0,4c5.88,0,6.57,0,8.89.13a12,12,0,0,1,4.09.76,6.75,6.75,0,0,1,2.53,1.64,6.79,6.79,0,0,1,1.64,2.53,12.28,12.28,0,0,1,.76,4.09c.11,2.32.13,3,.13,8.89s0,6.57-.13,8.89a12.2,12.2,0,0,1-.76,4.08,6.79,6.79,0,0,1-1.64,2.53A6.9,6.9,0,0,1,164.38-58a12.09,12.09,0,0,1-4.09.75c-2.32.11-3,.13-8.89.13s-6.57,0-8.89-.13a12,12,0,0,1-4.08-.75,6.81,6.81,0,0,1-2.53-1.65,6.81,6.81,0,0,1-1.65-2.53,12.2,12.2,0,0,1-.76-4.08c-.1-2.32-.12-3-.12-8.89s0-6.57.12-8.89a12.28,12.28,0,0,1,.76-4.09,6.81,6.81,0,0,1,1.65-2.53,6.67,6.67,0,0,1,2.53-1.64,12,12,0,0,1,4.08-.76c2.32-.11,3-.13,8.89-.13"/><g class="cls-12"><rect class="cls-10" x="-332.6" y="-199.18" width="1328" height="1168"/></g><path class="cls-8" d="M-43.4-55.18h-8.84V-69.25c0-3.68-1.39-6.19-4.43-6.19a4.53,4.53,0,0,0-4.22,3.33,6.94,6.94,0,0,0-.19,2.22v14.71h-8.76s.12-24.91,0-27.18h8.76v4.27c.52-1.87,3.32-4.53,7.78-4.53,5.54,0,9.9,3.91,9.9,12.33ZM-78.69-85.76h-.06a4.5,4.5,0,0,1-4.65-4.7,4.54,4.54,0,0,1,4.76-4.72,4.52,4.52,0,0,1,4.7,4.71A4.53,4.53,0,0,1-78.69-85.76Zm-3.7,3.4h7.79v27.17h-7.79Z"/><g class="cls-14"><rect class="cls-10" x="-907.4" y="-199.18" width="1328" height="1168"/></g><path class="cls-8" d="M63.54-78.89q-8,5-12.22,7.84c-.94.64-1.69,1.14-2.27,1.49a14.65,14.65,0,0,1-2.32,1.09,7.64,7.64,0,0,1-2.71.56h0a7.64,7.64,0,0,1-2.71-.56A14.65,14.65,0,0,1,39-69.56c-.58-.35-1.33-.85-2.27-1.49q-3.32-2.25-12.2-7.84a12.4,12.4,0,0,1-2.48-2v18.05a3.37,3.37,0,0,0,1.15,2.57,4,4,0,0,0,2.78,1.07H62.07a4,4,0,0,0,2.78-1.07A3.37,3.37,0,0,0,66-62.82V-80.87A12.85,12.85,0,0,1,63.54-78.89ZM26.22-81.32l5,3.24c2.8,1.79,4.94,3.18,6.43,4.15l1,.69c.53.36,1,.64,1.33.86s.78.47,1.28.74a7.24,7.24,0,0,0,1.41.61,4.07,4.07,0,0,0,1.23.21h0A4.07,4.07,0,0,0,45.25-71a7.24,7.24,0,0,0,1.41-.61c.5-.27.93-.52,1.28-.74s.79-.5,1.33-.86l1-.69L61.8-81.32a11.32,11.32,0,0,0,3-2.8A5.7,5.7,0,0,0,66-87.55a3.37,3.37,0,0,0-1.17-2.57,3.94,3.94,0,0,0-2.76-1.06H25.93A3.63,3.63,0,0,0,23-90a4.36,4.36,0,0,0-1,3,5.07,5.07,0,0,0,1.35,3.1A11.85,11.85,0,0,0,26.22-81.32Z"/><g class="cls-16"><rect class="cls-10" x="-320" y="-439.18" width="1328" height="1168"/></g><path class="cls-19" d="M-153.75,33.69a9,9,0,0,0,3.79-5,16.82,16.82,0,0,1-5.48,2.2A8.39,8.39,0,0,0-161.73,28a8.86,8.86,0,0,0-8.61,9.09,9.44,9.44,0,0,0,.22,2.07,24.07,24.07,0,0,1-17.76-9.5A9.49,9.49,0,0,0-189,34.23a9.22,9.22,0,0,0,3.84,7.57,8.32,8.32,0,0,1-3.91-1.14v.11a9,9,0,0,0,6.92,8.91,7.85,7.85,0,0,1-2.28.32,8,8,0,0,1-1.62-.16,8.7,8.7,0,0,0,8,6.31A16.71,16.71,0,0,1-188.75,60a17.36,17.36,0,0,1-2.05-.12A23.52,23.52,0,0,0-177.6,64c15.86,0,24.52-13.85,24.52-25.86,0-.39,0-.79,0-1.17a18.26,18.26,0,0,0,4.3-4.71A16.7,16.7,0,0,1-153.75,33.69Z"/><g class="cls-20"><rect class="cls-4" x="-414.8" y="-80" width="1328" height="1168"/></g><path class="cls-19" d="M165.72,32.21a2.62,2.62,0,1,1-2.62-2.62A2.62,2.62,0,0,1,165.72,32.21ZM151.45,51.38A7.34,7.34,0,1,1,158.78,44,7.33,7.33,0,0,1,151.45,51.38Zm0-18.64A11.31,11.31,0,1,0,162.75,44,11.3,11.3,0,0,0,151.45,32.74Zm0-10.74c-6,0-6.72,0-9.07.13a16.06,16.06,0,0,0-5.34,1,11.15,11.15,0,0,0-6.43,6.43,16.06,16.06,0,0,0-1,5.34c-.1,2.35-.13,3.1-.13,9.07s0,6.72.13,9.07a16.06,16.06,0,0,0,1,5.34A11.15,11.15,0,0,0,137,64.84a16.06,16.06,0,0,0,5.34,1c2.35.1,3.1.13,9.07.13s6.73,0,9.07-.13a16.06,16.06,0,0,0,5.34-1,10.73,10.73,0,0,0,3.9-2.53,11,11,0,0,0,2.54-3.9,16.35,16.35,0,0,0,1-5.34c.11-2.35.13-3.1.13-9.07s0-6.72-.13-9.07a16.35,16.35,0,0,0-1-5.34,11,11,0,0,0-2.54-3.9,10.73,10.73,0,0,0-3.9-2.53,16.06,16.06,0,0,0-5.34-1C158.13,22,157.38,22,151.4,22Zm0,4c5.88,0,6.57,0,8.89.13a12.28,12.28,0,0,1,4.09.76,7,7,0,0,1,2.53,1.64A6.91,6.91,0,0,1,168.55,31a12.14,12.14,0,0,1,.76,4.08c.11,2.32.13,3,.13,8.89s0,6.57-.13,8.89a12.14,12.14,0,0,1-.76,4.08,6.91,6.91,0,0,1-1.64,2.54,7,7,0,0,1-2.53,1.64,12.28,12.28,0,0,1-4.09.76c-2.32.1-3,.13-8.89.13s-6.57,0-8.89-.13a12.2,12.2,0,0,1-4.08-.76A7.26,7.26,0,0,1,134.25,57a12.14,12.14,0,0,1-.76-4.08c-.1-2.32-.12-3-.12-8.89s0-6.57.12-8.89a12.14,12.14,0,0,1,.76-4.08,7.26,7.26,0,0,1,4.18-4.18,12.2,12.2,0,0,1,4.08-.76c2.32-.1,3-.13,8.89-.13"/><g class="cls-22"><rect class="cls-4" x="-332.6" y="-80" width="1328" height="1168"/></g><path class="cls-19" d="M-43.4,64h-8.84V49.94c0-3.68-1.39-6.19-4.43-6.19a4.53,4.53,0,0,0-4.22,3.33,6.91,6.91,0,0,0-.19,2.22V64h-8.76s.12-24.91,0-27.17h8.76v4.26c.52-1.86,3.32-4.53,7.78-4.53,5.54,0,9.9,3.92,9.9,12.33ZM-78.69,33.43h-.06a4.51,4.51,0,0,1-4.65-4.71A4.55,4.55,0,0,1-78.64,24a4.52,4.52,0,0,1,4.7,4.71A4.54,4.54,0,0,1-78.69,33.43Zm-3.7,3.4h7.79V64h-7.79Z"/><g class="cls-24"><rect class="cls-4" x="-907.4" y="-80" width="1328" height="1168"/></g><g class="cls-25"><g class="cls-26"><path class="cls-4" d="M44,4A40,40,0,1,1,4,44,40,40,0,0,1,44,4m0-4A44,44,0,1,0,88,44,44,44,0,0,0,44,0Z"/></g></g><path class="cls-19" d="M63.54,40.3q-8,5-12.22,7.84c-.94.63-1.69,1.13-2.27,1.48a15.52,15.52,0,0,1-2.32,1.1,7.61,7.61,0,0,1-2.71.55h0a7.61,7.61,0,0,1-2.71-.55A15.52,15.52,0,0,1,39,49.62c-.58-.35-1.33-.85-2.27-1.48q-3.32-2.25-12.2-7.84a13.15,13.15,0,0,1-2.48-2v18a3.37,3.37,0,0,0,1.15,2.57A4,4,0,0,0,25.93,60H62.07a4,4,0,0,0,2.78-1.07A3.37,3.37,0,0,0,66,56.36v-18A13.24,13.24,0,0,1,63.54,40.3ZM26.22,37.86q.84.55,5,3.24l6.43,4.15,1,.69c.53.36,1,.65,1.33.87s.78.46,1.28.74a7.91,7.91,0,0,0,1.41.61,4,4,0,0,0,1.23.2h0a4,4,0,0,0,1.23-.2,7.91,7.91,0,0,0,1.41-.61c.5-.28.93-.52,1.28-.74l1.33-.87,1-.69L61.8,37.86a11.28,11.28,0,0,0,3-2.79A5.73,5.73,0,0,0,66,31.64a3.36,3.36,0,0,0-1.17-2.57A4,4,0,0,0,62.07,28H25.93A3.63,3.63,0,0,0,23,29.18a4.37,4.37,0,0,0-1,3,5.09,5.09,0,0,0,1.35,3.1A11.8,11.8,0,0,0,26.22,37.86Z"/><g class="cls-27"><rect class="cls-4" x="-320" y="-320" width="1328" height="1168"/><g class="cls-28"><rect class="cls-4" x="12" y="18" width="64" height="52"/></g></g><g class="cls-30"><rect class="cls-5" x="-414.8" y="43.62" width="1328" height="1168"/></g><circle class="cls-5" cx="-170.8" cy="167.62" r="44"/><path class="cls-31" d="M-153.75,157.31a9,9,0,0,0,3.79-5,16.62,16.62,0,0,1-5.48,2.21,8.39,8.39,0,0,0-6.29-2.87,8.86,8.86,0,0,0-8.61,9.09,9.44,9.44,0,0,0,.22,2.07,24.07,24.07,0,0,1-17.76-9.5,9.49,9.49,0,0,0-1.17,4.57,9.24,9.24,0,0,0,3.84,7.57,8.32,8.32,0,0,1-3.91-1.14v.11a9,9,0,0,0,6.92,8.91,7.85,7.85,0,0,1-2.28.32,8,8,0,0,1-1.62-.16,8.7,8.7,0,0,0,8,6.31,16.71,16.71,0,0,1-10.7,3.89,17.36,17.36,0,0,1-2.05-.12,23.52,23.52,0,0,0,13.2,4.08c15.86,0,24.52-13.85,24.52-25.86,0-.39,0-.79,0-1.17a18.43,18.43,0,0,0,4.3-4.71A16.7,16.7,0,0,1-153.75,157.31Z"/><g class="cls-32"><rect class="cls-33" x="-414.8" y="43.62" width="1328" height="1168"/></g><g class="cls-34"><rect class="cls-5" x="-332.6" y="43.62" width="1328" height="1168"/></g><circle class="cls-5" cx="151.4" cy="167.62" r="44"/><path class="cls-31" d="M165.72,155.83a2.62,2.62,0,1,1-2.62-2.62A2.62,2.62,0,0,1,165.72,155.83ZM151.45,175a7.34,7.34,0,1,1,7.33-7.34A7.33,7.33,0,0,1,151.45,175Zm0-18.64a11.31,11.31,0,1,0,11.3,11.3A11.3,11.3,0,0,0,151.45,156.36Zm0-10.74c-6,0-6.72,0-9.07.13a16.35,16.35,0,0,0-5.34,1,11,11,0,0,0-3.9,2.54,10.73,10.73,0,0,0-2.53,3.9,16.06,16.06,0,0,0-1,5.34c-.1,2.34-.13,3.09-.13,9.07s0,6.72.13,9.07a16.06,16.06,0,0,0,1,5.34,11.15,11.15,0,0,0,6.43,6.43,16.06,16.06,0,0,0,5.34,1c2.35.1,3.1.13,9.07.13s6.73,0,9.07-.13a16.06,16.06,0,0,0,5.34-1,10.73,10.73,0,0,0,3.9-2.53,11,11,0,0,0,2.54-3.9,16.35,16.35,0,0,0,1-5.34c.11-2.35.13-3.1.13-9.07s0-6.73-.13-9.07a16.35,16.35,0,0,0-1-5.34,11.26,11.26,0,0,0-6.44-6.44,16.35,16.35,0,0,0-5.34-1C158.13,145.64,157.38,145.62,151.4,145.62Zm0,4c5.88,0,6.57,0,8.89.13a12.28,12.28,0,0,1,4.09.76,7.22,7.22,0,0,1,4.17,4.17,12.28,12.28,0,0,1,.76,4.09c.11,2.32.13,3,.13,8.89s0,6.57-.13,8.89a12.2,12.2,0,0,1-.76,4.08,6.79,6.79,0,0,1-1.64,2.53,6.9,6.9,0,0,1-2.53,1.65,12.28,12.28,0,0,1-4.09.76c-2.32.1-3,.12-8.89.12s-6.57,0-8.89-.12a12.2,12.2,0,0,1-4.08-.76,7.33,7.33,0,0,1-4.18-4.18,12.2,12.2,0,0,1-.76-4.08c-.1-2.32-.12-3-.12-8.89s0-6.57.12-8.89a12.28,12.28,0,0,1,.76-4.09,6.9,6.9,0,0,1,1.65-2.53,6.79,6.79,0,0,1,2.53-1.64,12.2,12.2,0,0,1,4.08-.76c2.32-.11,3-.13,8.89-.13"/><g class="cls-35"><rect class="cls-33" x="-332.6" y="43.62" width="1328" height="1168"/></g><g class="cls-36"><rect class="cls-5" x="-907.4" y="43.62" width="1328" height="1168"/></g><circle class="cls-5" cx="-63.4" cy="167.62" r="44"/><path class="cls-31" d="M-43.4,187.62h-8.84V173.56c0-3.69-1.39-6.2-4.43-6.2a4.54,4.54,0,0,0-4.22,3.33,7,7,0,0,0-.19,2.22v14.71h-8.76s.12-24.91,0-27.18h8.76v4.27c.52-1.87,3.32-4.53,7.78-4.53,5.54,0,9.9,3.91,9.9,12.33Zm-35.29-30.57h-.06a4.51,4.51,0,0,1-4.65-4.71,4.54,4.54,0,0,1,4.76-4.72,4.52,4.52,0,0,1,4.7,4.71A4.54,4.54,0,0,1-78.69,157.05Zm-3.7,3.39h7.79v27.18h-7.79Z"/><g class="cls-37"><rect class="cls-33" x="-907.4" y="43.62" width="1328" height="1168"/></g><g class="cls-38"><rect class="cls-5" x="-320" y="-196.38" width="1328" height="1168"/></g><circle class="cls-5" cx="44" cy="167.62" r="44"/><path class="cls-31" d="M63.54,163.91q-8,5.06-12.22,7.85c-.94.63-1.69,1.13-2.27,1.48a14.65,14.65,0,0,1-2.32,1.09,7.42,7.42,0,0,1-2.71.56h0a7.42,7.42,0,0,1-2.71-.56A14.65,14.65,0,0,1,39,173.24c-.58-.35-1.33-.85-2.27-1.48q-3.32-2.25-12.2-7.85a12.73,12.73,0,0,1-2.48-2v18a3.37,3.37,0,0,0,1.15,2.57,4,4,0,0,0,2.78,1.07H62.07a4,4,0,0,0,2.78-1.07A3.37,3.37,0,0,0,66,180v-18A13.2,13.2,0,0,1,63.54,163.91Zm-37.32-2.43q.84.56,5,3.24l6.43,4.15,1,.69c.53.36,1,.65,1.33.87s.78.46,1.28.73a7.32,7.32,0,0,0,1.41.62A4.37,4.37,0,0,0,44,172h0a4.37,4.37,0,0,0,1.23-.2,7.32,7.32,0,0,0,1.41-.62c.5-.27.93-.51,1.28-.73l1.33-.87,1-.69,11.49-7.39a11.28,11.28,0,0,0,3-2.79,5.73,5.73,0,0,0,1.2-3.43,3.36,3.36,0,0,0-1.17-2.57,3.91,3.91,0,0,0-2.76-1.07H25.93A3.63,3.63,0,0,0,23,152.8a4.37,4.37,0,0,0-1,3,5.11,5.11,0,0,0,1.35,3.1A11.8,11.8,0,0,0,26.22,161.48Z"/><g class="cls-39"><rect class="cls-33" x="-320" y="-196.38" width="1328" height="1168"/></g><g class="cls-40"><rect class="cls-5" x="-225.2" y="43.62" width="1328" height="1168"/></g><circle class="cls-5" cx="258.8" cy="167.62" r="44"/><circle class="cls-4" cx="366.21" cy="-75.18" r="44"/><g class="cls-41"><rect class="cls-4" x="-117.79" y="-199.18" width="1328" height="1168"/></g></svg>