<svg id="Layer_1" data-name="Layer 1" xmlns="http://www.w3.org/2000/svg" xmlns:xlink="http://www.w3.org/1999/xlink" viewBox="0 0 88 88"><defs><style>.cls-1,.cls-5{fill:none;}.cls-10,.cls-2,.cls-8{fill:#1a2966;}.cls-2,.cls-3,.cls-6{clip-rule:evenodd;}.cls-19,.cls-3,.cls-4{fill:#dc554f;}.cls-5{stroke:#fff;stroke-miterlimit:10;}.cls-31,.cls-33,.cls-6{fill:#fff;}.cls-7{clip-path:url(#clip-path);}.cls-19,.cls-31,.cls-8{fill-rule:evenodd;}.cls-9{clip-path:url(#clip-path-2);}.cls-11{clip-path:url(#clip-path-3);}.cls-12{clip-path:url(#clip-path-4);}.cls-13{clip-path:url(#clip-path-5);}.cls-14{clip-path:url(#clip-path-6);}.cls-15{clip-path:url(#clip-path-7);}.cls-16{clip-path:url(#clip-path-8);}.cls-17{clip-path:url(#clip-path-9);}.cls-18{clip-path:url(#clip-path-10);}.cls-20{clip-path:url(#clip-path-11);}.cls-21{clip-path:url(#clip-path-12);}.cls-22{clip-path:url(#clip-path-13);}.cls-23{clip-path:url(#clip-path-14);}.cls-24{clip-path:url(#clip-path-15);}.cls-25{clip-path:url(#clip-path-16);}.cls-26{clip-path:url(#clip-path-17);}.cls-27{clip-path:url(#clip-path-18);}.cls-28{clip-path:url(#clip-path-19);}.cls-29{clip-path:url(#clip-path-20);}.cls-30{clip-path:url(#clip-path-21);}.cls-32{clip-path:url(#clip-path-22);}.cls-34{clip-path:url(#clip-path-23);}.cls-35{clip-path:url(#clip-path-24);}.cls-36{clip-path:url(#clip-path-25);}.cls-37{clip-path:url(#clip-path-26);}.cls-38{clip-path:url(#clip-path-27);}.cls-39{clip-path:url(#clip-path-28);}.cls-40{clip-path:url(#clip-path-29);}.cls-41{clip-path:url(#clip-path-30);}</style><clipPath id="clip-path"><circle class="cls-1" cx="-278.21" cy="-75.18" r="44"/></clipPath><clipPath id="clip-path-2"><path class="cls-2" d="M-261.15-85.49a9,9,0,0,0,3.78-5,16.7,16.7,0,0,1-5.47,2.21,8.39,8.39,0,0,0-6.29-2.87,8.85,8.85,0,0,0-8.61,9.08,9.32,9.32,0,0,0,.22,2.07,24.06,24.06,0,0,1-17.76-9.49,9.43,9.43,0,0,0-1.17,4.57,9.2,9.2,0,0,0,3.84,7.56,8.28,8.28,0,0,1-3.91-1.13v.11a9,9,0,0,0,6.92,8.91,8.21,8.21,0,0,1-2.28.32,8.72,8.72,0,0,1-1.62-.16A8.7,8.7,0,0,0-285.45-63a16.71,16.71,0,0,1-10.7,3.89,15.72,15.72,0,0,1-2.06-.13A23.51,23.51,0,0,0-285-55.18c15.85,0,24.52-13.85,24.52-25.86,0-.4,0-.79,0-1.18a18,18,0,0,0,4.29-4.7A16.55,16.55,0,0,1-261.15-85.49Z"/></clipPath><clipPath id="clip-path-3"><circle class="cls-1" cx="44" cy="-75.18" r="44"/></clipPath><clipPath id="clip-path-4"><path class="cls-2" d="M58.32-87a2.62,2.62,0,0,1-2.62,2.62A2.62,2.62,0,0,1,53.08-87a2.62,2.62,0,0,1,2.62-2.62A2.62,2.62,0,0,1,58.32-87ZM44-67.8a7.34,7.34,0,0,1-7.34-7.34A7.34,7.34,0,0,1,44-82.48a7.34,7.34,0,0,1,7.34,7.34A7.34,7.34,0,0,1,44-67.8Zm0-18.65a11.31,11.31,0,0,0-11.3,11.31A11.3,11.3,0,0,0,44-63.84a11.3,11.3,0,0,0,11.31-11.3A11.31,11.31,0,0,0,44-86.45Zm0-10.73c-6,0-6.72,0-9.07.13a16.09,16.09,0,0,0-5.34,1,10.71,10.71,0,0,0-3.9,2.54,10.94,10.94,0,0,0-2.54,3.89,16.36,16.36,0,0,0-1,5.35C22-81.91,22-81.16,22-75.18s0,6.72.13,9.07a16.35,16.35,0,0,0,1,5.34,10.94,10.94,0,0,0,2.54,3.89,10.71,10.71,0,0,0,3.9,2.54,16.09,16.09,0,0,0,5.34,1c2.35.11,3.1.14,9.07.14s6.72,0,9.07-.14a16.09,16.09,0,0,0,5.34-1,10.71,10.71,0,0,0,3.9-2.54,10.94,10.94,0,0,0,2.54-3.89,16.35,16.35,0,0,0,1-5.34c.1-2.35.13-3.1.13-9.07s0-6.73-.13-9.07a16.36,16.36,0,0,0-1-5.35,10.94,10.94,0,0,0-2.54-3.89A10.71,10.71,0,0,0,58.41-96a16.09,16.09,0,0,0-5.34-1C50.72-97.16,50-97.18,44-97.18Zm0,4c5.87,0,6.57,0,8.89.13a12.08,12.08,0,0,1,4.09.76,6.71,6.71,0,0,1,2.52,1.64,6.81,6.81,0,0,1,1.65,2.53,12.28,12.28,0,0,1,.76,4.09c.1,2.32.13,3,.13,8.89s0,6.57-.13,8.89a12.2,12.2,0,0,1-.76,4.08,6.81,6.81,0,0,1-1.65,2.53A6.86,6.86,0,0,1,57-58a12.15,12.15,0,0,1-4.09.75c-2.32.11-3,.13-8.89.13s-6.57,0-8.89-.13A12.15,12.15,0,0,1,31-58a6.86,6.86,0,0,1-2.52-1.65,6.81,6.81,0,0,1-1.65-2.53,12.2,12.2,0,0,1-.76-4.08c-.1-2.32-.13-3-.13-8.89s0-6.57.13-8.89a12.28,12.28,0,0,1,.76-4.09,6.81,6.81,0,0,1,1.65-2.53A6.71,6.71,0,0,1,31-92.33a12.08,12.08,0,0,1,4.09-.76c2.32-.11,3-.13,8.89-.13"/></clipPath><clipPath id="clip-path-5"><circle class="cls-1" cx="-170.8" cy="-75.18" r="44"/></clipPath><clipPath id="clip-path-6"><path class="cls-2" d="M-150.8-55.18h-8.84V-69.25c0-3.68-1.39-6.19-4.43-6.19a4.53,4.53,0,0,0-4.22,3.33,6.67,6.67,0,0,0-.19,2.22v14.71h-8.76s.11-24.91,0-27.18h8.76v4.27c.52-1.87,3.32-4.53,7.78-4.53,5.54,0,9.9,3.91,9.9,12.33Zm-35.3-30.58h-.05a4.5,4.5,0,0,1-4.65-4.7A4.54,4.54,0,0,1-186-95.18a4.52,4.52,0,0,1,4.7,4.71A4.53,4.53,0,0,1-186.1-85.76Zm-3.69,3.4H-182v27.17h-7.79Z"/></clipPath><clipPath id="clip-path-7"><circle class="cls-1" cx="-63.4" cy="-75.18" r="44"/></clipPath><clipPath id="clip-path-8"><path class="cls-2" d="M-43.86-78.89q-8.05,5-12.22,7.84c-.94.64-1.69,1.14-2.28,1.49a13.85,13.85,0,0,1-2.32,1.09,7.54,7.54,0,0,1-2.7.56h0a7.63,7.63,0,0,1-2.7-.56,14.24,14.24,0,0,1-2.32-1.09c-.58-.35-1.34-.85-2.27-1.49Q-74-73.3-82.92-78.89a12.4,12.4,0,0,1-2.48-2v18.05a3.37,3.37,0,0,0,1.15,2.57,4,4,0,0,0,2.78,1.07h36.14a3.94,3.94,0,0,0,2.77-1.07,3.38,3.38,0,0,0,1.16-2.57V-80.87A13.17,13.17,0,0,1-43.86-78.89Zm-37.32-2.43,5,3.24c2.8,1.79,5,3.18,6.44,4.15l1,.69c.53.36,1,.64,1.33.86s.77.47,1.27.74a7.31,7.31,0,0,0,1.42.61,4.06,4.06,0,0,0,1.22.21h0A4.07,4.07,0,0,0-62.15-71a7.51,7.51,0,0,0,1.41-.61c.5-.27.93-.52,1.28-.74s.79-.5,1.32-.86.88-.59,1-.69q2.25-1.45,11.49-7.39a11.28,11.28,0,0,0,3-2.8,5.65,5.65,0,0,0,1.21-3.43,3.37,3.37,0,0,0-1.17-2.57,4,4,0,0,0-2.76-1.06H-81.47A3.63,3.63,0,0,0-84.38-90a4.36,4.36,0,0,0-1,3A5.07,5.07,0,0,0-84-83.95,11.85,11.85,0,0,0-81.18-81.32Z"/></clipPath><clipPath id="clip-path-9"><circle class="cls-1" cx="151.4" cy="-75.18" r="44"/></clipPath><clipPath id="clip-path-10"><circle class="cls-1" cx="-278.21" cy="44" r="44"/></clipPath><clipPath id="clip-path-11"><path class="cls-3" d="M-261.15,33.69a9,9,0,0,0,3.78-5,16.68,16.68,0,0,1-5.47,2.2A8.39,8.39,0,0,0-269.13,28a8.86,8.86,0,0,0-8.61,9.09,9.44,9.44,0,0,0,.22,2.07,24.07,24.07,0,0,1-17.76-9.5,9.49,9.49,0,0,0-1.17,4.57,9.22,9.22,0,0,0,3.84,7.57,8.29,8.29,0,0,1-3.91-1.14v.11a9,9,0,0,0,6.92,8.91,7.85,7.85,0,0,1-2.28.32,8,8,0,0,1-1.62-.16,8.7,8.7,0,0,0,8.05,6.31A16.71,16.71,0,0,1-296.15,60a17.66,17.66,0,0,1-2.06-.12A23.58,23.58,0,0,0-285,64c15.85,0,24.52-13.85,24.52-25.86,0-.39,0-.79,0-1.17a18.05,18.05,0,0,0,4.29-4.71A16.55,16.55,0,0,1-261.15,33.69Z"/></clipPath><clipPath id="clip-path-12"><circle class="cls-1" cx="44" cy="44" r="44"/></clipPath><clipPath id="clip-path-13"><rect class="cls-1" x="-440" y="-80" width="1328" height="1168"/></clipPath><clipPath id="clip-path-14"><path class="cls-3" d="M58.32,32.21a2.62,2.62,0,1,1-2.62-2.62A2.62,2.62,0,0,1,58.32,32.21ZM44,51.38A7.34,7.34,0,1,1,51.38,44,7.34,7.34,0,0,1,44,51.38Zm0-18.64A11.31,11.31,0,1,0,55.35,44,11.3,11.3,0,0,0,44,32.74ZM44,22c-6,0-6.72,0-9.07.13a16.06,16.06,0,0,0-5.34,1,10.81,10.81,0,0,0-3.9,2.53,11,11,0,0,0-2.54,3.9,16.35,16.35,0,0,0-1,5.34C22,37.28,22,38,22,44s0,6.72.13,9.07a16.35,16.35,0,0,0,1,5.34,11,11,0,0,0,2.54,3.9,10.81,10.81,0,0,0,3.9,2.53,16.06,16.06,0,0,0,5.34,1C37.28,66,38,66,44,66s6.72,0,9.07-.13a16.06,16.06,0,0,0,5.34-1,10.81,10.81,0,0,0,3.9-2.53,11,11,0,0,0,2.54-3.9,16.35,16.35,0,0,0,1-5.34C66,50.72,66,50,66,44s0-6.72-.13-9.07a16.35,16.35,0,0,0-1-5.34,11,11,0,0,0-2.54-3.9,10.81,10.81,0,0,0-3.9-2.53,16.06,16.06,0,0,0-5.34-1C50.72,22,50,22,44,22Zm0,4c5.87,0,6.57,0,8.89.13a12.34,12.34,0,0,1,4.09.76A7.28,7.28,0,0,1,61.15,31a12.14,12.14,0,0,1,.76,4.08c.1,2.32.13,3,.13,8.89s0,6.57-.13,8.89A12.14,12.14,0,0,1,61.15,57,7.28,7.28,0,0,1,57,61.15a12.34,12.34,0,0,1-4.09.76c-2.32.1-3,.13-8.89.13s-6.57,0-8.89-.13A12.34,12.34,0,0,1,31,61.15,7.28,7.28,0,0,1,26.85,57a12.14,12.14,0,0,1-.76-4.08C26,50.57,26,49.87,26,44s0-6.57.13-8.89A12.14,12.14,0,0,1,26.85,31,7.28,7.28,0,0,1,31,26.85a12.34,12.34,0,0,1,4.09-.76c2.32-.1,3-.13,8.89-.13"/></clipPath><clipPath id="clip-path-15"><rect class="cls-4" x="-440" y="-80" width="1328" height="1168"/></clipPath><clipPath id="clip-path-16"><circle class="cls-1" cx="-170.8" cy="44" r="44"/></clipPath><clipPath id="clip-path-17"><path class="cls-3" d="M-150.8,64h-8.84V49.94c0-3.68-1.39-6.19-4.43-6.19a4.53,4.53,0,0,0-4.22,3.33,6.64,6.64,0,0,0-.19,2.22V64h-8.76s.11-24.91,0-27.17h8.76v4.26c.52-1.86,3.32-4.53,7.78-4.53,5.54,0,9.9,3.92,9.9,12.33Zm-35.3-30.57h-.05a4.51,4.51,0,0,1-4.65-4.71A4.55,4.55,0,0,1-186,24a4.52,4.52,0,0,1,4.7,4.71A4.54,4.54,0,0,1-186.1,33.43Zm-3.69,3.4H-182V64h-7.79Z"/></clipPath><clipPath id="clip-path-18"><circle class="cls-1" cx="-63.4" cy="44" r="44"/></clipPath><clipPath id="clip-path-19"><path class="cls-3" d="M-43.86,40.3q-8.05,5-12.22,7.84c-.94.63-1.69,1.13-2.28,1.48a14.61,14.61,0,0,1-2.32,1.1,7.52,7.52,0,0,1-2.7.55h0a7.6,7.6,0,0,1-2.7-.55,15.05,15.05,0,0,1-2.32-1.1c-.58-.35-1.34-.85-2.27-1.48Q-74,45.89-82.92,40.3a13.15,13.15,0,0,1-2.48-2v18a3.37,3.37,0,0,0,1.15,2.57A4,4,0,0,0-81.47,60h36.14a3.94,3.94,0,0,0,2.77-1.07,3.38,3.38,0,0,0,1.16-2.57v-18A13.58,13.58,0,0,1-43.86,40.3Zm-37.32-2.44,5,3.24,6.44,4.15,1,.69c.53.36,1,.65,1.33.87s.77.46,1.27.74a8,8,0,0,0,1.42.61,4,4,0,0,0,1.22.2h0a4,4,0,0,0,1.23-.2,8.23,8.23,0,0,0,1.41-.61c.5-.28.93-.52,1.28-.74s.79-.51,1.32-.87l1-.69,11.49-7.39a11.24,11.24,0,0,0,3-2.79,5.67,5.67,0,0,0,1.21-3.43,3.36,3.36,0,0,0-1.17-2.57A4,4,0,0,0-45.33,28H-81.47a3.63,3.63,0,0,0-2.91,1.18,4.37,4.37,0,0,0-1,3A5.09,5.09,0,0,0-84,35.24,11.8,11.8,0,0,0-81.18,37.86Z"/></clipPath><clipPath id="clip-path-20"><circle class="cls-1" cx="151.4" cy="44" r="44"/></clipPath><clipPath id="clip-path-21"><circle class="cls-5" cx="-278.21" cy="167.62" r="44"/></clipPath><clipPath id="clip-path-22"><path class="cls-6" d="M-261.15,157.31a9,9,0,0,0,3.78-5,16.48,16.48,0,0,1-5.47,2.21,8.39,8.39,0,0,0-6.29-2.87,8.86,8.86,0,0,0-8.61,9.09,9.44,9.44,0,0,0,.22,2.07,24.07,24.07,0,0,1-17.76-9.5,9.49,9.49,0,0,0-1.17,4.57,9.24,9.24,0,0,0,3.84,7.57,8.29,8.29,0,0,1-3.91-1.14v.11a9,9,0,0,0,6.92,8.91,7.85,7.85,0,0,1-2.28.32,8,8,0,0,1-1.62-.16,8.7,8.7,0,0,0,8.05,6.31,16.71,16.71,0,0,1-10.7,3.89,17.66,17.66,0,0,1-2.06-.12A23.58,23.58,0,0,0-285,187.62c15.85,0,24.52-13.85,24.52-25.86,0-.39,0-.79,0-1.17a18.21,18.21,0,0,0,4.29-4.71A16.55,16.55,0,0,1-261.15,157.31Z"/></clipPath><clipPath id="clip-path-23"><circle class="cls-5" cx="44" cy="167.62" r="44"/></clipPath><clipPath id="clip-path-24"><path class="cls-6" d="M58.32,155.83a2.62,2.62,0,1,1-2.62-2.62A2.62,2.62,0,0,1,58.32,155.83ZM44,175a7.34,7.34,0,1,1,7.34-7.34A7.34,7.34,0,0,1,44,175Zm0-18.64a11.31,11.31,0,1,0,11.31,11.3A11.3,11.3,0,0,0,44,156.36Zm0-10.74c-6,0-6.72,0-9.07.13a16.35,16.35,0,0,0-5.34,1,11.26,11.26,0,0,0-6.44,6.44,16.35,16.35,0,0,0-1,5.34c-.1,2.34-.13,3.09-.13,9.07s0,6.72.13,9.07a16.35,16.35,0,0,0,1,5.34,11,11,0,0,0,2.54,3.9,10.81,10.81,0,0,0,3.9,2.53,16.06,16.06,0,0,0,5.34,1c2.35.1,3.1.13,9.07.13s6.72,0,9.07-.13a16.06,16.06,0,0,0,5.34-1,10.81,10.81,0,0,0,3.9-2.53,11,11,0,0,0,2.54-3.9,16.35,16.35,0,0,0,1-5.34c.1-2.35.13-3.1.13-9.07s0-6.73-.13-9.07a16.35,16.35,0,0,0-1-5.34,11.26,11.26,0,0,0-6.44-6.44,16.35,16.35,0,0,0-5.34-1C50.72,145.64,50,145.62,44,145.62Zm0,4c5.87,0,6.57,0,8.89.13a12.34,12.34,0,0,1,4.09.76,7.3,7.3,0,0,1,4.17,4.17,12.28,12.28,0,0,1,.76,4.09c.1,2.32.13,3,.13,8.89s0,6.57-.13,8.89a12.2,12.2,0,0,1-.76,4.08A7.35,7.35,0,0,1,57,184.77a12.34,12.34,0,0,1-4.09.76c-2.32.1-3,.12-8.89.12s-6.57,0-8.89-.12a12.34,12.34,0,0,1-4.09-.76,7.35,7.35,0,0,1-4.17-4.18,12.2,12.2,0,0,1-.76-4.08c-.1-2.32-.13-3-.13-8.89s0-6.57.13-8.89a12.28,12.28,0,0,1,.76-4.09A7.3,7.3,0,0,1,31,150.47a12.34,12.34,0,0,1,4.09-.76c2.32-.11,3-.13,8.89-.13"/></clipPath><clipPath id="clip-path-25"><circle class="cls-5" cx="-170.8" cy="167.62" r="44"/></clipPath><clipPath id="clip-path-26"><path class="cls-6" d="M-150.8,187.62h-8.84V173.56c0-3.69-1.39-6.2-4.43-6.2a4.54,4.54,0,0,0-4.22,3.33,6.69,6.69,0,0,0-.19,2.22v14.71h-8.76s.11-24.91,0-27.18h8.76v4.27c.52-1.87,3.32-4.53,7.78-4.53,5.54,0,9.9,3.91,9.9,12.33Zm-35.3-30.57h-.05a4.51,4.51,0,0,1-4.65-4.71,4.54,4.54,0,0,1,4.76-4.72,4.52,4.52,0,0,1,4.7,4.71A4.54,4.54,0,0,1-186.1,157.05Zm-3.69,3.39H-182v27.18h-7.79Z"/></clipPath><clipPath id="clip-path-27"><circle class="cls-5" cx="-63.4" cy="167.62" r="44"/></clipPath><clipPath id="clip-path-28"><path class="cls-6" d="M-43.86,163.91q-8.05,5.06-12.22,7.85c-.94.63-1.69,1.13-2.28,1.48a13.85,13.85,0,0,1-2.32,1.09,7.33,7.33,0,0,1-2.7.56h0a7.42,7.42,0,0,1-2.7-.56,14.24,14.24,0,0,1-2.32-1.09c-.58-.35-1.34-.85-2.27-1.48q-3.32-2.25-12.2-7.85a12.73,12.73,0,0,1-2.48-2v18a3.37,3.37,0,0,0,1.15,2.57,4,4,0,0,0,2.78,1.07h36.14a3.94,3.94,0,0,0,2.77-1.07A3.38,3.38,0,0,0-41.4,180v-18A13.54,13.54,0,0,1-43.86,163.91Zm-37.32-2.43,5,3.24,6.44,4.15,1,.69c.53.36,1,.65,1.33.87s.77.46,1.27.73a7.39,7.39,0,0,0,1.42.62,4.36,4.36,0,0,0,1.22.2h0a4.37,4.37,0,0,0,1.23-.2,7.6,7.6,0,0,0,1.41-.62c.5-.27.93-.51,1.28-.73s.79-.51,1.32-.87.88-.59,1-.69l11.49-7.39a11.24,11.24,0,0,0,3-2.79,5.67,5.67,0,0,0,1.21-3.43,3.36,3.36,0,0,0-1.17-2.57,3.93,3.93,0,0,0-2.76-1.07H-81.47a3.63,3.63,0,0,0-2.91,1.18,4.37,4.37,0,0,0-1,3,5.11,5.11,0,0,0,1.35,3.1A11.8,11.8,0,0,0-81.18,161.48Z"/></clipPath><clipPath id="clip-path-29"><circle class="cls-5" cx="151.4" cy="167.62" r="44"/></clipPath><clipPath id="clip-path-30"><circle class="cls-4" cx="258.8" cy="-75.18" r="44"/></clipPath></defs><path class="cls-8" d="M-261.15-85.49a9,9,0,0,0,3.78-5,16.7,16.7,0,0,1-5.47,2.21,8.39,8.39,0,0,0-6.29-2.87,8.85,8.85,0,0,0-8.61,9.08,9.32,9.32,0,0,0,.22,2.07,24.06,24.06,0,0,1-17.76-9.49,9.43,9.43,0,0,0-1.17,4.57,9.2,9.2,0,0,0,3.84,7.56,8.28,8.28,0,0,1-3.91-1.13v.11a9,9,0,0,0,6.92,8.91,8.21,8.21,0,0,1-2.28.32,8.72,8.72,0,0,1-1.62-.16A8.7,8.7,0,0,0-285.45-63a16.71,16.71,0,0,1-10.7,3.89,15.72,15.72,0,0,1-2.06-.13A23.51,23.51,0,0,0-285-55.18c15.85,0,24.52-13.85,24.52-25.86,0-.4,0-.79,0-1.18a18,18,0,0,0,4.29-4.7A16.55,16.55,0,0,1-261.15-85.49Z"/><g class="cls-9"><rect class="cls-10" x="-522.21" y="-199.18" width="1328" height="1168"/></g><path class="cls-8" d="M58.32-87a2.62,2.62,0,0,1-2.62,2.62A2.62,2.62,0,0,1,53.08-87a2.62,2.62,0,0,1,2.62-2.62A2.62,2.62,0,0,1,58.32-87ZM44-67.8a7.34,7.34,0,0,1-7.34-7.34A7.34,7.34,0,0,1,44-82.48a7.34,7.34,0,0,1,7.34,7.34A7.34,7.34,0,0,1,44-67.8Zm0-18.65a11.31,11.31,0,0,0-11.3,11.31A11.3,11.3,0,0,0,44-63.84a11.3,11.3,0,0,0,11.31-11.3A11.31,11.31,0,0,0,44-86.45Zm0-10.73c-6,0-6.72,0-9.07.13a16.09,16.09,0,0,0-5.34,1,10.71,10.71,0,0,0-3.9,2.54,10.94,10.94,0,0,0-2.54,3.89,16.36,16.36,0,0,0-1,5.35C22-81.91,22-81.16,22-75.18s0,6.72.13,9.07a16.35,16.35,0,0,0,1,5.34,10.94,10.94,0,0,0,2.54,3.89,10.71,10.71,0,0,0,3.9,2.54,16.09,16.09,0,0,0,5.34,1c2.35.11,3.1.14,9.07.14s6.72,0,9.07-.14a16.09,16.09,0,0,0,5.34-1,10.71,10.71,0,0,0,3.9-2.54,10.94,10.94,0,0,0,2.54-3.89,16.35,16.35,0,0,0,1-5.34c.1-2.35.13-3.1.13-9.07s0-6.73-.13-9.07a16.36,16.36,0,0,0-1-5.35,10.94,10.94,0,0,0-2.54-3.89A10.71,10.71,0,0,0,58.41-96a16.09,16.09,0,0,0-5.34-1C50.72-97.16,50-97.18,44-97.18Zm0,4c5.87,0,6.57,0,8.89.13a12.08,12.08,0,0,1,4.09.76,6.71,6.71,0,0,1,2.52,1.64,6.81,6.81,0,0,1,1.65,2.53,12.28,12.28,0,0,1,.76,4.09c.1,2.32.13,3,.13,8.89s0,6.57-.13,8.89a12.2,12.2,0,0,1-.76,4.08,6.81,6.81,0,0,1-1.65,2.53A6.86,6.86,0,0,1,57-58a12.15,12.15,0,0,1-4.09.75c-2.32.11-3,.13-8.89.13s-6.57,0-8.89-.13A12.15,12.15,0,0,1,31-58a6.86,6.86,0,0,1-2.52-1.65,6.81,6.81,0,0,1-1.65-2.53,12.2,12.2,0,0,1-.76-4.08c-.1-2.32-.13-3-.13-8.89s0-6.57.13-8.89a12.28,12.28,0,0,1,.76-4.09,6.81,6.81,0,0,1,1.65-2.53A6.71,6.71,0,0,1,31-92.33a12.08,12.08,0,0,1,4.09-.76c2.32-.11,3-.13,8.89-.13"/><g class="cls-12"><rect class="cls-10" x="-440" y="-199.18" width="1328" height="1168"/></g><path class="cls-8" d="M-150.8-55.18h-8.84V-69.25c0-3.68-1.39-6.19-4.43-6.19a4.53,4.53,0,0,0-4.22,3.33,6.67,6.67,0,0,0-.19,2.22v14.71h-8.76s.11-24.91,0-27.18h8.76v4.27c.52-1.87,3.32-4.53,7.78-4.53,5.54,0,9.9,3.91,9.9,12.33Zm-35.3-30.58h-.05a4.5,4.5,0,0,1-4.65-4.7A4.54,4.54,0,0,1-186-95.18a4.52,4.52,0,0,1,4.7,4.71A4.53,4.53,0,0,1-186.1-85.76Zm-3.69,3.4H-182v27.17h-7.79Z"/><g class="cls-14"><rect class="cls-10" x="-1014.8" y="-199.18" width="1328" height="1168"/></g><path class="cls-8" d="M-43.86-78.89q-8.05,5-12.22,7.84c-.94.64-1.69,1.14-2.28,1.49a13.85,13.85,0,0,1-2.32,1.09,7.54,7.54,0,0,1-2.7.56h0a7.63,7.63,0,0,1-2.7-.56,14.24,14.24,0,0,1-2.32-1.09c-.58-.35-1.34-.85-2.27-1.49Q-74-73.3-82.92-78.89a12.4,12.4,0,0,1-2.48-2v18.05a3.37,3.37,0,0,0,1.15,2.57,4,4,0,0,0,2.78,1.07h36.14a3.94,3.94,0,0,0,2.77-1.07,3.38,3.38,0,0,0,1.16-2.57V-80.87A13.17,13.17,0,0,1-43.86-78.89Zm-37.32-2.43,5,3.24c2.8,1.79,5,3.18,6.44,4.15l1,.69c.53.36,1,.64,1.33.86s.77.47,1.27.74a7.31,7.31,0,0,0,1.42.61,4.06,4.06,0,0,0,1.22.21h0A4.07,4.07,0,0,0-62.15-71a7.51,7.51,0,0,0,1.41-.61c.5-.27.93-.52,1.28-.74s.79-.5,1.32-.86.88-.59,1-.69q2.25-1.45,11.49-7.39a11.28,11.28,0,0,0,3-2.8,5.65,5.65,0,0,0,1.21-3.43,3.37,3.37,0,0,0-1.17-2.57,4,4,0,0,0-2.76-1.06H-81.47A3.63,3.63,0,0,0-84.38-90a4.36,4.36,0,0,0-1,3A5.07,5.07,0,0,0-84-83.95,11.85,11.85,0,0,0-81.18-81.32Z"/><g class="cls-16"><rect class="cls-10" x="-427.4" y="-439.18" width="1328" height="1168"/></g><path class="cls-19" d="M-261.15,33.69a9,9,0,0,0,3.78-5,16.68,16.68,0,0,1-5.47,2.2A8.39,8.39,0,0,0-269.13,28a8.86,8.86,0,0,0-8.61,9.09,9.44,9.44,0,0,0,.22,2.07,24.07,24.07,0,0,1-17.76-9.5,9.49,9.49,0,0,0-1.17,4.57,9.22,9.22,0,0,0,3.84,7.57,8.29,8.29,0,0,1-3.91-1.14v.11a9,9,0,0,0,6.92,8.91,7.85,7.85,0,0,1-2.28.32,8,8,0,0,1-1.62-.16,8.7,8.7,0,0,0,8.05,6.31A16.71,16.71,0,0,1-296.15,60a17.66,17.66,0,0,1-2.06-.12A23.58,23.58,0,0,0-285,64c15.85,0,24.52-13.85,24.52-25.86,0-.39,0-.79,0-1.17a18.05,18.05,0,0,0,4.29-4.71A16.55,16.55,0,0,1-261.15,33.69Z"/><g class="cls-20"><rect class="cls-4" x="-522.21" y="-80" width="1328" height="1168"/></g><g class="cls-21"><g class="cls-22"><path class="cls-4" d="M44,4A40,40,0,1,1,4,44,40,40,0,0,1,44,4m0-4A44,44,0,1,0,88,44,44,44,0,0,0,44,0Z"/></g></g><path class="cls-19" d="M58.32,32.21a2.62,2.62,0,1,1-2.62-2.62A2.62,2.62,0,0,1,58.32,32.21ZM44,51.38A7.34,7.34,0,1,1,51.38,44,7.34,7.34,0,0,1,44,51.38Zm0-18.64A11.31,11.31,0,1,0,55.35,44,11.3,11.3,0,0,0,44,32.74ZM44,22c-6,0-6.72,0-9.07.13a16.06,16.06,0,0,0-5.34,1,10.81,10.81,0,0,0-3.9,2.53,11,11,0,0,0-2.54,3.9,16.35,16.35,0,0,0-1,5.34C22,37.28,22,38,22,44s0,6.72.13,9.07a16.35,16.35,0,0,0,1,5.34,11,11,0,0,0,2.54,3.9,10.81,10.81,0,0,0,3.9,2.53,16.06,16.06,0,0,0,5.34,1C37.28,66,38,66,44,66s6.72,0,9.07-.13a16.06,16.06,0,0,0,5.34-1,10.81,10.81,0,0,0,3.9-2.53,11,11,0,0,0,2.54-3.9,16.35,16.35,0,0,0,1-5.34C66,50.72,66,50,66,44s0-6.72-.13-9.07a16.35,16.35,0,0,0-1-5.34,11,11,0,0,0-2.54-3.9,10.81,10.81,0,0,0-3.9-2.53,16.06,16.06,0,0,0-5.34-1C50.72,22,50,22,44,22Zm0,4c5.87,0,6.57,0,8.89.13a12.34,12.34,0,0,1,4.09.76A7.28,7.28,0,0,1,61.15,31a12.14,12.14,0,0,1,.76,4.08c.1,2.32.13,3,.13,8.89s0,6.57-.13,8.89A12.14,12.14,0,0,1,61.15,57,7.28,7.28,0,0,1,57,61.15a12.34,12.34,0,0,1-4.09.76c-2.32.1-3,.13-8.89.13s-6.57,0-8.89-.13A12.34,12.34,0,0,1,31,61.15,7.28,7.28,0,0,1,26.85,57a12.14,12.14,0,0,1-.76-4.08C26,50.57,26,49.87,26,44s0-6.57.13-8.89A12.14,12.14,0,0,1,26.85,31,7.28,7.28,0,0,1,31,26.85a12.34,12.34,0,0,1,4.09-.76c2.32-.1,3-.13,8.89-.13"/><g class="cls-23"><rect class="cls-4" x="-440" y="-80" width="1328" height="1168"/><g class="cls-24"><rect class="cls-4" x="12" y="12" width="64" height="64"/></g></g><path class="cls-19" d="M-150.8,64h-8.84V49.94c0-3.68-1.39-6.19-4.43-6.19a4.53,4.53,0,0,0-4.22,3.33,6.64,6.64,0,0,0-.19,2.22V64h-8.76s.11-24.91,0-27.17h8.76v4.26c.52-1.86,3.32-4.53,7.78-4.53,5.54,0,9.9,3.92,9.9,12.33Zm-35.3-30.57h-.05a4.51,4.51,0,0,1-4.65-4.71A4.55,4.55,0,0,1-186,24a4.52,4.52,0,0,1,4.7,4.71A4.54,4.54,0,0,1-186.1,33.43Zm-3.69,3.4H-182V64h-7.79Z"/><g class="cls-26"><rect class="cls-4" x="-1014.8" y="-80" width="1328" height="1168"/></g><path class="cls-19" d="M-43.86,40.3q-8.05,5-12.22,7.84c-.94.63-1.69,1.13-2.28,1.48a14.61,14.61,0,0,1-2.32,1.1,7.52,7.52,0,0,1-2.7.55h0a7.6,7.6,0,0,1-2.7-.55,15.05,15.05,0,0,1-2.32-1.1c-.58-.35-1.34-.85-2.27-1.48Q-74,45.89-82.92,40.3a13.15,13.15,0,0,1-2.48-2v18a3.37,3.37,0,0,0,1.15,2.57A4,4,0,0,0-81.47,60h36.14a3.94,3.94,0,0,0,2.77-1.07,3.38,3.38,0,0,0,1.16-2.57v-18A13.58,13.58,0,0,1-43.86,40.3Zm-37.32-2.44,5,3.24,6.44,4.15,1,.69c.53.36,1,.65,1.33.87s.77.46,1.27.74a8,8,0,0,0,1.42.61,4,4,0,0,0,1.22.2h0a4,4,0,0,0,1.23-.2,8.23,8.23,0,0,0,1.41-.61c.5-.28.93-.52,1.28-.74s.79-.51,1.32-.87l1-.69,11.49-7.39a11.24,11.24,0,0,0,3-2.79,5.67,5.67,0,0,0,1.21-3.43,3.36,3.36,0,0,0-1.17-2.57A4,4,0,0,0-45.33,28H-81.47a3.63,3.63,0,0,0-2.91,1.18,4.37,4.37,0,0,0-1,3A5.09,5.09,0,0,0-84,35.24,11.8,11.8,0,0,0-81.18,37.86Z"/><g class="cls-28"><rect class="cls-4" x="-427.4" y="-320" width="1328" height="1168"/></g><g class="cls-30"><rect class="cls-5" x="-522.21" y="43.62" width="1328" height="1168"/></g><circle class="cls-5" cx="-278.21" cy="167.62" r="44"/><path class="cls-31" d="M-261.15,157.31a9,9,0,0,0,3.78-5,16.48,16.48,0,0,1-5.47,2.21,8.39,8.39,0,0,0-6.29-2.87,8.86,8.86,0,0,0-8.61,9.09,9.44,9.44,0,0,0,.22,2.07,24.07,24.07,0,0,1-17.76-9.5,9.49,9.49,0,0,0-1.17,4.57,9.24,9.24,0,0,0,3.84,7.57,8.29,8.29,0,0,1-3.91-1.14v.11a9,9,0,0,0,6.92,8.91,7.85,7.85,0,0,1-2.28.32,8,8,0,0,1-1.62-.16,8.7,8.7,0,0,0,8.05,6.31,16.71,16.71,0,0,1-10.7,3.89,17.66,17.66,0,0,1-2.06-.12A23.58,23.58,0,0,0-285,187.62c15.85,0,24.52-13.85,24.52-25.86,0-.39,0-.79,0-1.17a18.21,18.21,0,0,0,4.29-4.71A16.55,16.55,0,0,1-261.15,157.31Z"/><g class="cls-32"><rect class="cls-33" x="-522.21" y="43.62" width="1328" height="1168"/></g><g class="cls-34"><rect class="cls-5" x="-440" y="43.62" width="1328" height="1168"/></g><circle class="cls-5" cx="44" cy="167.62" r="44"/><path class="cls-31" d="M58.32,155.83a2.62,2.62,0,1,1-2.62-2.62A2.62,2.62,0,0,1,58.32,155.83ZM44,175a7.34,7.34,0,1,1,7.34-7.34A7.34,7.34,0,0,1,44,175Zm0-18.64a11.31,11.31,0,1,0,11.31,11.3A11.3,11.3,0,0,0,44,156.36Zm0-10.74c-6,0-6.72,0-9.07.13a16.35,16.35,0,0,0-5.34,1,11.26,11.26,0,0,0-6.44,6.44,16.35,16.35,0,0,0-1,5.34c-.1,2.34-.13,3.09-.13,9.07s0,6.72.13,9.07a16.35,16.35,0,0,0,1,5.34,11,11,0,0,0,2.54,3.9,10.81,10.81,0,0,0,3.9,2.53,16.06,16.06,0,0,0,5.34,1c2.35.1,3.1.13,9.07.13s6.72,0,9.07-.13a16.06,16.06,0,0,0,5.34-1,10.81,10.81,0,0,0,3.9-2.53,11,11,0,0,0,2.54-3.9,16.35,16.35,0,0,0,1-5.34c.1-2.35.13-3.1.13-9.07s0-6.73-.13-9.07a16.35,16.35,0,0,0-1-5.34,11.26,11.26,0,0,0-6.44-6.44,16.35,16.35,0,0,0-5.34-1C50.72,145.64,50,145.62,44,145.62Zm0,4c5.87,0,6.57,0,8.89.13a12.34,12.34,0,0,1,4.09.76,7.3,7.3,0,0,1,4.17,4.17,12.28,12.28,0,0,1,.76,4.09c.1,2.32.13,3,.13,8.89s0,6.57-.13,8.89a12.2,12.2,0,0,1-.76,4.08A7.35,7.35,0,0,1,57,184.77a12.34,12.34,0,0,1-4.09.76c-2.32.1-3,.12-8.89.12s-6.57,0-8.89-.12a12.34,12.34,0,0,1-4.09-.76,7.35,7.35,0,0,1-4.17-4.18,12.2,12.2,0,0,1-.76-4.08c-.1-2.32-.13-3-.13-8.89s0-6.57.13-8.89a12.28,12.28,0,0,1,.76-4.09A7.3,7.3,0,0,1,31,150.47a12.34,12.34,0,0,1,4.09-.76c2.32-.11,3-.13,8.89-.13"/><g class="cls-35"><rect class="cls-33" x="-440" y="43.62" width="1328" height="1168"/></g><g class="cls-36"><rect class="cls-5" x="-1014.8" y="43.62" width="1328" height="1168"/></g><circle class="cls-5" cx="-170.8" cy="167.62" r="44"/><path class="cls-31" d="M-150.8,187.62h-8.84V173.56c0-3.69-1.39-6.2-4.43-6.2a4.54,4.54,0,0,0-4.22,3.33,6.69,6.69,0,0,0-.19,2.22v14.71h-8.76s.11-24.91,0-27.18h8.76v4.27c.52-1.87,3.32-4.53,7.78-4.53,5.54,0,9.9,3.91,9.9,12.33Zm-35.3-30.57h-.05a4.51,4.51,0,0,1-4.65-4.71,4.54,4.54,0,0,1,4.76-4.72,4.52,4.52,0,0,1,4.7,4.71A4.54,4.54,0,0,1-186.1,157.05Zm-3.69,3.39H-182v27.18h-7.79Z"/><g class="cls-37"><rect class="cls-33" x="-1014.8" y="43.62" width="1328" height="1168"/></g><g class="cls-38"><rect class="cls-5" x="-427.4" y="-196.38" width="1328" height="1168"/></g><circle class="cls-5" cx="-63.4" cy="167.62" r="44"/><path class="cls-31" d="M-43.86,163.91q-8.05,5.06-12.22,7.85c-.94.63-1.69,1.13-2.28,1.48a13.85,13.85,0,0,1-2.32,1.09,7.33,7.33,0,0,1-2.7.56h0a7.42,7.42,0,0,1-2.7-.56,14.24,14.24,0,0,1-2.32-1.09c-.58-.35-1.34-.85-2.27-1.48q-3.32-2.25-12.2-7.85a12.73,12.73,0,0,1-2.48-2v18a3.37,3.37,0,0,0,1.15,2.57,4,4,0,0,0,2.78,1.07h36.14a3.94,3.94,0,0,0,2.77-1.07A3.38,3.38,0,0,0-41.4,180v-18A13.54,13.54,0,0,1-43.86,163.91Zm-37.32-2.43,5,3.24,6.44,4.15,1,.69c.53.36,1,.65,1.33.87s.77.46,1.27.73a7.39,7.39,0,0,0,1.42.62,4.36,4.36,0,0,0,1.22.2h0a4.37,4.37,0,0,0,1.23-.2,7.6,7.6,0,0,0,1.41-.62c.5-.27.93-.51,1.28-.73s.79-.51,1.32-.87.88-.59,1-.69l11.49-7.39a11.24,11.24,0,0,0,3-2.79,5.67,5.67,0,0,0,1.21-3.43,3.36,3.36,0,0,0-1.17-2.57,3.93,3.93,0,0,0-2.76-1.07H-81.47a3.63,3.63,0,0,0-2.91,1.18,4.37,4.37,0,0,0-1,3,5.11,5.11,0,0,0,1.35,3.1A11.8,11.8,0,0,0-81.18,161.48Z"/><g class="cls-39"><rect class="cls-33" x="-427.4" y="-196.38" width="1328" height="1168"/></g><g class="cls-40"><rect class="cls-5" x="-332.6" y="43.62" width="1328" height="1168"/></g><circle class="cls-5" cx="151.4" cy="167.62" r="44"/><circle class="cls-4" cx="258.8" cy="-75.18" r="44"/><g class="cls-41"><rect class="cls-4" x="-225.2" y="-199.18" width="1328" height="1168"/></g></svg>