<svg id="Layer_1" data-name="Layer 1" xmlns="http://www.w3.org/2000/svg" xmlns:xlink="http://www.w3.org/1999/xlink" viewBox="0 0 88 88"><defs><style>.cls-1{fill:none;}.cls-10,.cls-2,.cls-8{fill:#1a2966;}.cls-2,.cls-3,.cls-4{clip-rule:evenodd;}.cls-19,.cls-3,.cls-6{fill:#dc554f;}.cls-29,.cls-4,.cls-5{fill:#fff;}.cls-7{clip-path:url(#clip-path);}.cls-19,.cls-29,.cls-8{fill-rule:evenodd;}.cls-9{clip-path:url(#clip-path-2);}.cls-11{clip-path:url(#clip-path-3);}.cls-12{clip-path:url(#clip-path-4);}.cls-13{clip-path:url(#clip-path-5);}.cls-14{clip-path:url(#clip-path-6);}.cls-15{clip-path:url(#clip-path-7);}.cls-16{clip-path:url(#clip-path-8);}.cls-17{clip-path:url(#clip-path-9);}.cls-18{clip-path:url(#clip-path-10);}.cls-20{clip-path:url(#clip-path-11);}.cls-21{clip-path:url(#clip-path-12);}.cls-22{clip-path:url(#clip-path-13);}.cls-23{clip-path:url(#clip-path-14);}.cls-24{clip-path:url(#clip-path-15);}.cls-25{clip-path:url(#clip-path-16);}.cls-26{clip-path:url(#clip-path-17);}.cls-27{clip-path:url(#clip-path-18);}.cls-28{clip-path:url(#clip-path-19);}.cls-30{clip-path:url(#clip-path-20);}.cls-31{clip-path:url(#clip-path-21);}.cls-32{clip-path:url(#clip-path-22);}.cls-33{clip-path:url(#clip-path-23);}.cls-34{clip-path:url(#clip-path-24);}.cls-35{clip-path:url(#clip-path-25);}.cls-36{clip-path:url(#clip-path-26);}.cls-37{clip-path:url(#clip-path-27);}.cls-38{clip-path:url(#clip-path-28);}.cls-39{clip-path:url(#clip-path-29);}.cls-40{clip-path:url(#clip-path-30);}</style><clipPath id="clip-path"><circle class="cls-1" cx="-278.21" cy="-198.8" r="44"/></clipPath><clipPath id="clip-path-2"><path class="cls-2" d="M-261.15-209.11a9,9,0,0,0,3.78-5,16.48,16.48,0,0,1-5.47,2.21,8.39,8.39,0,0,0-6.29-2.87,8.85,8.85,0,0,0-8.61,9.08,9.32,9.32,0,0,0,.22,2.07,24.06,24.06,0,0,1-17.76-9.49,9.49,9.49,0,0,0-1.17,4.57,9.24,9.24,0,0,0,3.84,7.57,8.29,8.29,0,0,1-3.91-1.14v.11a9,9,0,0,0,6.92,8.91,8.21,8.21,0,0,1-2.28.32,8,8,0,0,1-1.62-.16,8.7,8.7,0,0,0,8.05,6.31,16.71,16.71,0,0,1-10.7,3.89,17.66,17.66,0,0,1-2.06-.12A23.58,23.58,0,0,0-285-178.8c15.85,0,24.52-13.85,24.52-25.86,0-.39,0-.79,0-1.18a18,18,0,0,0,4.29-4.7A16.55,16.55,0,0,1-261.15-209.11Z"/></clipPath><clipPath id="clip-path-3"><circle class="cls-1" cx="44" cy="-198.8" r="44"/></clipPath><clipPath id="clip-path-4"><path class="cls-2" d="M58.32-210.59A2.62,2.62,0,0,1,55.7-208a2.62,2.62,0,0,1-2.62-2.62,2.62,2.62,0,0,1,2.62-2.62A2.63,2.63,0,0,1,58.32-210.59ZM44-191.42a7.34,7.34,0,0,1-7.34-7.34A7.34,7.34,0,0,1,44-206.1a7.34,7.34,0,0,1,7.34,7.34A7.34,7.34,0,0,1,44-191.42Zm0-18.64a11.3,11.3,0,0,0-11.3,11.3A11.3,11.3,0,0,0,44-187.45a11.31,11.31,0,0,0,11.31-11.31A11.3,11.3,0,0,0,44-210.06Zm0-10.74c-6,0-6.72,0-9.07.13a16.35,16.35,0,0,0-5.34,1,10.84,10.84,0,0,0-3.9,2.54,10.89,10.89,0,0,0-2.54,3.9,16.35,16.35,0,0,0-1,5.34c-.1,2.34-.13,3.09-.13,9.07s0,6.72.13,9.07a16.35,16.35,0,0,0,1,5.34,11,11,0,0,0,2.54,3.9,10.81,10.81,0,0,0,3.9,2.53,16.06,16.06,0,0,0,5.34,1c2.35.1,3.1.13,9.07.13s6.72,0,9.07-.13a16.06,16.06,0,0,0,5.34-1,10.81,10.81,0,0,0,3.9-2.53,11,11,0,0,0,2.54-3.9,16.35,16.35,0,0,0,1-5.34c.1-2.35.13-3.1.13-9.07s0-6.73-.13-9.07a16.35,16.35,0,0,0-1-5.34,10.89,10.89,0,0,0-2.54-3.9,10.84,10.84,0,0,0-3.9-2.54,16.35,16.35,0,0,0-5.34-1C50.72-220.78,50-220.8,44-220.8Zm0,4c5.87,0,6.57,0,8.89.13a12.34,12.34,0,0,1,4.09.76,6.83,6.83,0,0,1,2.52,1.64,6.9,6.9,0,0,1,1.65,2.53,12.28,12.28,0,0,1,.76,4.09c.1,2.32.13,3,.13,8.89s0,6.57-.13,8.89a12.2,12.2,0,0,1-.76,4.08,6.81,6.81,0,0,1-1.65,2.53A6.86,6.86,0,0,1,57-181.65a12.34,12.34,0,0,1-4.09.76c-2.32.1-3,.12-8.89.12s-6.57,0-8.89-.12a12.34,12.34,0,0,1-4.09-.76,6.86,6.86,0,0,1-2.52-1.65,6.81,6.81,0,0,1-1.65-2.53,12.2,12.2,0,0,1-.76-4.08c-.1-2.32-.13-3-.13-8.89s0-6.57.13-8.89a12.28,12.28,0,0,1,.76-4.09,6.9,6.9,0,0,1,1.65-2.53A6.83,6.83,0,0,1,31-215.95a12.34,12.34,0,0,1,4.09-.76c2.32-.11,3-.13,8.89-.13"/></clipPath><clipPath id="clip-path-5"><circle class="cls-1" cx="-170.8" cy="-198.8" r="44"/></clipPath><clipPath id="clip-path-6"><path class="cls-2" d="M-150.8-178.8h-8.84v-14.07c0-3.68-1.39-6.19-4.43-6.19a4.54,4.54,0,0,0-4.22,3.33,6.67,6.67,0,0,0-.19,2.22v14.71h-8.76s.11-24.91,0-27.18h8.76v4.27c.52-1.87,3.32-4.53,7.78-4.53,5.54,0,9.9,3.91,9.9,12.33Zm-35.3-30.57h-.05a4.51,4.51,0,0,1-4.65-4.71A4.54,4.54,0,0,1-186-218.8a4.52,4.52,0,0,1,4.7,4.71A4.54,4.54,0,0,1-186.1-209.37Zm-3.69,3.39H-182v27.17h-7.79Z"/></clipPath><clipPath id="clip-path-7"><circle class="cls-1" cx="-63.4" cy="-198.8" r="44"/></clipPath><clipPath id="clip-path-8"><path class="cls-2" d="M-43.86-202.51q-8.05,5.06-12.22,7.84c-.94.64-1.69,1.14-2.28,1.49a13.85,13.85,0,0,1-2.32,1.09,7.54,7.54,0,0,1-2.7.56h0a7.63,7.63,0,0,1-2.7-.56,14.24,14.24,0,0,1-2.32-1.09c-.58-.35-1.34-.85-2.27-1.49q-3.32-2.25-12.2-7.84a12.73,12.73,0,0,1-2.48-2v18a3.37,3.37,0,0,0,1.15,2.57,4,4,0,0,0,2.78,1.07h36.14a3.94,3.94,0,0,0,2.77-1.07,3.38,3.38,0,0,0,1.16-2.57v-18A13.54,13.54,0,0,1-43.86-202.51Zm-37.32-2.43,5,3.24c2.8,1.79,5,3.18,6.44,4.15l1,.69c.53.36,1,.64,1.33.86s.77.47,1.27.74a8.07,8.07,0,0,0,1.42.62,4.36,4.36,0,0,0,1.22.2h0a4.37,4.37,0,0,0,1.23-.2,8.33,8.33,0,0,0,1.41-.62c.5-.27.93-.52,1.28-.74s.79-.5,1.32-.86.88-.59,1-.69l11.49-7.39a11.12,11.12,0,0,0,3-2.8,5.65,5.65,0,0,0,1.21-3.43,3.34,3.34,0,0,0-1.17-2.56,3.93,3.93,0,0,0-2.76-1.07H-81.47a3.63,3.63,0,0,0-2.91,1.18,4.36,4.36,0,0,0-1,3A5.11,5.11,0,0,0-84-207.56,12,12,0,0,0-81.18-204.94Z"/></clipPath><clipPath id="clip-path-9"><circle class="cls-1" cx="151.4" cy="-198.8" r="44"/></clipPath><clipPath id="clip-path-10"><circle class="cls-1" cx="-278.21" cy="-79.62" r="44"/></clipPath><clipPath id="clip-path-11"><path class="cls-3" d="M-261.15-89.93a9,9,0,0,0,3.78-5,16.68,16.68,0,0,1-5.47,2.2,8.39,8.39,0,0,0-6.29-2.87,8.86,8.86,0,0,0-8.61,9.09,9.38,9.38,0,0,0,.22,2.07A24.07,24.07,0,0,1-295.28-94a9.49,9.49,0,0,0-1.17,4.57,9.21,9.21,0,0,0,3.84,7.57A8.29,8.29,0,0,1-296.52-83v.12a9,9,0,0,0,6.92,8.91,8.21,8.21,0,0,1-2.28.32,8,8,0,0,1-1.62-.17,8.7,8.7,0,0,0,8.05,6.31,16.71,16.71,0,0,1-10.7,3.89,15.71,15.71,0,0,1-2.06-.12A23.5,23.5,0,0,0-285-59.62c15.85,0,24.52-13.85,24.52-25.86,0-.39,0-.78,0-1.17a17.89,17.89,0,0,0,4.29-4.71A16.26,16.26,0,0,1-261.15-89.93Z"/></clipPath><clipPath id="clip-path-12"><circle class="cls-1" cx="44" cy="-79.62" r="44"/></clipPath><clipPath id="clip-path-13"><path class="cls-3" d="M58.32-91.4a2.62,2.62,0,0,1-2.62,2.61,2.61,2.61,0,0,1-2.62-2.61A2.62,2.62,0,0,1,55.7-94,2.62,2.62,0,0,1,58.32-91.4ZM44-72.24a7.34,7.34,0,0,1-7.34-7.33A7.34,7.34,0,0,1,44-86.91a7.33,7.33,0,0,1,7.34,7.34A7.33,7.33,0,0,1,44-72.24Zm0-18.64a11.3,11.3,0,0,0-11.3,11.31A11.3,11.3,0,0,0,44-68.27a11.3,11.3,0,0,0,11.31-11.3A11.31,11.31,0,0,0,44-90.88Zm0-10.74c-6,0-6.72,0-9.07.13a16.06,16.06,0,0,0-5.34,1,10.81,10.81,0,0,0-3.9,2.53A11,11,0,0,0,23.15-94a16.35,16.35,0,0,0-1,5.34c-.1,2.35-.13,3.1-.13,9.07s0,6.73.13,9.07a16.35,16.35,0,0,0,1,5.34,10.89,10.89,0,0,0,2.54,3.9,11,11,0,0,0,3.9,2.54,16.35,16.35,0,0,0,5.34,1c2.35.11,3.1.13,9.07.13s6.72,0,9.07-.13a16.35,16.35,0,0,0,5.34-1,11,11,0,0,0,3.9-2.54,10.89,10.89,0,0,0,2.54-3.9,16.35,16.35,0,0,0,1-5.34c.1-2.34.13-3.09.13-9.07s0-6.72-.13-9.07a16.35,16.35,0,0,0-1-5.34,11,11,0,0,0-2.54-3.9,10.81,10.81,0,0,0-3.9-2.53,16.06,16.06,0,0,0-5.34-1C50.72-101.59,50-101.62,44-101.62Zm0,4c5.87,0,6.57,0,8.89.12a12.34,12.34,0,0,1,4.09.76,6.86,6.86,0,0,1,2.52,1.65,6.81,6.81,0,0,1,1.65,2.53,12.2,12.2,0,0,1,.76,4.08c.1,2.32.13,3,.13,8.89s0,6.57-.13,8.89a12.28,12.28,0,0,1-.76,4.09,6.9,6.9,0,0,1-1.65,2.53A6.83,6.83,0,0,1,57-62.47a12.34,12.34,0,0,1-4.09.76c-2.32.11-3,.13-8.89.13s-6.57,0-8.89-.13A12.34,12.34,0,0,1,31-62.47a6.83,6.83,0,0,1-2.52-1.64,6.9,6.9,0,0,1-1.65-2.53,12.28,12.28,0,0,1-.76-4.09C26-73,26-73.74,26-79.62s0-6.57.13-8.89a12.2,12.2,0,0,1,.76-4.08,6.81,6.81,0,0,1,1.65-2.53A6.86,6.86,0,0,1,31-96.77a12.34,12.34,0,0,1,4.09-.76c2.32-.1,3-.12,8.89-.12"/></clipPath><clipPath id="clip-path-14"><circle class="cls-1" cx="-170.8" cy="-79.62" r="44"/></clipPath><clipPath id="clip-path-15"><path class="cls-3" d="M-150.8-59.62h-8.84V-73.68c0-3.68-1.39-6.19-4.43-6.19a4.53,4.53,0,0,0-4.22,3.33,6.64,6.64,0,0,0-.19,2.22v14.7h-8.76s.11-24.91,0-27.17h8.76v4.26c.52-1.86,3.32-4.52,7.78-4.52,5.54,0,9.9,3.91,9.9,12.32Zm-35.3-30.57h-.05a4.51,4.51,0,0,1-4.65-4.71A4.55,4.55,0,0,1-186-99.62a4.52,4.52,0,0,1,4.7,4.71A4.54,4.54,0,0,1-186.1-90.19Zm-3.69,3.4H-182v27.17h-7.79Z"/></clipPath><clipPath id="clip-path-16"><circle class="cls-1" cx="-63.4" cy="-79.62" r="44"/></clipPath><clipPath id="clip-path-17"><path class="cls-3" d="M-43.86-83.32q-8.05,5-12.22,7.84c-.94.63-1.69,1.13-2.28,1.49a14.69,14.69,0,0,1-2.32,1.09,7.52,7.52,0,0,1-2.7.55h0a7.6,7.6,0,0,1-2.7-.55A15.13,15.13,0,0,1-68.45-74c-.58-.36-1.34-.86-2.27-1.49q-3.32-2.25-12.2-7.84a13.15,13.15,0,0,1-2.48-2v18a3.37,3.37,0,0,0,1.15,2.57,3.92,3.92,0,0,0,2.78,1.07h36.14a3.9,3.9,0,0,0,2.77-1.07,3.38,3.38,0,0,0,1.16-2.57v-18A13.17,13.17,0,0,1-43.86-83.32Zm-37.32-2.44,5,3.24,6.44,4.15,1,.69c.53.36,1,.65,1.33.87s.77.46,1.27.74a8,8,0,0,0,1.42.61,4,4,0,0,0,1.22.2h0a4,4,0,0,0,1.23-.2,8.23,8.23,0,0,0,1.41-.61c.5-.28.93-.52,1.28-.74s.79-.51,1.32-.87l1-.69,11.49-7.39a11.24,11.24,0,0,0,3-2.79A5.67,5.67,0,0,0-41.4-92a3.36,3.36,0,0,0-1.17-2.57,4,4,0,0,0-2.76-1.07H-81.47a3.66,3.66,0,0,0-2.91,1.18,4.38,4.38,0,0,0-1,3A5.09,5.09,0,0,0-84-88.38,11.8,11.8,0,0,0-81.18-85.76Z"/></clipPath><clipPath id="clip-path-18"><circle class="cls-1" cx="151.4" cy="-79.62" r="44"/></clipPath><clipPath id="clip-path-19"><circle class="cls-1" cx="-278.21" cy="44" r="44"/></clipPath><clipPath id="clip-path-20"><path class="cls-4" d="M-261.15,33.69a9,9,0,0,0,3.78-5,16.68,16.68,0,0,1-5.47,2.2A8.39,8.39,0,0,0-269.13,28a8.86,8.86,0,0,0-8.61,9.09,9.44,9.44,0,0,0,.22,2.07,24.07,24.07,0,0,1-17.76-9.5,9.49,9.49,0,0,0-1.17,4.57,9.22,9.22,0,0,0,3.84,7.57,8.29,8.29,0,0,1-3.91-1.14v.11a9,9,0,0,0,6.92,8.91,7.85,7.85,0,0,1-2.28.32,8,8,0,0,1-1.62-.16,8.7,8.7,0,0,0,8.05,6.31A16.71,16.71,0,0,1-296.15,60a17.66,17.66,0,0,1-2.06-.12A23.58,23.58,0,0,0-285,64c15.85,0,24.52-13.85,24.52-25.86,0-.39,0-.79,0-1.17a18.05,18.05,0,0,0,4.29-4.71A16.55,16.55,0,0,1-261.15,33.69Z"/></clipPath><clipPath id="clip-path-21"><circle class="cls-1" cx="44" cy="44" r="44"/></clipPath><clipPath id="clip-path-22"><rect class="cls-1" x="-440" y="-80" width="1328" height="1168"/></clipPath><clipPath id="clip-path-23"><path class="cls-4" d="M58.32,32.21a2.62,2.62,0,1,1-2.62-2.62A2.62,2.62,0,0,1,58.32,32.21ZM44,51.38A7.34,7.34,0,1,1,51.38,44,7.34,7.34,0,0,1,44,51.38Zm0-18.64A11.31,11.31,0,1,0,55.35,44,11.3,11.3,0,0,0,44,32.74ZM44,22c-6,0-6.72,0-9.07.13a16.06,16.06,0,0,0-5.34,1,10.81,10.81,0,0,0-3.9,2.53,11,11,0,0,0-2.54,3.9,16.35,16.35,0,0,0-1,5.34C22,37.28,22,38,22,44s0,6.72.13,9.07a16.35,16.35,0,0,0,1,5.34,11,11,0,0,0,2.54,3.9,10.81,10.81,0,0,0,3.9,2.53,16.06,16.06,0,0,0,5.34,1C37.28,66,38,66,44,66s6.72,0,9.07-.13a16.06,16.06,0,0,0,5.34-1,10.81,10.81,0,0,0,3.9-2.53,11,11,0,0,0,2.54-3.9,16.35,16.35,0,0,0,1-5.34C66,50.72,66,50,66,44s0-6.72-.13-9.07a16.35,16.35,0,0,0-1-5.34,11,11,0,0,0-2.54-3.9,10.81,10.81,0,0,0-3.9-2.53,16.06,16.06,0,0,0-5.34-1C50.72,22,50,22,44,22Zm0,4c5.87,0,6.57,0,8.89.13a12.34,12.34,0,0,1,4.09.76A7.28,7.28,0,0,1,61.15,31a12.14,12.14,0,0,1,.76,4.08c.1,2.32.13,3,.13,8.89s0,6.57-.13,8.89A12.14,12.14,0,0,1,61.15,57,7.28,7.28,0,0,1,57,61.15a12.34,12.34,0,0,1-4.09.76c-2.32.1-3,.13-8.89.13s-6.57,0-8.89-.13A12.34,12.34,0,0,1,31,61.15,7.28,7.28,0,0,1,26.85,57a12.14,12.14,0,0,1-.76-4.08C26,50.57,26,49.87,26,44s0-6.57.13-8.89A12.14,12.14,0,0,1,26.85,31,7.28,7.28,0,0,1,31,26.85a12.34,12.34,0,0,1,4.09-.76c2.32-.1,3-.13,8.89-.13"/></clipPath><clipPath id="clip-path-24"><rect class="cls-5" x="-440" y="-80" width="1328" height="1168"/></clipPath><clipPath id="clip-path-25"><circle class="cls-1" cx="-170.8" cy="44" r="44"/></clipPath><clipPath id="clip-path-26"><path class="cls-4" d="M-150.8,64h-8.84V49.94c0-3.68-1.39-6.19-4.43-6.19a4.53,4.53,0,0,0-4.22,3.33,6.64,6.64,0,0,0-.19,2.22V64h-8.76s.11-24.91,0-27.17h8.76v4.26c.52-1.86,3.32-4.53,7.78-4.53,5.54,0,9.9,3.92,9.9,12.33Zm-35.3-30.57h-.05a4.51,4.51,0,0,1-4.65-4.71A4.55,4.55,0,0,1-186,24a4.52,4.52,0,0,1,4.7,4.71A4.54,4.54,0,0,1-186.1,33.43Zm-3.69,3.4H-182V64h-7.79Z"/></clipPath><clipPath id="clip-path-27"><circle class="cls-1" cx="-63.4" cy="44" r="44"/></clipPath><clipPath id="clip-path-28"><path class="cls-4" d="M-43.86,40.3q-8.05,5-12.22,7.84c-.94.63-1.69,1.13-2.28,1.48a14.61,14.61,0,0,1-2.32,1.1,7.52,7.52,0,0,1-2.7.55h0a7.6,7.6,0,0,1-2.7-.55,15.05,15.05,0,0,1-2.32-1.1c-.58-.35-1.34-.85-2.27-1.48Q-74,45.89-82.92,40.3a13.15,13.15,0,0,1-2.48-2v18a3.37,3.37,0,0,0,1.15,2.57A4,4,0,0,0-81.47,60h36.14a3.94,3.94,0,0,0,2.77-1.07,3.38,3.38,0,0,0,1.16-2.57v-18A13.58,13.58,0,0,1-43.86,40.3Zm-37.32-2.44,5,3.24,6.44,4.15,1,.69c.53.36,1,.65,1.33.87s.77.46,1.27.74a8,8,0,0,0,1.42.61,4,4,0,0,0,1.22.2h0a4,4,0,0,0,1.23-.2,8.23,8.23,0,0,0,1.41-.61c.5-.28.93-.52,1.28-.74s.79-.51,1.32-.87l1-.69,11.49-7.39a11.24,11.24,0,0,0,3-2.79,5.67,5.67,0,0,0,1.21-3.43,3.36,3.36,0,0,0-1.17-2.57A4,4,0,0,0-45.33,28H-81.47a3.63,3.63,0,0,0-2.91,1.18,4.37,4.37,0,0,0-1,3A5.09,5.09,0,0,0-84,35.24,11.8,11.8,0,0,0-81.18,37.86Z"/></clipPath><clipPath id="clip-path-29"><circle class="cls-1" cx="151.4" cy="44" r="44"/></clipPath><clipPath id="clip-path-30"><circle class="cls-6" cx="258.8" cy="-198.8" r="44"/></clipPath></defs><path class="cls-8" d="M-261.15-209.11a9,9,0,0,0,3.78-5,16.48,16.48,0,0,1-5.47,2.21,8.39,8.39,0,0,0-6.29-2.87,8.85,8.85,0,0,0-8.61,9.08,9.32,9.32,0,0,0,.22,2.07,24.06,24.06,0,0,1-17.76-9.49,9.49,9.49,0,0,0-1.17,4.57,9.24,9.24,0,0,0,3.84,7.57,8.29,8.29,0,0,1-3.91-1.14v.11a9,9,0,0,0,6.92,8.91,8.21,8.21,0,0,1-2.28.32,8,8,0,0,1-1.62-.16,8.7,8.7,0,0,0,8.05,6.31,16.71,16.71,0,0,1-10.7,3.89,17.66,17.66,0,0,1-2.06-.12A23.58,23.58,0,0,0-285-178.8c15.85,0,24.52-13.85,24.52-25.86,0-.39,0-.79,0-1.18a18,18,0,0,0,4.29-4.7A16.55,16.55,0,0,1-261.15-209.11Z"/><g class="cls-9"><rect class="cls-10" x="-522.21" y="-322.8" width="1328" height="1168"/></g><path class="cls-8" d="M58.32-210.59A2.62,2.62,0,0,1,55.7-208a2.62,2.62,0,0,1-2.62-2.62,2.62,2.62,0,0,1,2.62-2.62A2.63,2.63,0,0,1,58.32-210.59ZM44-191.42a7.34,7.34,0,0,1-7.34-7.34A7.34,7.34,0,0,1,44-206.1a7.34,7.34,0,0,1,7.34,7.34A7.34,7.34,0,0,1,44-191.42Zm0-18.64a11.3,11.3,0,0,0-11.3,11.3A11.3,11.3,0,0,0,44-187.45a11.31,11.31,0,0,0,11.31-11.31A11.3,11.3,0,0,0,44-210.06Zm0-10.74c-6,0-6.72,0-9.07.13a16.35,16.35,0,0,0-5.34,1,10.84,10.84,0,0,0-3.9,2.54,10.89,10.89,0,0,0-2.54,3.9,16.35,16.35,0,0,0-1,5.34c-.1,2.34-.13,3.09-.13,9.07s0,6.72.13,9.07a16.35,16.35,0,0,0,1,5.34,11,11,0,0,0,2.54,3.9,10.81,10.81,0,0,0,3.9,2.53,16.06,16.06,0,0,0,5.34,1c2.35.1,3.1.13,9.07.13s6.72,0,9.07-.13a16.06,16.06,0,0,0,5.34-1,10.81,10.81,0,0,0,3.9-2.53,11,11,0,0,0,2.54-3.9,16.35,16.35,0,0,0,1-5.34c.1-2.35.13-3.1.13-9.07s0-6.73-.13-9.07a16.35,16.35,0,0,0-1-5.34,10.89,10.89,0,0,0-2.54-3.9,10.84,10.84,0,0,0-3.9-2.54,16.35,16.35,0,0,0-5.34-1C50.72-220.78,50-220.8,44-220.8Zm0,4c5.87,0,6.57,0,8.89.13a12.34,12.34,0,0,1,4.09.76,6.83,6.83,0,0,1,2.52,1.64,6.9,6.9,0,0,1,1.65,2.53,12.28,12.28,0,0,1,.76,4.09c.1,2.32.13,3,.13,8.89s0,6.57-.13,8.89a12.2,12.2,0,0,1-.76,4.08,6.81,6.81,0,0,1-1.65,2.53A6.86,6.86,0,0,1,57-181.65a12.34,12.34,0,0,1-4.09.76c-2.32.1-3,.12-8.89.12s-6.57,0-8.89-.12a12.34,12.34,0,0,1-4.09-.76,6.86,6.86,0,0,1-2.52-1.65,6.81,6.81,0,0,1-1.65-2.53,12.2,12.2,0,0,1-.76-4.08c-.1-2.32-.13-3-.13-8.89s0-6.57.13-8.89a12.28,12.28,0,0,1,.76-4.09,6.9,6.9,0,0,1,1.65-2.53A6.83,6.83,0,0,1,31-215.95a12.34,12.34,0,0,1,4.09-.76c2.32-.11,3-.13,8.89-.13"/><g class="cls-12"><rect class="cls-10" x="-440" y="-322.8" width="1328" height="1168"/></g><path class="cls-8" d="M-150.8-178.8h-8.84v-14.07c0-3.68-1.39-6.19-4.43-6.19a4.54,4.54,0,0,0-4.22,3.33,6.67,6.67,0,0,0-.19,2.22v14.71h-8.76s.11-24.91,0-27.18h8.76v4.27c.52-1.87,3.32-4.53,7.78-4.53,5.54,0,9.9,3.91,9.9,12.33Zm-35.3-30.57h-.05a4.51,4.51,0,0,1-4.65-4.71A4.54,4.54,0,0,1-186-218.8a4.52,4.52,0,0,1,4.7,4.71A4.54,4.54,0,0,1-186.1-209.37Zm-3.69,3.39H-182v27.17h-7.79Z"/><g class="cls-14"><rect class="cls-10" x="-1014.8" y="-322.8" width="1328" height="1168"/></g><path class="cls-8" d="M-43.86-202.51q-8.05,5.06-12.22,7.84c-.94.64-1.69,1.14-2.28,1.49a13.85,13.85,0,0,1-2.32,1.09,7.54,7.54,0,0,1-2.7.56h0a7.63,7.63,0,0,1-2.7-.56,14.24,14.24,0,0,1-2.32-1.09c-.58-.35-1.34-.85-2.27-1.49q-3.32-2.25-12.2-7.84a12.73,12.73,0,0,1-2.48-2v18a3.37,3.37,0,0,0,1.15,2.57,4,4,0,0,0,2.78,1.07h36.14a3.94,3.94,0,0,0,2.77-1.07,3.38,3.38,0,0,0,1.16-2.57v-18A13.54,13.54,0,0,1-43.86-202.51Zm-37.32-2.43,5,3.24c2.8,1.79,5,3.18,6.44,4.15l1,.69c.53.36,1,.64,1.33.86s.77.47,1.27.74a8.07,8.07,0,0,0,1.42.62,4.36,4.36,0,0,0,1.22.2h0a4.37,4.37,0,0,0,1.23-.2,8.33,8.33,0,0,0,1.41-.62c.5-.27.93-.52,1.28-.74s.79-.5,1.32-.86.88-.59,1-.69l11.49-7.39a11.12,11.12,0,0,0,3-2.8,5.65,5.65,0,0,0,1.21-3.43,3.34,3.34,0,0,0-1.17-2.56,3.93,3.93,0,0,0-2.76-1.07H-81.47a3.63,3.63,0,0,0-2.91,1.18,4.36,4.36,0,0,0-1,3A5.11,5.11,0,0,0-84-207.56,12,12,0,0,0-81.18-204.94Z"/><g class="cls-16"><rect class="cls-10" x="-427.4" y="-562.8" width="1328" height="1168"/></g><path class="cls-19" d="M-261.15-89.93a9,9,0,0,0,3.78-5,16.68,16.68,0,0,1-5.47,2.2,8.39,8.39,0,0,0-6.29-2.87,8.86,8.86,0,0,0-8.61,9.09,9.38,9.38,0,0,0,.22,2.07A24.07,24.07,0,0,1-295.28-94a9.49,9.49,0,0,0-1.17,4.57,9.21,9.21,0,0,0,3.84,7.57A8.29,8.29,0,0,1-296.52-83v.12a9,9,0,0,0,6.92,8.91,8.21,8.21,0,0,1-2.28.32,8,8,0,0,1-1.62-.17,8.7,8.7,0,0,0,8.05,6.31,16.71,16.71,0,0,1-10.7,3.89,15.71,15.71,0,0,1-2.06-.12A23.5,23.5,0,0,0-285-59.62c15.85,0,24.52-13.85,24.52-25.86,0-.39,0-.78,0-1.17a17.89,17.89,0,0,0,4.29-4.71A16.26,16.26,0,0,1-261.15-89.93Z"/><g class="cls-20"><rect class="cls-6" x="-522.21" y="-203.62" width="1328" height="1168"/></g><path class="cls-19" d="M58.32-91.4a2.62,2.62,0,0,1-2.62,2.61,2.61,2.61,0,0,1-2.62-2.61A2.62,2.62,0,0,1,55.7-94,2.62,2.62,0,0,1,58.32-91.4ZM44-72.24a7.34,7.34,0,0,1-7.34-7.33A7.34,7.34,0,0,1,44-86.91a7.33,7.33,0,0,1,7.34,7.34A7.33,7.33,0,0,1,44-72.24Zm0-18.64a11.3,11.3,0,0,0-11.3,11.31A11.3,11.3,0,0,0,44-68.27a11.3,11.3,0,0,0,11.31-11.3A11.31,11.31,0,0,0,44-90.88Zm0-10.74c-6,0-6.72,0-9.07.13a16.06,16.06,0,0,0-5.34,1,10.81,10.81,0,0,0-3.9,2.53A11,11,0,0,0,23.15-94a16.35,16.35,0,0,0-1,5.34c-.1,2.35-.13,3.1-.13,9.07s0,6.73.13,9.07a16.35,16.35,0,0,0,1,5.34,10.89,10.89,0,0,0,2.54,3.9,11,11,0,0,0,3.9,2.54,16.35,16.35,0,0,0,5.34,1c2.35.11,3.1.13,9.07.13s6.72,0,9.07-.13a16.35,16.35,0,0,0,5.34-1,11,11,0,0,0,3.9-2.54,10.89,10.89,0,0,0,2.54-3.9,16.35,16.35,0,0,0,1-5.34c.1-2.34.13-3.09.13-9.07s0-6.72-.13-9.07a16.35,16.35,0,0,0-1-5.34,11,11,0,0,0-2.54-3.9,10.81,10.81,0,0,0-3.9-2.53,16.06,16.06,0,0,0-5.34-1C50.72-101.59,50-101.62,44-101.62Zm0,4c5.87,0,6.57,0,8.89.12a12.34,12.34,0,0,1,4.09.76,6.86,6.86,0,0,1,2.52,1.65,6.81,6.81,0,0,1,1.65,2.53,12.2,12.2,0,0,1,.76,4.08c.1,2.32.13,3,.13,8.89s0,6.57-.13,8.89a12.28,12.28,0,0,1-.76,4.09,6.9,6.9,0,0,1-1.65,2.53A6.83,6.83,0,0,1,57-62.47a12.34,12.34,0,0,1-4.09.76c-2.32.11-3,.13-8.89.13s-6.57,0-8.89-.13A12.34,12.34,0,0,1,31-62.47a6.83,6.83,0,0,1-2.52-1.64,6.9,6.9,0,0,1-1.65-2.53,12.28,12.28,0,0,1-.76-4.09C26-73,26-73.74,26-79.62s0-6.57.13-8.89a12.2,12.2,0,0,1,.76-4.08,6.81,6.81,0,0,1,1.65-2.53A6.86,6.86,0,0,1,31-96.77a12.34,12.34,0,0,1,4.09-.76c2.32-.1,3-.12,8.89-.12"/><g class="cls-22"><rect class="cls-6" x="-440" y="-203.62" width="1328" height="1168"/></g><path class="cls-19" d="M-150.8-59.62h-8.84V-73.68c0-3.68-1.39-6.19-4.43-6.19a4.53,4.53,0,0,0-4.22,3.33,6.64,6.64,0,0,0-.19,2.22v14.7h-8.76s.11-24.91,0-27.17h8.76v4.26c.52-1.86,3.32-4.52,7.78-4.52,5.54,0,9.9,3.91,9.9,12.32Zm-35.3-30.57h-.05a4.51,4.51,0,0,1-4.65-4.71A4.55,4.55,0,0,1-186-99.62a4.52,4.52,0,0,1,4.7,4.71A4.54,4.54,0,0,1-186.1-90.19Zm-3.69,3.4H-182v27.17h-7.79Z"/><g class="cls-24"><rect class="cls-6" x="-1014.8" y="-203.62" width="1328" height="1168"/></g><path class="cls-19" d="M-43.86-83.32q-8.05,5-12.22,7.84c-.94.63-1.69,1.13-2.28,1.49a14.69,14.69,0,0,1-2.32,1.09,7.52,7.52,0,0,1-2.7.55h0a7.6,7.6,0,0,1-2.7-.55A15.13,15.13,0,0,1-68.45-74c-.58-.36-1.34-.86-2.27-1.49q-3.32-2.25-12.2-7.84a13.15,13.15,0,0,1-2.48-2v18a3.37,3.37,0,0,0,1.15,2.57,3.92,3.92,0,0,0,2.78,1.07h36.14a3.9,3.9,0,0,0,2.77-1.07,3.38,3.38,0,0,0,1.16-2.57v-18A13.17,13.17,0,0,1-43.86-83.32Zm-37.32-2.44,5,3.24,6.44,4.15,1,.69c.53.36,1,.65,1.33.87s.77.46,1.27.74a8,8,0,0,0,1.42.61,4,4,0,0,0,1.22.2h0a4,4,0,0,0,1.23-.2,8.23,8.23,0,0,0,1.41-.61c.5-.28.93-.52,1.28-.74s.79-.51,1.32-.87l1-.69,11.49-7.39a11.24,11.24,0,0,0,3-2.79A5.67,5.67,0,0,0-41.4-92a3.36,3.36,0,0,0-1.17-2.57,4,4,0,0,0-2.76-1.07H-81.47a3.66,3.66,0,0,0-2.91,1.18,4.38,4.38,0,0,0-1,3A5.09,5.09,0,0,0-84-88.38,11.8,11.8,0,0,0-81.18-85.76Z"/><g class="cls-26"><rect class="cls-6" x="-427.4" y="-443.62" width="1328" height="1168"/></g><path class="cls-29" d="M-261.15,33.69a9,9,0,0,0,3.78-5,16.68,16.68,0,0,1-5.47,2.2A8.39,8.39,0,0,0-269.13,28a8.86,8.86,0,0,0-8.61,9.09,9.44,9.44,0,0,0,.22,2.07,24.07,24.07,0,0,1-17.76-9.5,9.49,9.49,0,0,0-1.17,4.57,9.22,9.22,0,0,0,3.84,7.57,8.29,8.29,0,0,1-3.91-1.14v.11a9,9,0,0,0,6.92,8.91,7.85,7.85,0,0,1-2.28.32,8,8,0,0,1-1.62-.16,8.7,8.7,0,0,0,8.05,6.31A16.71,16.71,0,0,1-296.15,60a17.66,17.66,0,0,1-2.06-.12A23.58,23.58,0,0,0-285,64c15.85,0,24.52-13.85,24.52-25.86,0-.39,0-.79,0-1.17a18.05,18.05,0,0,0,4.29-4.71A16.55,16.55,0,0,1-261.15,33.69Z"/><g class="cls-30"><rect class="cls-5" x="-522.21" y="-80" width="1328" height="1168"/></g><g class="cls-31"><g class="cls-32"><path class="cls-5" d="M44,4A40,40,0,1,1,4,44,40,40,0,0,1,44,4m0-4A44,44,0,1,0,88,44,44,44,0,0,0,44,0Z"/></g></g><path class="cls-29" d="M58.32,32.21a2.62,2.62,0,1,1-2.62-2.62A2.62,2.62,0,0,1,58.32,32.21ZM44,51.38A7.34,7.34,0,1,1,51.38,44,7.34,7.34,0,0,1,44,51.38Zm0-18.64A11.31,11.31,0,1,0,55.35,44,11.3,11.3,0,0,0,44,32.74ZM44,22c-6,0-6.72,0-9.07.13a16.06,16.06,0,0,0-5.34,1,10.81,10.81,0,0,0-3.9,2.53,11,11,0,0,0-2.54,3.9,16.35,16.35,0,0,0-1,5.34C22,37.28,22,38,22,44s0,6.72.13,9.07a16.35,16.35,0,0,0,1,5.34,11,11,0,0,0,2.54,3.9,10.81,10.81,0,0,0,3.9,2.53,16.06,16.06,0,0,0,5.34,1C37.28,66,38,66,44,66s6.72,0,9.07-.13a16.06,16.06,0,0,0,5.34-1,10.81,10.81,0,0,0,3.9-2.53,11,11,0,0,0,2.54-3.9,16.35,16.35,0,0,0,1-5.34C66,50.72,66,50,66,44s0-6.72-.13-9.07a16.35,16.35,0,0,0-1-5.34,11,11,0,0,0-2.54-3.9,10.81,10.81,0,0,0-3.9-2.53,16.06,16.06,0,0,0-5.34-1C50.72,22,50,22,44,22Zm0,4c5.87,0,6.57,0,8.89.13a12.34,12.34,0,0,1,4.09.76A7.28,7.28,0,0,1,61.15,31a12.14,12.14,0,0,1,.76,4.08c.1,2.32.13,3,.13,8.89s0,6.57-.13,8.89A12.14,12.14,0,0,1,61.15,57,7.28,7.28,0,0,1,57,61.15a12.34,12.34,0,0,1-4.09.76c-2.32.1-3,.13-8.89.13s-6.57,0-8.89-.13A12.34,12.34,0,0,1,31,61.15,7.28,7.28,0,0,1,26.85,57a12.14,12.14,0,0,1-.76-4.08C26,50.57,26,49.87,26,44s0-6.57.13-8.89A12.14,12.14,0,0,1,26.85,31,7.28,7.28,0,0,1,31,26.85a12.34,12.34,0,0,1,4.09-.76c2.32-.1,3-.13,8.89-.13"/><g class="cls-33"><rect class="cls-5" x="-440" y="-80" width="1328" height="1168"/><g class="cls-34"><rect class="cls-5" x="12" y="12" width="64" height="64"/></g></g><path class="cls-29" d="M-150.8,64h-8.84V49.94c0-3.68-1.39-6.19-4.43-6.19a4.53,4.53,0,0,0-4.22,3.33,6.64,6.64,0,0,0-.19,2.22V64h-8.76s.11-24.91,0-27.17h8.76v4.26c.52-1.86,3.32-4.53,7.78-4.53,5.54,0,9.9,3.92,9.9,12.33Zm-35.3-30.57h-.05a4.51,4.51,0,0,1-4.65-4.71A4.55,4.55,0,0,1-186,24a4.52,4.52,0,0,1,4.7,4.71A4.54,4.54,0,0,1-186.1,33.43Zm-3.69,3.4H-182V64h-7.79Z"/><g class="cls-36"><rect class="cls-5" x="-1014.8" y="-80" width="1328" height="1168"/></g><path class="cls-29" d="M-43.86,40.3q-8.05,5-12.22,7.84c-.94.63-1.69,1.13-2.28,1.48a14.61,14.61,0,0,1-2.32,1.1,7.52,7.52,0,0,1-2.7.55h0a7.6,7.6,0,0,1-2.7-.55,15.05,15.05,0,0,1-2.32-1.1c-.58-.35-1.34-.85-2.27-1.48Q-74,45.89-82.92,40.3a13.15,13.15,0,0,1-2.48-2v18a3.37,3.37,0,0,0,1.15,2.57A4,4,0,0,0-81.47,60h36.14a3.94,3.94,0,0,0,2.77-1.07,3.38,3.38,0,0,0,1.16-2.57v-18A13.58,13.58,0,0,1-43.86,40.3Zm-37.32-2.44,5,3.24,6.44,4.15,1,.69c.53.36,1,.65,1.33.87s.77.46,1.27.74a8,8,0,0,0,1.42.61,4,4,0,0,0,1.22.2h0a4,4,0,0,0,1.23-.2,8.23,8.23,0,0,0,1.41-.61c.5-.28.93-.52,1.28-.74s.79-.51,1.32-.87l1-.69,11.49-7.39a11.24,11.24,0,0,0,3-2.79,5.67,5.67,0,0,0,1.21-3.43,3.36,3.36,0,0,0-1.17-2.57A4,4,0,0,0-45.33,28H-81.47a3.63,3.63,0,0,0-2.91,1.18,4.37,4.37,0,0,0-1,3A5.09,5.09,0,0,0-84,35.24,11.8,11.8,0,0,0-81.18,37.86Z"/><g class="cls-38"><rect class="cls-5" x="-427.4" y="-320" width="1328" height="1168"/></g><circle class="cls-6" cx="258.8" cy="-198.8" r="44"/><g class="cls-40"><rect class="cls-6" x="-225.2" y="-322.8" width="1328" height="1168"/></g></svg>