<svg id="Layer_1" data-name="Layer 1" xmlns="http://www.w3.org/2000/svg" xmlns:xlink="http://www.w3.org/1999/xlink" viewBox="0 0 88 88"><defs><style>.cls-1{fill:none;}.cls-10,.cls-2,.cls-8{fill:#1a2966;}.cls-2,.cls-3,.cls-4{clip-rule:evenodd;}.cls-19,.cls-3,.cls-6{fill:#dc554f;}.cls-29,.cls-4,.cls-5{fill:#fff;}.cls-7{clip-path:url(#clip-path);}.cls-19,.cls-29,.cls-8{fill-rule:evenodd;}.cls-9{clip-path:url(#clip-path-2);}.cls-11{clip-path:url(#clip-path-3);}.cls-12{clip-path:url(#clip-path-4);}.cls-13{clip-path:url(#clip-path-5);}.cls-14{clip-path:url(#clip-path-6);}.cls-15{clip-path:url(#clip-path-7);}.cls-16{clip-path:url(#clip-path-8);}.cls-17{clip-path:url(#clip-path-9);}.cls-18{clip-path:url(#clip-path-10);}.cls-20{clip-path:url(#clip-path-11);}.cls-21{clip-path:url(#clip-path-12);}.cls-22{clip-path:url(#clip-path-13);}.cls-23{clip-path:url(#clip-path-14);}.cls-24{clip-path:url(#clip-path-15);}.cls-25{clip-path:url(#clip-path-16);}.cls-26{clip-path:url(#clip-path-17);}.cls-27{clip-path:url(#clip-path-18);}.cls-28{clip-path:url(#clip-path-19);}.cls-30{clip-path:url(#clip-path-20);}.cls-31{clip-path:url(#clip-path-21);}.cls-32{clip-path:url(#clip-path-22);}.cls-33{clip-path:url(#clip-path-23);}.cls-34{clip-path:url(#clip-path-24);}.cls-35{clip-path:url(#clip-path-25);}.cls-36{clip-path:url(#clip-path-26);}.cls-37{clip-path:url(#clip-path-27);}.cls-38{clip-path:url(#clip-path-28);}.cls-39{clip-path:url(#clip-path-29);}.cls-40{clip-path:url(#clip-path-30);}</style><clipPath id="clip-path"><circle class="cls-1" cx="-63.4" cy="-198.8" r="44"/></clipPath><clipPath id="clip-path-2"><path class="cls-2" d="M-46.35-209.11a9,9,0,0,0,3.79-5A16.62,16.62,0,0,1-48-211.93a8.35,8.35,0,0,0-6.28-2.87,8.86,8.86,0,0,0-8.62,9.08,9.32,9.32,0,0,0,.22,2.07,24.06,24.06,0,0,1-17.76-9.49,9.48,9.48,0,0,0-1.16,4.57A9.26,9.26,0,0,0-77.81-201a8.35,8.35,0,0,1-3.91-1.14v.11a9,9,0,0,0,6.92,8.91,8.14,8.14,0,0,1-2.27.32,7.81,7.81,0,0,1-1.62-.16,8.68,8.68,0,0,0,8,6.31,16.75,16.75,0,0,1-10.71,3.89,17.36,17.36,0,0,1-2.05-.12,23.53,23.53,0,0,0,13.21,4.08c15.85,0,24.51-13.85,24.51-25.86,0-.39,0-.79,0-1.18a18,18,0,0,0,4.3-4.7A16.7,16.7,0,0,1-46.35-209.11Z"/></clipPath><clipPath id="clip-path-3"><circle class="cls-1" cx="258.8" cy="-198.8" r="44"/></clipPath><clipPath id="clip-path-4"><path class="cls-2" d="M273.12-210.59A2.62,2.62,0,0,1,270.5-208a2.62,2.62,0,0,1-2.62-2.62,2.63,2.63,0,0,1,2.62-2.62A2.62,2.62,0,0,1,273.12-210.59Zm-14.27,19.17a7.34,7.34,0,0,1-7.34-7.34,7.34,7.34,0,0,1,7.34-7.34,7.34,7.34,0,0,1,7.34,7.34A7.34,7.34,0,0,1,258.85-191.42Zm0-18.64a11.3,11.3,0,0,0-11.31,11.3,11.31,11.31,0,0,0,11.31,11.31,11.3,11.3,0,0,0,11.3-11.31A11.3,11.3,0,0,0,258.85-210.06Zm-.05-10.74c-6,0-6.72,0-9.07.13a16.35,16.35,0,0,0-5.34,1,10.81,10.81,0,0,0-3.89,2.54,10.63,10.63,0,0,0-2.54,3.9,15.84,15.84,0,0,0-1,5.34c-.11,2.34-.14,3.09-.14,9.07s0,6.72.14,9.07a15.84,15.84,0,0,0,1,5.34,10.71,10.71,0,0,0,2.54,3.9,10.78,10.78,0,0,0,3.89,2.53,16.06,16.06,0,0,0,5.34,1c2.35.1,3.1.13,9.07.13s6.73,0,9.07-.13a16,16,0,0,0,5.34-1,10.73,10.73,0,0,0,3.9-2.53,10.84,10.84,0,0,0,2.54-3.9,16.35,16.35,0,0,0,1-5.34c.11-2.35.13-3.1.13-9.07s0-6.73-.13-9.07a16.35,16.35,0,0,0-1-5.34,10.76,10.76,0,0,0-2.54-3.9,10.76,10.76,0,0,0-3.9-2.54,16.24,16.24,0,0,0-5.34-1C265.53-220.78,264.78-220.8,258.8-220.8Zm0,4c5.88,0,6.57,0,8.89.13a12.28,12.28,0,0,1,4.09.76,6.79,6.79,0,0,1,2.53,1.64,6.87,6.87,0,0,1,1.64,2.53,12,12,0,0,1,.76,4.09c.11,2.32.13,3,.13,8.89s0,6.57-.13,8.89a12,12,0,0,1-.76,4.08,6.79,6.79,0,0,1-1.64,2.53,6.81,6.81,0,0,1-2.53,1.65,12.28,12.28,0,0,1-4.09.76c-2.32.1-3,.12-8.89.12s-6.57,0-8.89-.12a12.2,12.2,0,0,1-4.08-.76,6.81,6.81,0,0,1-2.53-1.65,6.81,6.81,0,0,1-1.65-2.53,12,12,0,0,1-.75-4.08c-.11-2.32-.13-3-.13-8.89s0-6.57.13-8.89a12.09,12.09,0,0,1,.75-4.09,6.9,6.9,0,0,1,1.65-2.53,6.79,6.79,0,0,1,2.53-1.64,12.2,12.2,0,0,1,4.08-.76c2.32-.11,3-.13,8.89-.13"/></clipPath><clipPath id="clip-path-5"><circle class="cls-1" cx="44" cy="-198.8" r="44"/></clipPath><clipPath id="clip-path-6"><path class="cls-2" d="M64-178.8H55.16v-14.07c0-3.68-1.38-6.19-4.42-6.19a4.55,4.55,0,0,0-4.23,3.33,6.94,6.94,0,0,0-.19,2.22v14.71H37.57s.11-24.91,0-27.18h8.75v4.27c.52-1.87,3.32-4.53,7.79-4.53,5.54,0,9.89,3.91,9.89,12.33ZM28.71-209.37h-.06A4.51,4.51,0,0,1,24-214.08a4.54,4.54,0,0,1,4.76-4.72,4.52,4.52,0,0,1,4.7,4.71A4.54,4.54,0,0,1,28.71-209.37ZM25-206h7.8v27.17H25Z"/></clipPath><clipPath id="clip-path-7"><circle class="cls-1" cx="151.4" cy="-198.8" r="44"/></clipPath><clipPath id="clip-path-8"><path class="cls-2" d="M171-202.51q-8.05,5.06-12.23,7.84c-.93.64-1.69,1.14-2.27,1.49a14.24,14.24,0,0,1-2.32,1.09,7.63,7.63,0,0,1-2.7.56h-.05a7.54,7.54,0,0,1-2.7-.56,13.85,13.85,0,0,1-2.32-1.09c-.59-.35-1.34-.85-2.28-1.49q-3.32-2.25-12.2-7.84a12.73,12.73,0,0,1-2.48-2v18a3.38,3.38,0,0,0,1.16,2.57,3.94,3.94,0,0,0,2.77,1.07h36.14a4,4,0,0,0,2.78-1.07,3.37,3.37,0,0,0,1.15-2.57v-18A13.46,13.46,0,0,1,171-202.51Zm-37.33-2.43,5,3.24c2.8,1.79,4.94,3.18,6.43,4.15.17.1.51.33,1,.69s1,.64,1.33.86.78.47,1.28.74a8.33,8.33,0,0,0,1.41.62,4.37,4.37,0,0,0,1.23.2h.05a4.36,4.36,0,0,0,1.22-.2,8.07,8.07,0,0,0,1.42-.62c.5-.27.92-.52,1.27-.74s.8-.5,1.33-.86l1-.69,11.49-7.39a11,11,0,0,0,3-2.8,5.7,5.7,0,0,0,1.2-3.43,3.36,3.36,0,0,0-1.16-2.56,3.93,3.93,0,0,0-2.77-1.07H133.33a3.63,3.63,0,0,0-2.91,1.18,4.36,4.36,0,0,0-1,3,5.11,5.11,0,0,0,1.35,3.11A12,12,0,0,0,133.62-204.94Z"/></clipPath><clipPath id="clip-path-9"><circle class="cls-1" cx="366.21" cy="-198.8" r="44"/></clipPath><clipPath id="clip-path-10"><circle class="cls-1" cx="-63.4" cy="-79.62" r="44"/></clipPath><clipPath id="clip-path-11"><path class="cls-3" d="M-46.35-89.93a9,9,0,0,0,3.79-5A16.82,16.82,0,0,1-48-92.75a8.35,8.35,0,0,0-6.28-2.87,8.86,8.86,0,0,0-8.62,9.09,9.38,9.38,0,0,0,.22,2.07A24.07,24.07,0,0,1-80.48-94a9.48,9.48,0,0,0-1.16,4.57,9.23,9.23,0,0,0,3.83,7.57A8.35,8.35,0,0,1-81.72-83v.12a9,9,0,0,0,6.92,8.91,8.14,8.14,0,0,1-2.27.32,7.81,7.81,0,0,1-1.62-.17,8.68,8.68,0,0,0,8,6.31,16.75,16.75,0,0,1-10.71,3.89,15.46,15.46,0,0,1-2.05-.12,23.45,23.45,0,0,0,13.21,4.08c15.85,0,24.51-13.85,24.51-25.86,0-.39,0-.78,0-1.17a17.93,17.93,0,0,0,4.3-4.71A16.41,16.41,0,0,1-46.35-89.93Z"/></clipPath><clipPath id="clip-path-12"><circle class="cls-1" cx="258.8" cy="-79.62" r="44"/></clipPath><clipPath id="clip-path-13"><path class="cls-3" d="M273.12-91.4a2.61,2.61,0,0,1-2.62,2.61,2.62,2.62,0,0,1-2.62-2.61A2.62,2.62,0,0,1,270.5-94,2.62,2.62,0,0,1,273.12-91.4ZM258.85-72.24a7.33,7.33,0,0,1-7.34-7.33,7.33,7.33,0,0,1,7.34-7.34,7.34,7.34,0,0,1,7.34,7.34A7.34,7.34,0,0,1,258.85-72.24Zm0-18.64a11.31,11.31,0,0,0-11.31,11.31,11.3,11.3,0,0,0,11.31,11.3,11.3,11.3,0,0,0,11.3-11.3A11.3,11.3,0,0,0,258.85-90.88Zm-.05-10.74c-6,0-6.72,0-9.07.13a16.06,16.06,0,0,0-5.34,1,10.78,10.78,0,0,0-3.89,2.53A10.71,10.71,0,0,0,238-94a15.84,15.84,0,0,0-1,5.34c-.11,2.35-.14,3.1-.14,9.07s0,6.73.14,9.07a15.84,15.84,0,0,0,1,5.34,10.63,10.63,0,0,0,2.54,3.9,10.94,10.94,0,0,0,3.89,2.54,16.35,16.35,0,0,0,5.34,1c2.35.11,3.1.13,9.07.13s6.73,0,9.07-.13a16.24,16.24,0,0,0,5.34-1,10.89,10.89,0,0,0,3.9-2.54,10.76,10.76,0,0,0,2.54-3.9,16.35,16.35,0,0,0,1-5.34c.11-2.34.13-3.09.13-9.07s0-6.72-.13-9.07a16.35,16.35,0,0,0-1-5.34,10.84,10.84,0,0,0-2.54-3.9,10.73,10.73,0,0,0-3.9-2.53,16,16,0,0,0-5.34-1C265.53-101.59,264.78-101.62,258.8-101.62Zm0,4c5.88,0,6.57,0,8.89.12a12.28,12.28,0,0,1,4.09.76,6.81,6.81,0,0,1,2.53,1.65A6.79,6.79,0,0,1,276-92.59a12,12,0,0,1,.76,4.08c.11,2.32.13,3,.13,8.89s0,6.57-.13,8.89a12,12,0,0,1-.76,4.09,6.87,6.87,0,0,1-1.64,2.53,6.79,6.79,0,0,1-2.53,1.64,12.28,12.28,0,0,1-4.09.76c-2.32.11-3,.13-8.89.13s-6.57,0-8.89-.13a12.2,12.2,0,0,1-4.08-.76,6.79,6.79,0,0,1-2.53-1.64,6.9,6.9,0,0,1-1.65-2.53,12.09,12.09,0,0,1-.75-4.09c-.11-2.32-.13-3-.13-8.89s0-6.57.13-8.89a12,12,0,0,1,.75-4.08,6.81,6.81,0,0,1,1.65-2.53,6.81,6.81,0,0,1,2.53-1.65,12.2,12.2,0,0,1,4.08-.76c2.32-.1,3-.12,8.89-.12"/></clipPath><clipPath id="clip-path-14"><circle class="cls-1" cx="44" cy="-79.62" r="44"/></clipPath><clipPath id="clip-path-15"><path class="cls-3" d="M64-59.62H55.16V-73.68c0-3.68-1.38-6.19-4.42-6.19a4.54,4.54,0,0,0-4.23,3.33,6.91,6.91,0,0,0-.19,2.22v14.7H37.57s.11-24.91,0-27.17h8.75v4.26c.52-1.86,3.32-4.52,7.79-4.52C59.65-87,64-83.14,64-74.73ZM28.71-90.19h-.06A4.51,4.51,0,0,1,24-94.9a4.55,4.55,0,0,1,4.76-4.72,4.52,4.52,0,0,1,4.7,4.71A4.54,4.54,0,0,1,28.71-90.19ZM25-86.79h7.8v27.17H25Z"/></clipPath><clipPath id="clip-path-16"><circle class="cls-1" cx="151.4" cy="-79.62" r="44"/></clipPath><clipPath id="clip-path-17"><path class="cls-3" d="M171-83.32q-8.05,5-12.23,7.84c-.93.63-1.69,1.13-2.27,1.49a15.13,15.13,0,0,1-2.32,1.09,7.6,7.6,0,0,1-2.7.55h-.05a7.52,7.52,0,0,1-2.7-.55A14.69,14.69,0,0,1,146.36-74c-.59-.36-1.34-.86-2.28-1.49q-3.32-2.25-12.2-7.84a13.15,13.15,0,0,1-2.48-2v18a3.38,3.38,0,0,0,1.16,2.57,3.9,3.9,0,0,0,2.77,1.07h36.14a3.92,3.92,0,0,0,2.78-1.07,3.37,3.37,0,0,0,1.15-2.57v-18A13.09,13.09,0,0,1,171-83.32Zm-37.33-2.44q.84.56,5,3.24l6.43,4.15,1,.69,1.33.87c.35.22.78.46,1.28.74a8.23,8.23,0,0,0,1.41.61,4,4,0,0,0,1.23.2h.05a4,4,0,0,0,1.22-.2,8,8,0,0,0,1.42-.61c.5-.28.92-.52,1.27-.74s.8-.51,1.33-.87l1-.69,11.49-7.39a11.13,11.13,0,0,0,3-2.79A5.73,5.73,0,0,0,173.4-92a3.38,3.38,0,0,0-1.16-2.57,4,4,0,0,0-2.77-1.07H133.33a3.66,3.66,0,0,0-2.91,1.18,4.38,4.38,0,0,0-1,3,5.09,5.09,0,0,0,1.35,3.1A11.8,11.8,0,0,0,133.62-85.76Z"/></clipPath><clipPath id="clip-path-18"><circle class="cls-1" cx="366.21" cy="-79.62" r="44"/></clipPath><clipPath id="clip-path-19"><circle class="cls-1" cx="-63.4" cy="44" r="44"/></clipPath><clipPath id="clip-path-20"><path class="cls-4" d="M-46.35,33.69a9,9,0,0,0,3.79-5A16.82,16.82,0,0,1-48,30.87,8.35,8.35,0,0,0-54.32,28a8.86,8.86,0,0,0-8.62,9.09,9.44,9.44,0,0,0,.22,2.07,24.07,24.07,0,0,1-17.76-9.5,9.48,9.48,0,0,0-1.16,4.57,9.24,9.24,0,0,0,3.83,7.57,8.35,8.35,0,0,1-3.91-1.14v.11a9,9,0,0,0,6.92,8.91,7.79,7.79,0,0,1-2.27.32,7.81,7.81,0,0,1-1.62-.16,8.68,8.68,0,0,0,8,6.31A16.75,16.75,0,0,1-81.35,60a17.36,17.36,0,0,1-2.05-.12A23.53,23.53,0,0,0-70.19,64c15.85,0,24.51-13.85,24.51-25.86,0-.39,0-.79,0-1.17a18.09,18.09,0,0,0,4.3-4.71A16.7,16.7,0,0,1-46.35,33.69Z"/></clipPath><clipPath id="clip-path-21"><circle class="cls-1" cx="258.8" cy="44" r="44"/></clipPath><clipPath id="clip-path-22"><path class="cls-4" d="M273.12,32.21a2.62,2.62,0,1,1-2.62-2.62A2.62,2.62,0,0,1,273.12,32.21ZM258.85,51.38A7.34,7.34,0,1,1,266.19,44,7.33,7.33,0,0,1,258.85,51.38Zm0-18.64A11.31,11.31,0,1,0,270.15,44,11.3,11.3,0,0,0,258.85,32.74ZM258.8,22c-6,0-6.72,0-9.07.13a16.06,16.06,0,0,0-5.34,1A11.23,11.23,0,0,0,238,29.59a15.84,15.84,0,0,0-1,5.34c-.11,2.35-.14,3.1-.14,9.07s0,6.72.14,9.07a15.84,15.84,0,0,0,1,5.34,11.23,11.23,0,0,0,6.43,6.43,16.06,16.06,0,0,0,5.34,1c2.35.1,3.1.13,9.07.13s6.73,0,9.07-.13a16,16,0,0,0,5.34-1,10.73,10.73,0,0,0,3.9-2.53,10.84,10.84,0,0,0,2.54-3.9,16.35,16.35,0,0,0,1-5.34c.11-2.35.13-3.1.13-9.07s0-6.72-.13-9.07a16.35,16.35,0,0,0-1-5.34,10.84,10.84,0,0,0-2.54-3.9,10.73,10.73,0,0,0-3.9-2.53,16,16,0,0,0-5.34-1C265.53,22,264.78,22,258.8,22Zm0,4c5.88,0,6.57,0,8.89.13a12.28,12.28,0,0,1,4.09.76A7.2,7.2,0,0,1,276,31a11.89,11.89,0,0,1,.76,4.08c.11,2.32.13,3,.13,8.89s0,6.57-.13,8.89A11.89,11.89,0,0,1,276,57a7.2,7.2,0,0,1-4.17,4.18,12.28,12.28,0,0,1-4.09.76c-2.32.1-3,.13-8.89.13s-6.57,0-8.89-.13a12.2,12.2,0,0,1-4.08-.76A7.26,7.26,0,0,1,241.65,57a12,12,0,0,1-.75-4.08c-.11-2.32-.13-3-.13-8.89s0-6.57.13-8.89a12,12,0,0,1,.75-4.08,7.26,7.26,0,0,1,4.18-4.18,12.2,12.2,0,0,1,4.08-.76c2.32-.1,3-.13,8.89-.13"/></clipPath><clipPath id="clip-path-23"><circle class="cls-1" cx="44" cy="44" r="44"/></clipPath><clipPath id="clip-path-24"><rect class="cls-1" x="-800" y="-80" width="1328" height="1168"/></clipPath><clipPath id="clip-path-25"><path class="cls-4" d="M64,64H55.16V49.94c0-3.68-1.38-6.19-4.42-6.19a4.54,4.54,0,0,0-4.23,3.33,6.91,6.91,0,0,0-.19,2.22V64H37.57s.11-24.91,0-27.17h8.75v4.26c.52-1.86,3.32-4.53,7.79-4.53,5.54,0,9.89,3.92,9.89,12.33ZM28.71,33.43h-.06A4.51,4.51,0,0,1,24,28.72,4.55,4.55,0,0,1,28.76,24a4.52,4.52,0,0,1,4.7,4.71A4.54,4.54,0,0,1,28.71,33.43ZM25,36.83h7.8V64H25Z"/></clipPath><clipPath id="clip-path-26"><rect class="cls-5" x="-800" y="-80" width="1328" height="1168"/></clipPath><clipPath id="clip-path-27"><circle class="cls-1" cx="151.4" cy="44" r="44"/></clipPath><clipPath id="clip-path-28"><path class="cls-4" d="M171,40.3q-8.05,5-12.23,7.84c-.93.63-1.69,1.13-2.27,1.48a15.05,15.05,0,0,1-2.32,1.1,7.6,7.6,0,0,1-2.7.55h-.05a7.52,7.52,0,0,1-2.7-.55,14.61,14.61,0,0,1-2.32-1.1c-.59-.35-1.34-.85-2.28-1.48q-3.32-2.25-12.2-7.84a13.15,13.15,0,0,1-2.48-2v18a3.38,3.38,0,0,0,1.16,2.57A3.94,3.94,0,0,0,133.33,60h36.14a4,4,0,0,0,2.78-1.07,3.37,3.37,0,0,0,1.15-2.57v-18A13.5,13.5,0,0,1,171,40.3Zm-37.33-2.44,5,3.24,6.43,4.15,1,.69,1.33.87c.35.22.78.46,1.28.74a8.23,8.23,0,0,0,1.41.61,4,4,0,0,0,1.23.2h.05a4,4,0,0,0,1.22-.2,8,8,0,0,0,1.42-.61c.5-.28.92-.52,1.27-.74s.8-.51,1.33-.87l1-.69,11.49-7.39a11.13,11.13,0,0,0,3-2.79,5.73,5.73,0,0,0,1.2-3.43,3.38,3.38,0,0,0-1.16-2.57A4,4,0,0,0,169.47,28H133.33a3.63,3.63,0,0,0-2.91,1.18,4.37,4.37,0,0,0-1,3,5.09,5.09,0,0,0,1.35,3.1A11.8,11.8,0,0,0,133.62,37.86Z"/></clipPath><clipPath id="clip-path-29"><circle class="cls-1" cx="366.21" cy="44" r="44"/></clipPath><clipPath id="clip-path-30"><circle class="cls-6" cx="473.61" cy="-198.8" r="44"/></clipPath></defs><path class="cls-8" d="M-46.35-209.11a9,9,0,0,0,3.79-5A16.62,16.62,0,0,1-48-211.93a8.35,8.35,0,0,0-6.28-2.87,8.86,8.86,0,0,0-8.62,9.08,9.32,9.32,0,0,0,.22,2.07,24.06,24.06,0,0,1-17.76-9.49,9.48,9.48,0,0,0-1.16,4.57A9.26,9.26,0,0,0-77.81-201a8.35,8.35,0,0,1-3.91-1.14v.11a9,9,0,0,0,6.92,8.91,8.14,8.14,0,0,1-2.27.32,7.81,7.81,0,0,1-1.62-.16,8.68,8.68,0,0,0,8,6.31,16.75,16.75,0,0,1-10.71,3.89,17.36,17.36,0,0,1-2.05-.12,23.53,23.53,0,0,0,13.21,4.08c15.85,0,24.51-13.85,24.51-25.86,0-.39,0-.79,0-1.18a18,18,0,0,0,4.3-4.7A16.7,16.7,0,0,1-46.35-209.11Z"/><g class="cls-9"><rect class="cls-10" x="-307.4" y="-322.8" width="1328" height="1168"/></g><path class="cls-8" d="M273.12-210.59A2.62,2.62,0,0,1,270.5-208a2.62,2.62,0,0,1-2.62-2.62,2.63,2.63,0,0,1,2.62-2.62A2.62,2.62,0,0,1,273.12-210.59Zm-14.27,19.17a7.34,7.34,0,0,1-7.34-7.34,7.34,7.34,0,0,1,7.34-7.34,7.34,7.34,0,0,1,7.34,7.34A7.34,7.34,0,0,1,258.85-191.42Zm0-18.64a11.3,11.3,0,0,0-11.31,11.3,11.31,11.31,0,0,0,11.31,11.31,11.3,11.3,0,0,0,11.3-11.31A11.3,11.3,0,0,0,258.85-210.06Zm-.05-10.74c-6,0-6.72,0-9.07.13a16.35,16.35,0,0,0-5.34,1,10.81,10.81,0,0,0-3.89,2.54,10.63,10.63,0,0,0-2.54,3.9,15.84,15.84,0,0,0-1,5.34c-.11,2.34-.14,3.09-.14,9.07s0,6.72.14,9.07a15.84,15.84,0,0,0,1,5.34,10.71,10.71,0,0,0,2.54,3.9,10.78,10.78,0,0,0,3.89,2.53,16.06,16.06,0,0,0,5.34,1c2.35.1,3.1.13,9.07.13s6.73,0,9.07-.13a16,16,0,0,0,5.34-1,10.73,10.73,0,0,0,3.9-2.53,10.84,10.84,0,0,0,2.54-3.9,16.35,16.35,0,0,0,1-5.34c.11-2.35.13-3.1.13-9.07s0-6.73-.13-9.07a16.35,16.35,0,0,0-1-5.34,10.76,10.76,0,0,0-2.54-3.9,10.76,10.76,0,0,0-3.9-2.54,16.24,16.24,0,0,0-5.34-1C265.53-220.78,264.78-220.8,258.8-220.8Zm0,4c5.88,0,6.57,0,8.89.13a12.28,12.28,0,0,1,4.09.76,6.79,6.79,0,0,1,2.53,1.64,6.87,6.87,0,0,1,1.64,2.53,12,12,0,0,1,.76,4.09c.11,2.32.13,3,.13,8.89s0,6.57-.13,8.89a12,12,0,0,1-.76,4.08,6.79,6.79,0,0,1-1.64,2.53,6.81,6.81,0,0,1-2.53,1.65,12.28,12.28,0,0,1-4.09.76c-2.32.1-3,.12-8.89.12s-6.57,0-8.89-.12a12.2,12.2,0,0,1-4.08-.76,6.81,6.81,0,0,1-2.53-1.65,6.81,6.81,0,0,1-1.65-2.53,12,12,0,0,1-.75-4.08c-.11-2.32-.13-3-.13-8.89s0-6.57.13-8.89a12.09,12.09,0,0,1,.75-4.09,6.9,6.9,0,0,1,1.65-2.53,6.79,6.79,0,0,1,2.53-1.64,12.2,12.2,0,0,1,4.08-.76c2.32-.11,3-.13,8.89-.13"/><g class="cls-12"><rect class="cls-10" x="-225.2" y="-322.8" width="1328" height="1168"/></g><path class="cls-8" d="M64-178.8H55.16v-14.07c0-3.68-1.38-6.19-4.42-6.19a4.55,4.55,0,0,0-4.23,3.33,6.94,6.94,0,0,0-.19,2.22v14.71H37.57s.11-24.91,0-27.18h8.75v4.27c.52-1.87,3.32-4.53,7.79-4.53,5.54,0,9.89,3.91,9.89,12.33ZM28.71-209.37h-.06A4.51,4.51,0,0,1,24-214.08a4.54,4.54,0,0,1,4.76-4.72,4.52,4.52,0,0,1,4.7,4.71A4.54,4.54,0,0,1,28.71-209.37ZM25-206h7.8v27.17H25Z"/><g class="cls-14"><rect class="cls-10" x="-800" y="-322.8" width="1328" height="1168"/></g><path class="cls-8" d="M171-202.51q-8.05,5.06-12.23,7.84c-.93.64-1.69,1.14-2.27,1.49a14.24,14.24,0,0,1-2.32,1.09,7.63,7.63,0,0,1-2.7.56h-.05a7.54,7.54,0,0,1-2.7-.56,13.85,13.85,0,0,1-2.32-1.09c-.59-.35-1.34-.85-2.28-1.49q-3.32-2.25-12.2-7.84a12.73,12.73,0,0,1-2.48-2v18a3.38,3.38,0,0,0,1.16,2.57,3.94,3.94,0,0,0,2.77,1.07h36.14a4,4,0,0,0,2.78-1.07,3.37,3.37,0,0,0,1.15-2.57v-18A13.46,13.46,0,0,1,171-202.51Zm-37.33-2.43,5,3.24c2.8,1.79,4.94,3.18,6.43,4.15.17.1.51.33,1,.69s1,.64,1.33.86.78.47,1.28.74a8.33,8.33,0,0,0,1.41.62,4.37,4.37,0,0,0,1.23.2h.05a4.36,4.36,0,0,0,1.22-.2,8.07,8.07,0,0,0,1.42-.62c.5-.27.92-.52,1.27-.74s.8-.5,1.33-.86l1-.69,11.49-7.39a11,11,0,0,0,3-2.8,5.7,5.7,0,0,0,1.2-3.43,3.36,3.36,0,0,0-1.16-2.56,3.93,3.93,0,0,0-2.77-1.07H133.33a3.63,3.63,0,0,0-2.91,1.18,4.36,4.36,0,0,0-1,3,5.11,5.11,0,0,0,1.35,3.11A12,12,0,0,0,133.62-204.94Z"/><g class="cls-16"><rect class="cls-10" x="-212.6" y="-562.8" width="1328" height="1168"/></g><path class="cls-19" d="M-46.35-89.93a9,9,0,0,0,3.79-5A16.82,16.82,0,0,1-48-92.75a8.35,8.35,0,0,0-6.28-2.87,8.86,8.86,0,0,0-8.62,9.09,9.38,9.38,0,0,0,.22,2.07A24.07,24.07,0,0,1-80.48-94a9.48,9.48,0,0,0-1.16,4.57,9.23,9.23,0,0,0,3.83,7.57A8.35,8.35,0,0,1-81.72-83v.12a9,9,0,0,0,6.92,8.91,8.14,8.14,0,0,1-2.27.32,7.81,7.81,0,0,1-1.62-.17,8.68,8.68,0,0,0,8,6.31,16.75,16.75,0,0,1-10.71,3.89,15.46,15.46,0,0,1-2.05-.12,23.45,23.45,0,0,0,13.21,4.08c15.85,0,24.51-13.85,24.51-25.86,0-.39,0-.78,0-1.17a17.93,17.93,0,0,0,4.3-4.71A16.41,16.41,0,0,1-46.35-89.93Z"/><g class="cls-20"><rect class="cls-6" x="-307.4" y="-203.62" width="1328" height="1168"/></g><path class="cls-19" d="M273.12-91.4a2.61,2.61,0,0,1-2.62,2.61,2.62,2.62,0,0,1-2.62-2.61A2.62,2.62,0,0,1,270.5-94,2.62,2.62,0,0,1,273.12-91.4ZM258.85-72.24a7.33,7.33,0,0,1-7.34-7.33,7.33,7.33,0,0,1,7.34-7.34,7.34,7.34,0,0,1,7.34,7.34A7.34,7.34,0,0,1,258.85-72.24Zm0-18.64a11.31,11.31,0,0,0-11.31,11.31,11.3,11.3,0,0,0,11.31,11.3,11.3,11.3,0,0,0,11.3-11.3A11.3,11.3,0,0,0,258.85-90.88Zm-.05-10.74c-6,0-6.72,0-9.07.13a16.06,16.06,0,0,0-5.34,1,10.78,10.78,0,0,0-3.89,2.53A10.71,10.71,0,0,0,238-94a15.84,15.84,0,0,0-1,5.34c-.11,2.35-.14,3.1-.14,9.07s0,6.73.14,9.07a15.84,15.84,0,0,0,1,5.34,10.63,10.63,0,0,0,2.54,3.9,10.94,10.94,0,0,0,3.89,2.54,16.35,16.35,0,0,0,5.34,1c2.35.11,3.1.13,9.07.13s6.73,0,9.07-.13a16.24,16.24,0,0,0,5.34-1,10.89,10.89,0,0,0,3.9-2.54,10.76,10.76,0,0,0,2.54-3.9,16.35,16.35,0,0,0,1-5.34c.11-2.34.13-3.09.13-9.07s0-6.72-.13-9.07a16.35,16.35,0,0,0-1-5.34,10.84,10.84,0,0,0-2.54-3.9,10.73,10.73,0,0,0-3.9-2.53,16,16,0,0,0-5.34-1C265.53-101.59,264.78-101.62,258.8-101.62Zm0,4c5.88,0,6.57,0,8.89.12a12.28,12.28,0,0,1,4.09.76,6.81,6.81,0,0,1,2.53,1.65A6.79,6.79,0,0,1,276-92.59a12,12,0,0,1,.76,4.08c.11,2.32.13,3,.13,8.89s0,6.57-.13,8.89a12,12,0,0,1-.76,4.09,6.87,6.87,0,0,1-1.64,2.53,6.79,6.79,0,0,1-2.53,1.64,12.28,12.28,0,0,1-4.09.76c-2.32.11-3,.13-8.89.13s-6.57,0-8.89-.13a12.2,12.2,0,0,1-4.08-.76,6.79,6.79,0,0,1-2.53-1.64,6.9,6.9,0,0,1-1.65-2.53,12.09,12.09,0,0,1-.75-4.09c-.11-2.32-.13-3-.13-8.89s0-6.57.13-8.89a12,12,0,0,1,.75-4.08,6.81,6.81,0,0,1,1.65-2.53,6.81,6.81,0,0,1,2.53-1.65,12.2,12.2,0,0,1,4.08-.76c2.32-.1,3-.12,8.89-.12"/><g class="cls-22"><rect class="cls-6" x="-225.2" y="-203.62" width="1328" height="1168"/></g><path class="cls-19" d="M64-59.62H55.16V-73.68c0-3.68-1.38-6.19-4.42-6.19a4.54,4.54,0,0,0-4.23,3.33,6.91,6.91,0,0,0-.19,2.22v14.7H37.57s.11-24.91,0-27.17h8.75v4.26c.52-1.86,3.32-4.52,7.79-4.52C59.65-87,64-83.14,64-74.73ZM28.71-90.19h-.06A4.51,4.51,0,0,1,24-94.9a4.55,4.55,0,0,1,4.76-4.72,4.52,4.52,0,0,1,4.7,4.71A4.54,4.54,0,0,1,28.71-90.19ZM25-86.79h7.8v27.17H25Z"/><g class="cls-24"><rect class="cls-6" x="-800" y="-203.62" width="1328" height="1168"/></g><path class="cls-19" d="M171-83.32q-8.05,5-12.23,7.84c-.93.63-1.69,1.13-2.27,1.49a15.13,15.13,0,0,1-2.32,1.09,7.6,7.6,0,0,1-2.7.55h-.05a7.52,7.52,0,0,1-2.7-.55A14.69,14.69,0,0,1,146.36-74c-.59-.36-1.34-.86-2.28-1.49q-3.32-2.25-12.2-7.84a13.15,13.15,0,0,1-2.48-2v18a3.38,3.38,0,0,0,1.16,2.57,3.9,3.9,0,0,0,2.77,1.07h36.14a3.92,3.92,0,0,0,2.78-1.07,3.37,3.37,0,0,0,1.15-2.57v-18A13.09,13.09,0,0,1,171-83.32Zm-37.33-2.44q.84.56,5,3.24l6.43,4.15,1,.69,1.33.87c.35.22.78.46,1.28.74a8.23,8.23,0,0,0,1.41.61,4,4,0,0,0,1.23.2h.05a4,4,0,0,0,1.22-.2,8,8,0,0,0,1.42-.61c.5-.28.92-.52,1.27-.74s.8-.51,1.33-.87l1-.69,11.49-7.39a11.13,11.13,0,0,0,3-2.79A5.73,5.73,0,0,0,173.4-92a3.38,3.38,0,0,0-1.16-2.57,4,4,0,0,0-2.77-1.07H133.33a3.66,3.66,0,0,0-2.91,1.18,4.38,4.38,0,0,0-1,3,5.09,5.09,0,0,0,1.35,3.1A11.8,11.8,0,0,0,133.62-85.76Z"/><g class="cls-26"><rect class="cls-6" x="-212.6" y="-443.62" width="1328" height="1168"/></g><path class="cls-29" d="M-46.35,33.69a9,9,0,0,0,3.79-5A16.82,16.82,0,0,1-48,30.87,8.35,8.35,0,0,0-54.32,28a8.86,8.86,0,0,0-8.62,9.09,9.44,9.44,0,0,0,.22,2.07,24.07,24.07,0,0,1-17.76-9.5,9.48,9.48,0,0,0-1.16,4.57,9.24,9.24,0,0,0,3.83,7.57,8.35,8.35,0,0,1-3.91-1.14v.11a9,9,0,0,0,6.92,8.91,7.79,7.79,0,0,1-2.27.32,7.81,7.81,0,0,1-1.62-.16,8.68,8.68,0,0,0,8,6.31A16.75,16.75,0,0,1-81.35,60a17.36,17.36,0,0,1-2.05-.12A23.53,23.53,0,0,0-70.19,64c15.85,0,24.51-13.85,24.51-25.86,0-.39,0-.79,0-1.17a18.09,18.09,0,0,0,4.3-4.71A16.7,16.7,0,0,1-46.35,33.69Z"/><g class="cls-30"><rect class="cls-5" x="-307.4" y="-80" width="1328" height="1168"/></g><path class="cls-29" d="M273.12,32.21a2.62,2.62,0,1,1-2.62-2.62A2.62,2.62,0,0,1,273.12,32.21ZM258.85,51.38A7.34,7.34,0,1,1,266.19,44,7.33,7.33,0,0,1,258.85,51.38Zm0-18.64A11.31,11.31,0,1,0,270.15,44,11.3,11.3,0,0,0,258.85,32.74ZM258.8,22c-6,0-6.72,0-9.07.13a16.06,16.06,0,0,0-5.34,1A11.23,11.23,0,0,0,238,29.59a15.84,15.84,0,0,0-1,5.34c-.11,2.35-.14,3.1-.14,9.07s0,6.72.14,9.07a15.84,15.84,0,0,0,1,5.34,11.23,11.23,0,0,0,6.43,6.43,16.06,16.06,0,0,0,5.34,1c2.35.1,3.1.13,9.07.13s6.73,0,9.07-.13a16,16,0,0,0,5.34-1,10.73,10.73,0,0,0,3.9-2.53,10.84,10.84,0,0,0,2.54-3.9,16.35,16.35,0,0,0,1-5.34c.11-2.35.13-3.1.13-9.07s0-6.72-.13-9.07a16.35,16.35,0,0,0-1-5.34,10.84,10.84,0,0,0-2.54-3.9,10.73,10.73,0,0,0-3.9-2.53,16,16,0,0,0-5.34-1C265.53,22,264.78,22,258.8,22Zm0,4c5.88,0,6.57,0,8.89.13a12.28,12.28,0,0,1,4.09.76A7.2,7.2,0,0,1,276,31a11.89,11.89,0,0,1,.76,4.08c.11,2.32.13,3,.13,8.89s0,6.57-.13,8.89A11.89,11.89,0,0,1,276,57a7.2,7.2,0,0,1-4.17,4.18,12.28,12.28,0,0,1-4.09.76c-2.32.1-3,.13-8.89.13s-6.57,0-8.89-.13a12.2,12.2,0,0,1-4.08-.76A7.26,7.26,0,0,1,241.65,57a12,12,0,0,1-.75-4.08c-.11-2.32-.13-3-.13-8.89s0-6.57.13-8.89a12,12,0,0,1,.75-4.08,7.26,7.26,0,0,1,4.18-4.18,12.2,12.2,0,0,1,4.08-.76c2.32-.1,3-.13,8.89-.13"/><g class="cls-32"><rect class="cls-5" x="-225.2" y="-80" width="1328" height="1168"/></g><g class="cls-33"><g class="cls-34"><path class="cls-5" d="M44,4A40,40,0,1,1,4,44,40,40,0,0,1,44,4m0-4A44,44,0,1,0,88,44,44,44,0,0,0,44,0Z"/></g></g><path class="cls-29" d="M64,64H55.16V49.94c0-3.68-1.38-6.19-4.42-6.19a4.54,4.54,0,0,0-4.23,3.33,6.91,6.91,0,0,0-.19,2.22V64H37.57s.11-24.91,0-27.17h8.75v4.26c.52-1.86,3.32-4.53,7.79-4.53,5.54,0,9.89,3.92,9.89,12.33ZM28.71,33.43h-.06A4.51,4.51,0,0,1,24,28.72,4.55,4.55,0,0,1,28.76,24a4.52,4.52,0,0,1,4.7,4.71A4.54,4.54,0,0,1,28.71,33.43ZM25,36.83h7.8V64H25Z"/><g class="cls-35"><rect class="cls-5" x="-800" y="-80" width="1328" height="1168"/><g class="cls-36"><rect class="cls-5" x="14" y="14" width="60" height="60"/></g></g><path class="cls-29" d="M171,40.3q-8.05,5-12.23,7.84c-.93.63-1.69,1.13-2.27,1.48a15.05,15.05,0,0,1-2.32,1.1,7.6,7.6,0,0,1-2.7.55h-.05a7.52,7.52,0,0,1-2.7-.55,14.61,14.61,0,0,1-2.32-1.1c-.59-.35-1.34-.85-2.28-1.48q-3.32-2.25-12.2-7.84a13.15,13.15,0,0,1-2.48-2v18a3.38,3.38,0,0,0,1.16,2.57A3.94,3.94,0,0,0,133.33,60h36.14a4,4,0,0,0,2.78-1.07,3.37,3.37,0,0,0,1.15-2.57v-18A13.5,13.5,0,0,1,171,40.3Zm-37.33-2.44,5,3.24,6.43,4.15,1,.69,1.33.87c.35.22.78.46,1.28.74a8.23,8.23,0,0,0,1.41.61,4,4,0,0,0,1.23.2h.05a4,4,0,0,0,1.22-.2,8,8,0,0,0,1.42-.61c.5-.28.92-.52,1.27-.74s.8-.51,1.33-.87l1-.69,11.49-7.39a11.13,11.13,0,0,0,3-2.79,5.73,5.73,0,0,0,1.2-3.43,3.38,3.38,0,0,0-1.16-2.57A4,4,0,0,0,169.47,28H133.33a3.63,3.63,0,0,0-2.91,1.18,4.37,4.37,0,0,0-1,3,5.09,5.09,0,0,0,1.35,3.1A11.8,11.8,0,0,0,133.62,37.86Z"/><g class="cls-38"><rect class="cls-5" x="-212.6" y="-320" width="1328" height="1168"/></g><circle class="cls-6" cx="473.61" cy="-198.8" r="44"/><g class="cls-40"><rect class="cls-6" x="-10.39" y="-322.8" width="1328" height="1168"/></g></svg>