<svg id="Layer_1" data-name="Layer 1" xmlns="http://www.w3.org/2000/svg" xmlns:xlink="http://www.w3.org/1999/xlink" viewBox="0 0 88 88"><defs><style>.cls-1,.cls-4{fill:none;}.cls-10,.cls-2,.cls-8{fill:#1a2966;}.cls-2,.cls-3,.cls-5{clip-rule:evenodd;}.cls-20,.cls-3,.cls-6{fill:#dc554f;}.cls-4{stroke:#fff;stroke-miterlimit:10;}.cls-30,.cls-32,.cls-5{fill:#fff;}.cls-7{clip-path:url(#clip-path);}.cls-20,.cls-30,.cls-8{fill-rule:evenodd;}.cls-9{clip-path:url(#clip-path-2);}.cls-11{clip-path:url(#clip-path-3);}.cls-12{clip-path:url(#clip-path-4);}.cls-13{clip-path:url(#clip-path-5);}.cls-14{clip-path:url(#clip-path-6);}.cls-15{clip-path:url(#clip-path-7);}.cls-16{clip-path:url(#clip-path-8);}.cls-17{clip-path:url(#clip-path-9);}.cls-18{clip-path:url(#clip-path-10);}.cls-19{clip-path:url(#clip-path-11);}.cls-21{clip-path:url(#clip-path-12);}.cls-22{clip-path:url(#clip-path-13);}.cls-23{clip-path:url(#clip-path-14);}.cls-24{clip-path:url(#clip-path-15);}.cls-25{clip-path:url(#clip-path-16);}.cls-26{clip-path:url(#clip-path-17);}.cls-27{clip-path:url(#clip-path-18);}.cls-28{clip-path:url(#clip-path-19);}.cls-29{clip-path:url(#clip-path-20);}.cls-31{clip-path:url(#clip-path-21);}.cls-33{clip-path:url(#clip-path-22);}</style><clipPath id="clip-path"><circle class="cls-1" cx="-385.61" cy="44" r="44"/></clipPath><clipPath id="clip-path-2"><path class="cls-2" d="M-368.56,33.69a9,9,0,0,0,3.79-5,16.86,16.86,0,0,1-5.47,2.2A8.39,8.39,0,0,0-376.53,28a8.86,8.86,0,0,0-8.61,9.09,9.44,9.44,0,0,0,.22,2.07,24.07,24.07,0,0,1-17.76-9.5,9.38,9.38,0,0,0-1.17,4.57A9.24,9.24,0,0,0-400,41.8a8.28,8.28,0,0,1-3.9-1.14v.11A9,9,0,0,0-397,49.68a7.74,7.74,0,0,1-2.27.32,7.88,7.88,0,0,1-1.62-.16,8.7,8.7,0,0,0,8,6.31A16.73,16.73,0,0,1-403.55,60a17.53,17.53,0,0,1-2.06-.12A23.56,23.56,0,0,0-392.4,64c15.85,0,24.52-13.85,24.52-25.86,0-.39,0-.79,0-1.17a17.91,17.91,0,0,0,4.3-4.71A16.53,16.53,0,0,1-368.56,33.69Z"/></clipPath><clipPath id="clip-path-3"><circle class="cls-1" cx="-63.4" cy="44" r="44"/></clipPath><clipPath id="clip-path-4"><path class="cls-2" d="M-49.08,32.21a2.62,2.62,0,0,1-2.62,2.62,2.62,2.62,0,0,1-2.62-2.62,2.62,2.62,0,0,1,2.62-2.62A2.63,2.63,0,0,1-49.08,32.21ZM-63.36,51.38A7.34,7.34,0,0,1-70.7,44a7.34,7.34,0,0,1,7.34-7.34A7.34,7.34,0,0,1-56,44,7.34,7.34,0,0,1-63.36,51.38Zm0-18.64A11.3,11.3,0,0,0-74.66,44a11.3,11.3,0,0,0,11.3,11.31A11.31,11.31,0,0,0-52,44,11.3,11.3,0,0,0-63.36,32.74Zm0-10.74c-6,0-6.73,0-9.07.13a16.06,16.06,0,0,0-5.34,1,10.73,10.73,0,0,0-3.9,2.53,11,11,0,0,0-2.54,3.9,16.35,16.35,0,0,0-1,5.34c-.11,2.35-.13,3.1-.13,9.07s0,6.72.13,9.07a16.35,16.35,0,0,0,1,5.34,11,11,0,0,0,2.54,3.9,10.73,10.73,0,0,0,3.9,2.53,16.06,16.06,0,0,0,5.34,1c2.34.1,3.09.13,9.07.13s6.72,0,9.07-.13a16.06,16.06,0,0,0,5.34-1,10.81,10.81,0,0,0,3.9-2.53,10.81,10.81,0,0,0,2.53-3.9,16.06,16.06,0,0,0,1-5.34c.1-2.35.13-3.1.13-9.07s0-6.72-.13-9.07a16.06,16.06,0,0,0-1-5.34,10.81,10.81,0,0,0-2.53-3.9A10.81,10.81,0,0,0-49,23.16a16.06,16.06,0,0,0-5.34-1C-56.68,22-57.43,22-63.4,22Zm0,4c5.87,0,6.57,0,8.89.13a12.2,12.2,0,0,1,4.08.76,6.92,6.92,0,0,1,2.53,1.64A6.93,6.93,0,0,1-46.25,31a12.14,12.14,0,0,1,.76,4.08c.1,2.32.12,3,.12,8.89s0,6.57-.12,8.89A12.14,12.14,0,0,1-46.25,57a6.93,6.93,0,0,1-1.65,2.54,6.92,6.92,0,0,1-2.53,1.64,12.2,12.2,0,0,1-4.08.76c-2.32.1-3,.13-8.89.13s-6.57,0-8.89-.13a12.28,12.28,0,0,1-4.09-.76,7,7,0,0,1-2.53-1.64A6.91,6.91,0,0,1-80.55,57a12.14,12.14,0,0,1-.76-4.08c-.11-2.32-.13-3-.13-8.89s0-6.57.13-8.89A12.14,12.14,0,0,1-80.55,31a6.91,6.91,0,0,1,1.64-2.54,7,7,0,0,1,2.53-1.64,12.28,12.28,0,0,1,4.09-.76c2.32-.1,3-.13,8.89-.13"/></clipPath><clipPath id="clip-path-5"><circle class="cls-1" cx="-278.21" cy="44" r="44"/></clipPath><clipPath id="clip-path-6"><path class="cls-2" d="M-258.21,64H-267V49.94c0-3.68-1.38-6.19-4.42-6.19a4.52,4.52,0,0,0-4.22,3.33,6.64,6.64,0,0,0-.19,2.22V64h-8.76s.11-24.91,0-27.17h8.76v4.26c.52-1.86,3.31-4.53,7.78-4.53,5.54,0,9.89,3.92,9.89,12.33ZM-293.5,33.43h-.05a4.51,4.51,0,0,1-4.66-4.71A4.55,4.55,0,0,1-293.44,24a4.53,4.53,0,0,1,4.7,4.71A4.55,4.55,0,0,1-293.5,33.43Zm-3.7,3.4h7.8V64h-7.8Z"/></clipPath><clipPath id="clip-path-7"><circle class="cls-1" cx="-170.8" cy="44" r="44"/></clipPath><clipPath id="clip-path-8"><path class="cls-2" d="M-151.26,40.3q-8.06,5-12.23,7.84c-.93.63-1.69,1.13-2.27,1.48a14.61,14.61,0,0,1-2.32,1.1,7.52,7.52,0,0,1-2.7.55h-.05a7.6,7.6,0,0,1-2.7-.55,15.05,15.05,0,0,1-2.32-1.1c-.58-.35-1.34-.85-2.27-1.48q-3.31-2.25-12.2-7.84a12.84,12.84,0,0,1-2.48-2v18a3.37,3.37,0,0,0,1.15,2.57A3.94,3.94,0,0,0-188.88,60h36.15A3.94,3.94,0,0,0-150,58.93a3.38,3.38,0,0,0,1.16-2.57v-18A13.93,13.93,0,0,1-151.26,40.3Zm-37.32-2.44c.56.37,2.23,1.45,5,3.24l6.44,4.15,1,.69q.8.54,1.32.87c.36.22.78.46,1.28.74a8.23,8.23,0,0,0,1.41.61,4.14,4.14,0,0,0,1.23.2h.05a4,4,0,0,0,1.23-.2,8.23,8.23,0,0,0,1.41-.61c.5-.28.93-.52,1.28-.74s.79-.51,1.32-.87l1-.69L-153,37.86a11.24,11.24,0,0,0,3-2.79,5.67,5.67,0,0,0,1.21-3.43A3.36,3.36,0,0,0-150,29.07,4,4,0,0,0-152.73,28h-36.15a3.59,3.59,0,0,0-2.9,1.18,4.37,4.37,0,0,0-1,3,5.09,5.09,0,0,0,1.35,3.1A11.62,11.62,0,0,0-188.58,37.86Z"/></clipPath><clipPath id="clip-path-9"><circle class="cls-1" cx="44" cy="44" r="44"/></clipPath><clipPath id="clip-path-10"><rect class="cls-1" x="-440" y="-80" width="1328" height="1168"/></clipPath><clipPath id="clip-path-11"><circle class="cls-1" cx="-385.61" cy="163.18" r="44"/></clipPath><clipPath id="clip-path-12"><path class="cls-3" d="M-368.56,152.88a9.06,9.06,0,0,0,3.79-5,16.64,16.64,0,0,1-5.47,2.2,8.42,8.42,0,0,0-6.29-2.87,8.86,8.86,0,0,0-8.61,9.09,9.38,9.38,0,0,0,.22,2.07,24.06,24.06,0,0,1-17.76-9.49,9.32,9.32,0,0,0-1.17,4.57A9.22,9.22,0,0,0-400,161a8.27,8.27,0,0,1-3.9-1.13V160a9,9,0,0,0,6.91,8.91,8.09,8.09,0,0,1-2.27.32,8.64,8.64,0,0,1-1.62-.16,8.7,8.7,0,0,0,8,6.31,16.73,16.73,0,0,1-10.7,3.89,15.61,15.61,0,0,1-2.06-.13,23.48,23.48,0,0,0,13.21,4.08c15.85,0,24.52-13.84,24.52-25.85,0-.4,0-.79,0-1.18a17.87,17.87,0,0,0,4.3-4.7A16.53,16.53,0,0,1-368.56,152.88Z"/></clipPath><clipPath id="clip-path-13"><circle class="cls-1" cx="-63.4" cy="163.18" r="44"/></clipPath><clipPath id="clip-path-14"><path class="cls-3" d="M-49.08,151.4A2.62,2.62,0,0,1-51.7,154a2.62,2.62,0,0,1-2.62-2.62,2.62,2.62,0,0,1,2.62-2.62A2.62,2.62,0,0,1-49.08,151.4Zm-14.28,19.17a7.34,7.34,0,0,1-7.34-7.34,7.34,7.34,0,0,1,7.34-7.34A7.34,7.34,0,0,1-56,163.23,7.34,7.34,0,0,1-63.36,170.57Zm0-18.65a11.3,11.3,0,0,0-11.3,11.31,11.3,11.3,0,0,0,11.3,11.3A11.3,11.3,0,0,0-52,163.23,11.31,11.31,0,0,0-63.36,151.92Zm0-10.74c-6,0-6.73,0-9.07.14a15.84,15.84,0,0,0-5.34,1,10.63,10.63,0,0,0-3.9,2.54,10.94,10.94,0,0,0-2.54,3.89,16.35,16.35,0,0,0-1,5.34c-.11,2.35-.13,3.1-.13,9.07s0,6.73.13,9.08a16.35,16.35,0,0,0,1,5.34,10.94,10.94,0,0,0,2.54,3.89,10.63,10.63,0,0,0,3.9,2.54,16.09,16.09,0,0,0,5.34,1c2.34.11,3.09.13,9.07.13s6.72,0,9.07-.13A16.09,16.09,0,0,0-49,184a10.71,10.71,0,0,0,3.9-2.54,10.78,10.78,0,0,0,2.53-3.89,16.06,16.06,0,0,0,1-5.34c.1-2.35.13-3.1.13-9.08s0-6.72-.13-9.07a16.06,16.06,0,0,0-1-5.34,10.78,10.78,0,0,0-2.53-3.89,10.71,10.71,0,0,0-3.9-2.54,15.84,15.84,0,0,0-5.34-1C-56.68,141.21-57.43,141.18-63.4,141.18Zm0,4c5.87,0,6.57,0,8.89.13a12,12,0,0,1,4.08.75,6.81,6.81,0,0,1,2.53,1.65,6.81,6.81,0,0,1,1.65,2.53,12.2,12.2,0,0,1,.76,4.08c.1,2.32.12,3,.12,8.89s0,6.57-.12,8.89a12.28,12.28,0,0,1-.76,4.09,6.81,6.81,0,0,1-1.65,2.53,6.67,6.67,0,0,1-2.53,1.64,12,12,0,0,1-4.08.76c-2.32.11-3,.13-8.89.13s-6.57,0-8.89-.13a12,12,0,0,1-4.09-.76,6.75,6.75,0,0,1-2.53-1.64,6.79,6.79,0,0,1-1.64-2.53,12.28,12.28,0,0,1-.76-4.09c-.11-2.32-.13-3-.13-8.89s0-6.57.13-8.89a12.2,12.2,0,0,1,.76-4.08,6.79,6.79,0,0,1,1.64-2.53A6.9,6.9,0,0,1-76.38,146a12.09,12.09,0,0,1,4.09-.75c2.32-.11,3-.13,8.89-.13"/></clipPath><clipPath id="clip-path-15"><circle class="cls-1" cx="-278.21" cy="163.18" r="44"/></clipPath><clipPath id="clip-path-16"><path class="cls-3" d="M-258.21,183.18H-267V169.12c0-3.68-1.38-6.19-4.42-6.19a4.52,4.52,0,0,0-4.22,3.33,6.64,6.64,0,0,0-.19,2.22v14.7h-8.76s.11-24.91,0-27.17h8.76v4.26c.52-1.86,3.31-4.52,7.78-4.52,5.54,0,9.89,3.91,9.89,12.32Zm-35.29-30.57h-.05a4.51,4.51,0,0,1-4.66-4.71,4.55,4.55,0,0,1,4.77-4.72,4.54,4.54,0,0,1,4.7,4.72A4.54,4.54,0,0,1-293.5,152.61Zm-3.7,3.4h7.8v27.17h-7.8Z"/></clipPath><clipPath id="clip-path-17"><circle class="cls-1" cx="-170.8" cy="163.18" r="44"/></clipPath><clipPath id="clip-path-18"><path class="cls-3" d="M-151.26,159.48q-8.06,5-12.23,7.84c-.93.64-1.69,1.13-2.27,1.49a13.85,13.85,0,0,1-2.32,1.09,7.54,7.54,0,0,1-2.7.56h-.05a7.63,7.63,0,0,1-2.7-.56,14.24,14.24,0,0,1-2.32-1.09c-.58-.36-1.34-.85-2.27-1.49q-3.31-2.25-12.2-7.84a12.84,12.84,0,0,1-2.48-2v18.05a3.39,3.39,0,0,0,1.15,2.57,3.93,3.93,0,0,0,2.77,1.06h36.15a3.93,3.93,0,0,0,2.77-1.06,3.4,3.4,0,0,0,1.16-2.57V157.5A13.5,13.5,0,0,1-151.26,159.48Zm-37.32-2.43,5,3.24q4.2,2.69,6.44,4.14l1,.7,1.32.86c.36.22.78.47,1.28.74a7.51,7.51,0,0,0,1.41.61,4.18,4.18,0,0,0,1.23.21h.05a4.07,4.07,0,0,0,1.23-.21,7.51,7.51,0,0,0,1.41-.61c.5-.27.93-.52,1.28-.74l1.32-.86,1-.7,11.49-7.38a11.44,11.44,0,0,0,3-2.8,5.65,5.65,0,0,0,1.21-3.43,3.36,3.36,0,0,0-1.17-2.57,4,4,0,0,0-2.76-1.07h-36.15a3.6,3.6,0,0,0-2.9,1.19,4.34,4.34,0,0,0-1,2.95,5.09,5.09,0,0,0,1.35,3.1A11.67,11.67,0,0,0-188.58,157.05Z"/></clipPath><clipPath id="clip-path-19"><circle class="cls-1" cx="44" cy="163.18" r="44"/></clipPath><clipPath id="clip-path-20"><circle class="cls-4" cx="-170.8" cy="286.8" r="44"/></clipPath><clipPath id="clip-path-21"><path class="cls-5" d="M-151.26,283.1q-8.06,5-12.23,7.84c-.93.64-1.69,1.13-2.27,1.49a14.69,14.69,0,0,1-2.32,1.09,7.54,7.54,0,0,1-2.7.56h-.05a7.63,7.63,0,0,1-2.7-.56,15.13,15.13,0,0,1-2.32-1.09c-.58-.36-1.34-.85-2.27-1.49q-3.31-2.25-12.2-7.84a12.84,12.84,0,0,1-2.48-2v18.05a3.35,3.35,0,0,0,1.15,2.56,3.9,3.9,0,0,0,2.77,1.07h36.15a3.9,3.9,0,0,0,2.77-1.07,3.36,3.36,0,0,0,1.16-2.56V281.12A13.5,13.5,0,0,1-151.26,283.1Zm-37.32-2.43,5,3.24q4.2,2.68,6.44,4.14l1,.7,1.32.86c.36.22.78.47,1.28.74a7.51,7.51,0,0,0,1.41.61,4.18,4.18,0,0,0,1.23.21h.05a4.07,4.07,0,0,0,1.23-.21,7.51,7.51,0,0,0,1.41-.61c.5-.27.93-.52,1.28-.74l1.32-.86,1-.7,11.49-7.38a11.44,11.44,0,0,0,3-2.8,5.65,5.65,0,0,0,1.21-3.43,3.36,3.36,0,0,0-1.17-2.57,4,4,0,0,0-2.76-1.07h-36.15a3.62,3.62,0,0,0-2.9,1.18,4.38,4.38,0,0,0-1,3,5.09,5.09,0,0,0,1.35,3.1A11.67,11.67,0,0,0-188.58,280.67Z"/></clipPath><clipPath id="clip-path-22"><circle class="cls-6" cx="151.4" cy="44" r="44"/></clipPath></defs><path class="cls-8" d="M-368.56,33.69a9,9,0,0,0,3.79-5,16.86,16.86,0,0,1-5.47,2.2A8.39,8.39,0,0,0-376.53,28a8.86,8.86,0,0,0-8.61,9.09,9.44,9.44,0,0,0,.22,2.07,24.07,24.07,0,0,1-17.76-9.5,9.38,9.38,0,0,0-1.17,4.57A9.24,9.24,0,0,0-400,41.8a8.28,8.28,0,0,1-3.9-1.14v.11A9,9,0,0,0-397,49.68a7.74,7.74,0,0,1-2.27.32,7.88,7.88,0,0,1-1.62-.16,8.7,8.7,0,0,0,8,6.31A16.73,16.73,0,0,1-403.55,60a17.53,17.53,0,0,1-2.06-.12A23.56,23.56,0,0,0-392.4,64c15.85,0,24.52-13.85,24.52-25.86,0-.39,0-.79,0-1.17a17.91,17.91,0,0,0,4.3-4.71A16.53,16.53,0,0,1-368.56,33.69Z"/><g class="cls-9"><rect class="cls-10" x="-629.61" y="-80" width="1328" height="1168"/></g><path class="cls-8" d="M-49.08,32.21a2.62,2.62,0,0,1-2.62,2.62,2.62,2.62,0,0,1-2.62-2.62,2.62,2.62,0,0,1,2.62-2.62A2.63,2.63,0,0,1-49.08,32.21ZM-63.36,51.38A7.34,7.34,0,0,1-70.7,44a7.34,7.34,0,0,1,7.34-7.34A7.34,7.34,0,0,1-56,44,7.34,7.34,0,0,1-63.36,51.38Zm0-18.64A11.3,11.3,0,0,0-74.66,44a11.3,11.3,0,0,0,11.3,11.31A11.31,11.31,0,0,0-52,44,11.3,11.3,0,0,0-63.36,32.74Zm0-10.74c-6,0-6.73,0-9.07.13a16.06,16.06,0,0,0-5.34,1,10.73,10.73,0,0,0-3.9,2.53,11,11,0,0,0-2.54,3.9,16.35,16.35,0,0,0-1,5.34c-.11,2.35-.13,3.1-.13,9.07s0,6.72.13,9.07a16.35,16.35,0,0,0,1,5.34,11,11,0,0,0,2.54,3.9,10.73,10.73,0,0,0,3.9,2.53,16.06,16.06,0,0,0,5.34,1c2.34.1,3.09.13,9.07.13s6.72,0,9.07-.13a16.06,16.06,0,0,0,5.34-1,10.81,10.81,0,0,0,3.9-2.53,10.81,10.81,0,0,0,2.53-3.9,16.06,16.06,0,0,0,1-5.34c.1-2.35.13-3.1.13-9.07s0-6.72-.13-9.07a16.06,16.06,0,0,0-1-5.34,10.81,10.81,0,0,0-2.53-3.9A10.81,10.81,0,0,0-49,23.16a16.06,16.06,0,0,0-5.34-1C-56.68,22-57.43,22-63.4,22Zm0,4c5.87,0,6.57,0,8.89.13a12.2,12.2,0,0,1,4.08.76,6.92,6.92,0,0,1,2.53,1.64A6.93,6.93,0,0,1-46.25,31a12.14,12.14,0,0,1,.76,4.08c.1,2.32.12,3,.12,8.89s0,6.57-.12,8.89A12.14,12.14,0,0,1-46.25,57a6.93,6.93,0,0,1-1.65,2.54,6.92,6.92,0,0,1-2.53,1.64,12.2,12.2,0,0,1-4.08.76c-2.32.1-3,.13-8.89.13s-6.57,0-8.89-.13a12.28,12.28,0,0,1-4.09-.76,7,7,0,0,1-2.53-1.64A6.91,6.91,0,0,1-80.55,57a12.14,12.14,0,0,1-.76-4.08c-.11-2.32-.13-3-.13-8.89s0-6.57.13-8.89A12.14,12.14,0,0,1-80.55,31a6.91,6.91,0,0,1,1.64-2.54,7,7,0,0,1,2.53-1.64,12.28,12.28,0,0,1,4.09-.76c2.32-.1,3-.13,8.89-.13"/><g class="cls-12"><rect class="cls-10" x="-547.4" y="-80" width="1328" height="1168"/></g><path class="cls-8" d="M-258.21,64H-267V49.94c0-3.68-1.38-6.19-4.42-6.19a4.52,4.52,0,0,0-4.22,3.33,6.64,6.64,0,0,0-.19,2.22V64h-8.76s.11-24.91,0-27.17h8.76v4.26c.52-1.86,3.31-4.53,7.78-4.53,5.54,0,9.89,3.92,9.89,12.33ZM-293.5,33.43h-.05a4.51,4.51,0,0,1-4.66-4.71A4.55,4.55,0,0,1-293.44,24a4.53,4.53,0,0,1,4.7,4.71A4.55,4.55,0,0,1-293.5,33.43Zm-3.7,3.4h7.8V64h-7.8Z"/><g class="cls-14"><rect class="cls-10" x="-1122.21" y="-80" width="1328" height="1168"/></g><path class="cls-8" d="M-151.26,40.3q-8.06,5-12.23,7.84c-.93.63-1.69,1.13-2.27,1.48a14.61,14.61,0,0,1-2.32,1.1,7.52,7.52,0,0,1-2.7.55h-.05a7.6,7.6,0,0,1-2.7-.55,15.05,15.05,0,0,1-2.32-1.1c-.58-.35-1.34-.85-2.27-1.48q-3.31-2.25-12.2-7.84a12.84,12.84,0,0,1-2.48-2v18a3.37,3.37,0,0,0,1.15,2.57A3.94,3.94,0,0,0-188.88,60h36.15A3.94,3.94,0,0,0-150,58.93a3.38,3.38,0,0,0,1.16-2.57v-18A13.93,13.93,0,0,1-151.26,40.3Zm-37.32-2.44c.56.37,2.23,1.45,5,3.24l6.44,4.15,1,.69q.8.54,1.32.87c.36.22.78.46,1.28.74a8.23,8.23,0,0,0,1.41.61,4.14,4.14,0,0,0,1.23.2h.05a4,4,0,0,0,1.23-.2,8.23,8.23,0,0,0,1.41-.61c.5-.28.93-.52,1.28-.74s.79-.51,1.32-.87l1-.69L-153,37.86a11.24,11.24,0,0,0,3-2.79,5.67,5.67,0,0,0,1.21-3.43A3.36,3.36,0,0,0-150,29.07,4,4,0,0,0-152.73,28h-36.15a3.59,3.59,0,0,0-2.9,1.18,4.37,4.37,0,0,0-1,3,5.09,5.09,0,0,0,1.35,3.1A11.62,11.62,0,0,0-188.58,37.86Z"/><g class="cls-16"><rect class="cls-10" x="-534.8" y="-320" width="1328" height="1168"/></g><g class="cls-17"><g class="cls-18"><path class="cls-10" d="M44,4A40,40,0,1,1,4,44,40,40,0,0,1,44,4m0-4A44,44,0,1,0,88,44,44,44,0,0,0,44,0Z"/></g></g><polygon class="cls-8" points="61.58 17.6 35.21 24.2 26.42 43.97 38.48 40.23 30.82 59.35 40.22 55.77 37.41 76.93 49.78 48.26 44.68 49.84 56.03 31.77 48.53 33.85 61.58 17.6"/><path class="cls-20" d="M-368.56,152.88a9.06,9.06,0,0,0,3.79-5,16.64,16.64,0,0,1-5.47,2.2,8.42,8.42,0,0,0-6.29-2.87,8.86,8.86,0,0,0-8.61,9.09,9.38,9.38,0,0,0,.22,2.07,24.06,24.06,0,0,1-17.76-9.49,9.32,9.32,0,0,0-1.17,4.57A9.22,9.22,0,0,0-400,161a8.27,8.27,0,0,1-3.9-1.13V160a9,9,0,0,0,6.91,8.91,8.09,8.09,0,0,1-2.27.32,8.64,8.64,0,0,1-1.62-.16,8.7,8.7,0,0,0,8,6.31,16.73,16.73,0,0,1-10.7,3.89,15.61,15.61,0,0,1-2.06-.13,23.48,23.48,0,0,0,13.21,4.08c15.85,0,24.52-13.84,24.52-25.85,0-.4,0-.79,0-1.18a17.87,17.87,0,0,0,4.3-4.7A16.53,16.53,0,0,1-368.56,152.88Z"/><g class="cls-21"><rect class="cls-6" x="-629.61" y="39.18" width="1328" height="1168"/></g><path class="cls-20" d="M-49.08,151.4A2.62,2.62,0,0,1-51.7,154a2.62,2.62,0,0,1-2.62-2.62,2.62,2.62,0,0,1,2.62-2.62A2.62,2.62,0,0,1-49.08,151.4Zm-14.28,19.17a7.34,7.34,0,0,1-7.34-7.34,7.34,7.34,0,0,1,7.34-7.34A7.34,7.34,0,0,1-56,163.23,7.34,7.34,0,0,1-63.36,170.57Zm0-18.65a11.3,11.3,0,0,0-11.3,11.31,11.3,11.3,0,0,0,11.3,11.3A11.3,11.3,0,0,0-52,163.23,11.31,11.31,0,0,0-63.36,151.92Zm0-10.74c-6,0-6.73,0-9.07.14a15.84,15.84,0,0,0-5.34,1,10.63,10.63,0,0,0-3.9,2.54,10.94,10.94,0,0,0-2.54,3.89,16.35,16.35,0,0,0-1,5.34c-.11,2.35-.13,3.1-.13,9.07s0,6.73.13,9.08a16.35,16.35,0,0,0,1,5.34,10.94,10.94,0,0,0,2.54,3.89,10.63,10.63,0,0,0,3.9,2.54,16.09,16.09,0,0,0,5.34,1c2.34.11,3.09.13,9.07.13s6.72,0,9.07-.13A16.09,16.09,0,0,0-49,184a10.71,10.71,0,0,0,3.9-2.54,10.78,10.78,0,0,0,2.53-3.89,16.06,16.06,0,0,0,1-5.34c.1-2.35.13-3.1.13-9.08s0-6.72-.13-9.07a16.06,16.06,0,0,0-1-5.34,10.78,10.78,0,0,0-2.53-3.89,10.71,10.71,0,0,0-3.9-2.54,15.84,15.84,0,0,0-5.34-1C-56.68,141.21-57.43,141.18-63.4,141.18Zm0,4c5.87,0,6.57,0,8.89.13a12,12,0,0,1,4.08.75,6.81,6.81,0,0,1,2.53,1.65,6.81,6.81,0,0,1,1.65,2.53,12.2,12.2,0,0,1,.76,4.08c.1,2.32.12,3,.12,8.89s0,6.57-.12,8.89a12.28,12.28,0,0,1-.76,4.09,6.81,6.81,0,0,1-1.65,2.53,6.67,6.67,0,0,1-2.53,1.64,12,12,0,0,1-4.08.76c-2.32.11-3,.13-8.89.13s-6.57,0-8.89-.13a12,12,0,0,1-4.09-.76,6.75,6.75,0,0,1-2.53-1.64,6.79,6.79,0,0,1-1.64-2.53,12.28,12.28,0,0,1-.76-4.09c-.11-2.32-.13-3-.13-8.89s0-6.57.13-8.89a12.2,12.2,0,0,1,.76-4.08,6.79,6.79,0,0,1,1.64-2.53A6.9,6.9,0,0,1-76.38,146a12.09,12.09,0,0,1,4.09-.75c2.32-.11,3-.13,8.89-.13"/><g class="cls-23"><rect class="cls-6" x="-547.4" y="39.18" width="1328" height="1168"/></g><path class="cls-20" d="M-258.21,183.18H-267V169.12c0-3.68-1.38-6.19-4.42-6.19a4.52,4.52,0,0,0-4.22,3.33,6.64,6.64,0,0,0-.19,2.22v14.7h-8.76s.11-24.91,0-27.17h8.76v4.26c.52-1.86,3.31-4.52,7.78-4.52,5.54,0,9.89,3.91,9.89,12.32Zm-35.29-30.57h-.05a4.51,4.51,0,0,1-4.66-4.71,4.55,4.55,0,0,1,4.77-4.72,4.54,4.54,0,0,1,4.7,4.72A4.54,4.54,0,0,1-293.5,152.61Zm-3.7,3.4h7.8v27.17h-7.8Z"/><g class="cls-25"><rect class="cls-6" x="-1122.21" y="39.18" width="1328" height="1168"/></g><path class="cls-20" d="M-151.26,159.48q-8.06,5-12.23,7.84c-.93.64-1.69,1.13-2.27,1.49a13.85,13.85,0,0,1-2.32,1.09,7.54,7.54,0,0,1-2.7.56h-.05a7.63,7.63,0,0,1-2.7-.56,14.24,14.24,0,0,1-2.32-1.09c-.58-.36-1.34-.85-2.27-1.49q-3.31-2.25-12.2-7.84a12.84,12.84,0,0,1-2.48-2v18.05a3.39,3.39,0,0,0,1.15,2.57,3.93,3.93,0,0,0,2.77,1.06h36.15a3.93,3.93,0,0,0,2.77-1.06,3.4,3.4,0,0,0,1.16-2.57V157.5A13.5,13.5,0,0,1-151.26,159.48Zm-37.32-2.43,5,3.24q4.2,2.69,6.44,4.14l1,.7,1.32.86c.36.22.78.47,1.28.74a7.51,7.51,0,0,0,1.41.61,4.18,4.18,0,0,0,1.23.21h.05a4.07,4.07,0,0,0,1.23-.21,7.51,7.51,0,0,0,1.41-.61c.5-.27.93-.52,1.28-.74l1.32-.86,1-.7,11.49-7.38a11.44,11.44,0,0,0,3-2.8,5.65,5.65,0,0,0,1.21-3.43,3.36,3.36,0,0,0-1.17-2.57,4,4,0,0,0-2.76-1.07h-36.15a3.6,3.6,0,0,0-2.9,1.19,4.34,4.34,0,0,0-1,2.95,5.09,5.09,0,0,0,1.35,3.1A11.67,11.67,0,0,0-188.58,157.05Z"/><g class="cls-27"><rect class="cls-6" x="-534.8" y="-200.82" width="1328" height="1168"/></g><g class="cls-29"><rect class="cls-4" x="-534.8" y="-77.2" width="1328" height="1168"/></g><circle class="cls-4" cx="-170.8" cy="286.8" r="44"/><path class="cls-30" d="M-151.26,283.1q-8.06,5-12.23,7.84c-.93.64-1.69,1.13-2.27,1.49a14.69,14.69,0,0,1-2.32,1.09,7.54,7.54,0,0,1-2.7.56h-.05a7.63,7.63,0,0,1-2.7-.56,15.13,15.13,0,0,1-2.32-1.09c-.58-.36-1.34-.85-2.27-1.49q-3.31-2.25-12.2-7.84a12.84,12.84,0,0,1-2.48-2v18.05a3.35,3.35,0,0,0,1.15,2.56,3.9,3.9,0,0,0,2.77,1.07h36.15a3.9,3.9,0,0,0,2.77-1.07,3.36,3.36,0,0,0,1.16-2.56V281.12A13.5,13.5,0,0,1-151.26,283.1Zm-37.32-2.43,5,3.24q4.2,2.68,6.44,4.14l1,.7,1.32.86c.36.22.78.47,1.28.74a7.51,7.51,0,0,0,1.41.61,4.18,4.18,0,0,0,1.23.21h.05a4.07,4.07,0,0,0,1.23-.21,7.51,7.51,0,0,0,1.41-.61c.5-.27.93-.52,1.28-.74l1.32-.86,1-.7,11.49-7.38a11.44,11.44,0,0,0,3-2.8,5.65,5.65,0,0,0,1.21-3.43,3.36,3.36,0,0,0-1.17-2.57,4,4,0,0,0-2.76-1.07h-36.15a3.62,3.62,0,0,0-2.9,1.18,4.38,4.38,0,0,0-1,3,5.09,5.09,0,0,0,1.35,3.1A11.67,11.67,0,0,0-188.58,280.67Z"/><g class="cls-31"><rect class="cls-32" x="-534.8" y="-77.2" width="1328" height="1168"/></g><circle class="cls-6" cx="151.4" cy="44" r="44"/><g class="cls-33"><rect class="cls-6" x="-332.6" y="-80" width="1328" height="1168"/></g></svg>