<svg id="Layer_1" data-name="Layer 1" xmlns="http://www.w3.org/2000/svg" xmlns:xlink="http://www.w3.org/1999/xlink" viewBox="0 0 88 88"><defs><style>.cls-1{fill:none;}.cls-2,.cls-7,.cls-9{fill:#1a2966;}.cls-2,.cls-3,.cls-4{clip-rule:evenodd;}.cls-18,.cls-3,.cls-5{fill:#dc554f;}.cls-29,.cls-31,.cls-4{fill:#fff;}.cls-6{clip-path:url(#clip-path);}.cls-18,.cls-29,.cls-7{fill-rule:evenodd;}.cls-8{clip-path:url(#clip-path-2);}.cls-10{clip-path:url(#clip-path-3);}.cls-11{clip-path:url(#clip-path-4);}.cls-12{clip-path:url(#clip-path-5);}.cls-13{clip-path:url(#clip-path-6);}.cls-14{clip-path:url(#clip-path-7);}.cls-15{clip-path:url(#clip-path-8);}.cls-16{clip-path:url(#clip-path-9);}.cls-17{clip-path:url(#clip-path-10);}.cls-19{clip-path:url(#clip-path-11);}.cls-20{clip-path:url(#clip-path-12);}.cls-21{clip-path:url(#clip-path-13);}.cls-22{clip-path:url(#clip-path-14);}.cls-23{clip-path:url(#clip-path-15);}.cls-24{clip-path:url(#clip-path-16);}.cls-25{clip-path:url(#clip-path-17);}.cls-26{clip-path:url(#clip-path-18);}.cls-27{clip-path:url(#clip-path-19);}.cls-28{clip-path:url(#clip-path-20);}.cls-30{clip-path:url(#clip-path-21);}.cls-32{clip-path:url(#clip-path-22);}.cls-33{clip-path:url(#clip-path-23);}.cls-34{clip-path:url(#clip-path-24);}.cls-35{clip-path:url(#clip-path-25);}.cls-36{clip-path:url(#clip-path-26);}.cls-37{clip-path:url(#clip-path-27);}.cls-38{clip-path:url(#clip-path-28);}.cls-39{clip-path:url(#clip-path-29);}</style><clipPath id="clip-path"><circle class="cls-1" cx="-385.61" cy="-75.18" r="44"/></clipPath><clipPath id="clip-path-2"><path class="cls-2" d="M-368.56-85.49a9.06,9.06,0,0,0,3.79-5,16.88,16.88,0,0,1-5.47,2.21,8.39,8.39,0,0,0-6.29-2.87,8.85,8.85,0,0,0-8.61,9.08,9.32,9.32,0,0,0,.22,2.07,24.06,24.06,0,0,1-17.76-9.49,9.32,9.32,0,0,0-1.17,4.57A9.22,9.22,0,0,0-400-77.39a8.27,8.27,0,0,1-3.9-1.13v.11A9,9,0,0,0-397-69.5a8.09,8.09,0,0,1-2.27.32,8.64,8.64,0,0,1-1.62-.16,8.7,8.7,0,0,0,8,6.31,16.73,16.73,0,0,1-10.7,3.89,15.61,15.61,0,0,1-2.06-.13,23.49,23.49,0,0,0,13.21,4.09c15.85,0,24.52-13.85,24.52-25.86,0-.4,0-.79,0-1.18a17.87,17.87,0,0,0,4.3-4.7A16.53,16.53,0,0,1-368.56-85.49Z"/></clipPath><clipPath id="clip-path-3"><circle class="cls-1" cx="-63.4" cy="-75.18" r="44"/></clipPath><clipPath id="clip-path-4"><path class="cls-2" d="M-49.08-87a2.62,2.62,0,0,1-2.62,2.62A2.62,2.62,0,0,1-54.32-87a2.62,2.62,0,0,1,2.62-2.62A2.62,2.62,0,0,1-49.08-87ZM-63.36-67.8a7.34,7.34,0,0,1-7.34-7.34,7.34,7.34,0,0,1,7.34-7.34A7.34,7.34,0,0,1-56-75.14,7.34,7.34,0,0,1-63.36-67.8Zm0-18.65a11.31,11.31,0,0,0-11.3,11.31,11.3,11.3,0,0,0,11.3,11.3A11.3,11.3,0,0,0-52-75.14,11.31,11.31,0,0,0-63.36-86.45Zm0-10.73c-6,0-6.73,0-9.07.13a16.09,16.09,0,0,0-5.34,1,10.63,10.63,0,0,0-3.9,2.54,10.94,10.94,0,0,0-2.54,3.89,16.36,16.36,0,0,0-1,5.35c-.11,2.34-.13,3.09-.13,9.07s0,6.72.13,9.07a16.35,16.35,0,0,0,1,5.34,10.94,10.94,0,0,0,2.54,3.89,10.63,10.63,0,0,0,3.9,2.54,16.09,16.09,0,0,0,5.34,1c2.34.11,3.09.14,9.07.14s6.72,0,9.07-.14a16.09,16.09,0,0,0,5.34-1,10.71,10.71,0,0,0,3.9-2.54,10.78,10.78,0,0,0,2.53-3.89,16.06,16.06,0,0,0,1-5.34c.1-2.35.13-3.1.13-9.07s0-6.73-.13-9.07a16.07,16.07,0,0,0-1-5.35,10.78,10.78,0,0,0-2.53-3.89A10.71,10.71,0,0,0-49-96a16.09,16.09,0,0,0-5.34-1C-56.68-97.16-57.43-97.18-63.4-97.18Zm0,4c5.87,0,6.57,0,8.89.13a12,12,0,0,1,4.08.76,6.67,6.67,0,0,1,2.53,1.64,6.81,6.81,0,0,1,1.65,2.53,12.28,12.28,0,0,1,.76,4.09c.1,2.32.12,3,.12,8.89s0,6.57-.12,8.89a12.2,12.2,0,0,1-.76,4.08,6.81,6.81,0,0,1-1.65,2.53A6.81,6.81,0,0,1-50.43-58a12,12,0,0,1-4.08.75c-2.32.11-3,.13-8.89.13s-6.57,0-8.89-.13A12.09,12.09,0,0,1-76.38-58a6.9,6.9,0,0,1-2.53-1.65,6.79,6.79,0,0,1-1.64-2.53,12.2,12.2,0,0,1-.76-4.08c-.11-2.32-.13-3-.13-8.89s0-6.57.13-8.89a12.28,12.28,0,0,1,.76-4.09,6.79,6.79,0,0,1,1.64-2.53,6.75,6.75,0,0,1,2.53-1.64,12,12,0,0,1,4.09-.76c2.32-.11,3-.13,8.89-.13"/></clipPath><clipPath id="clip-path-5"><circle class="cls-1" cx="-278.21" cy="-75.18" r="44"/></clipPath><clipPath id="clip-path-6"><path class="cls-2" d="M-258.21-55.18H-267V-69.25c0-3.68-1.38-6.19-4.42-6.19a4.52,4.52,0,0,0-4.22,3.33,6.67,6.67,0,0,0-.19,2.22v14.71h-8.76s.11-24.91,0-27.18h8.76v4.27c.52-1.87,3.31-4.53,7.78-4.53,5.54,0,9.89,3.91,9.89,12.33ZM-293.5-85.76h-.05a4.51,4.51,0,0,1-4.66-4.7,4.55,4.55,0,0,1,4.77-4.72,4.53,4.53,0,0,1,4.7,4.71A4.54,4.54,0,0,1-293.5-85.76Zm-3.7,3.4h7.8v27.17h-7.8Z"/></clipPath><clipPath id="clip-path-7"><circle class="cls-1" cx="-170.8" cy="-75.18" r="44"/></clipPath><clipPath id="clip-path-8"><path class="cls-2" d="M-151.26-78.89q-8.06,5-12.23,7.84c-.93.64-1.69,1.14-2.27,1.49a13.85,13.85,0,0,1-2.32,1.09,7.54,7.54,0,0,1-2.7.56h-.05a7.63,7.63,0,0,1-2.7-.56,14.24,14.24,0,0,1-2.32-1.09c-.58-.35-1.34-.85-2.27-1.49q-3.31-2.25-12.2-7.84a12.13,12.13,0,0,1-2.48-2v18.05a3.37,3.37,0,0,0,1.15,2.57,3.94,3.94,0,0,0,2.77,1.07h36.15A3.94,3.94,0,0,0-150-60.25a3.38,3.38,0,0,0,1.16-2.57V-80.87A13.5,13.5,0,0,1-151.26-78.89Zm-37.32-2.43,5,3.24c2.8,1.79,5,3.18,6.44,4.15l1,.69c.53.36,1,.64,1.32.86s.78.47,1.28.74a7.51,7.51,0,0,0,1.41.61,4.18,4.18,0,0,0,1.23.21h.05a4.07,4.07,0,0,0,1.23-.21,7.51,7.51,0,0,0,1.41-.61c.5-.27.93-.52,1.28-.74s.79-.5,1.32-.86.88-.59,1-.69q2.25-1.45,11.49-7.39a11.28,11.28,0,0,0,3-2.8,5.65,5.65,0,0,0,1.21-3.43A3.37,3.37,0,0,0-150-90.12a4,4,0,0,0-2.76-1.06h-36.15a3.59,3.59,0,0,0-2.9,1.18,4.36,4.36,0,0,0-1,3,5.07,5.07,0,0,0,1.35,3.1A11.67,11.67,0,0,0-188.58-81.32Z"/></clipPath><clipPath id="clip-path-9"><circle class="cls-1" cx="44" cy="-75.18" r="44"/></clipPath><clipPath id="clip-path-10"><circle class="cls-1" cx="-385.61" cy="44" r="44"/></clipPath><clipPath id="clip-path-11"><path class="cls-3" d="M-368.56,33.69a9,9,0,0,0,3.79-5,16.86,16.86,0,0,1-5.47,2.2A8.39,8.39,0,0,0-376.53,28a8.86,8.86,0,0,0-8.61,9.09,9.44,9.44,0,0,0,.22,2.07,24.07,24.07,0,0,1-17.76-9.5,9.38,9.38,0,0,0-1.17,4.57A9.24,9.24,0,0,0-400,41.8a8.28,8.28,0,0,1-3.9-1.14v.11A9,9,0,0,0-397,49.68a7.74,7.74,0,0,1-2.27.32,7.88,7.88,0,0,1-1.62-.16,8.7,8.7,0,0,0,8,6.31A16.73,16.73,0,0,1-403.55,60a17.53,17.53,0,0,1-2.06-.12A23.56,23.56,0,0,0-392.4,64c15.85,0,24.52-13.85,24.52-25.86,0-.39,0-.79,0-1.17a17.91,17.91,0,0,0,4.3-4.71A16.53,16.53,0,0,1-368.56,33.69Z"/></clipPath><clipPath id="clip-path-12"><circle class="cls-1" cx="-63.4" cy="44" r="44"/></clipPath><clipPath id="clip-path-13"><path class="cls-3" d="M-49.08,32.21a2.62,2.62,0,0,1-2.62,2.62,2.62,2.62,0,0,1-2.62-2.62,2.62,2.62,0,0,1,2.62-2.62A2.63,2.63,0,0,1-49.08,32.21ZM-63.36,51.38A7.34,7.34,0,0,1-70.7,44a7.34,7.34,0,0,1,7.34-7.34A7.34,7.34,0,0,1-56,44,7.34,7.34,0,0,1-63.36,51.38Zm0-18.64A11.3,11.3,0,0,0-74.66,44a11.3,11.3,0,0,0,11.3,11.31A11.31,11.31,0,0,0-52,44,11.3,11.3,0,0,0-63.36,32.74Zm0-10.74c-6,0-6.73,0-9.07.13a16.06,16.06,0,0,0-5.34,1,10.73,10.73,0,0,0-3.9,2.53,11,11,0,0,0-2.54,3.9,16.35,16.35,0,0,0-1,5.34c-.11,2.35-.13,3.1-.13,9.07s0,6.72.13,9.07a16.35,16.35,0,0,0,1,5.34,11,11,0,0,0,2.54,3.9,10.73,10.73,0,0,0,3.9,2.53,16.06,16.06,0,0,0,5.34,1c2.34.1,3.09.13,9.07.13s6.72,0,9.07-.13a16.06,16.06,0,0,0,5.34-1,10.81,10.81,0,0,0,3.9-2.53,10.81,10.81,0,0,0,2.53-3.9,16.06,16.06,0,0,0,1-5.34c.1-2.35.13-3.1.13-9.07s0-6.72-.13-9.07a16.06,16.06,0,0,0-1-5.34,10.81,10.81,0,0,0-2.53-3.9A10.81,10.81,0,0,0-49,23.16a16.06,16.06,0,0,0-5.34-1C-56.68,22-57.43,22-63.4,22Zm0,4c5.87,0,6.57,0,8.89.13a12.2,12.2,0,0,1,4.08.76,6.92,6.92,0,0,1,2.53,1.64A6.93,6.93,0,0,1-46.25,31a12.14,12.14,0,0,1,.76,4.08c.1,2.32.12,3,.12,8.89s0,6.57-.12,8.89A12.14,12.14,0,0,1-46.25,57a6.93,6.93,0,0,1-1.65,2.54,6.92,6.92,0,0,1-2.53,1.64,12.2,12.2,0,0,1-4.08.76c-2.32.1-3,.13-8.89.13s-6.57,0-8.89-.13a12.28,12.28,0,0,1-4.09-.76,7,7,0,0,1-2.53-1.64A6.91,6.91,0,0,1-80.55,57a12.14,12.14,0,0,1-.76-4.08c-.11-2.32-.13-3-.13-8.89s0-6.57.13-8.89A12.14,12.14,0,0,1-80.55,31a6.91,6.91,0,0,1,1.64-2.54,7,7,0,0,1,2.53-1.64,12.28,12.28,0,0,1,4.09-.76c2.32-.1,3-.13,8.89-.13"/></clipPath><clipPath id="clip-path-14"><circle class="cls-1" cx="-278.21" cy="44" r="44"/></clipPath><clipPath id="clip-path-15"><path class="cls-3" d="M-258.21,64H-267V49.94c0-3.68-1.38-6.19-4.42-6.19a4.52,4.52,0,0,0-4.22,3.33,6.64,6.64,0,0,0-.19,2.22V64h-8.76s.11-24.91,0-27.17h8.76v4.26c.52-1.86,3.31-4.53,7.78-4.53,5.54,0,9.89,3.92,9.89,12.33ZM-293.5,33.43h-.05a4.51,4.51,0,0,1-4.66-4.71A4.55,4.55,0,0,1-293.44,24a4.53,4.53,0,0,1,4.7,4.71A4.55,4.55,0,0,1-293.5,33.43Zm-3.7,3.4h7.8V64h-7.8Z"/></clipPath><clipPath id="clip-path-16"><circle class="cls-1" cx="-170.8" cy="44" r="44"/></clipPath><clipPath id="clip-path-17"><path class="cls-3" d="M-151.26,40.3q-8.06,5-12.23,7.84c-.93.63-1.69,1.13-2.27,1.48a14.61,14.61,0,0,1-2.32,1.1,7.52,7.52,0,0,1-2.7.55h-.05a7.6,7.6,0,0,1-2.7-.55,15.05,15.05,0,0,1-2.32-1.1c-.58-.35-1.34-.85-2.27-1.48q-3.31-2.25-12.2-7.84a12.84,12.84,0,0,1-2.48-2v18a3.37,3.37,0,0,0,1.15,2.57A3.94,3.94,0,0,0-188.88,60h36.15A3.94,3.94,0,0,0-150,58.93a3.38,3.38,0,0,0,1.16-2.57v-18A13.93,13.93,0,0,1-151.26,40.3Zm-37.32-2.44c.56.37,2.23,1.45,5,3.24l6.44,4.15,1,.69q.8.54,1.32.87c.36.22.78.46,1.28.74a8.23,8.23,0,0,0,1.41.61,4.14,4.14,0,0,0,1.23.2h.05a4,4,0,0,0,1.23-.2,8.23,8.23,0,0,0,1.41-.61c.5-.28.93-.52,1.28-.74s.79-.51,1.32-.87l1-.69L-153,37.86a11.24,11.24,0,0,0,3-2.79,5.67,5.67,0,0,0,1.21-3.43A3.36,3.36,0,0,0-150,29.07,4,4,0,0,0-152.73,28h-36.15a3.59,3.59,0,0,0-2.9,1.18,4.37,4.37,0,0,0-1,3,5.09,5.09,0,0,0,1.35,3.1A11.62,11.62,0,0,0-188.58,37.86Z"/></clipPath><clipPath id="clip-path-18"><circle class="cls-1" cx="44" cy="44" r="44"/></clipPath><clipPath id="clip-path-19"><rect class="cls-1" x="-440" y="-80" width="1328" height="1168"/></clipPath><clipPath id="clip-path-20"><circle class="cls-1" cx="-385.61" cy="167.62" r="44"/></clipPath><clipPath id="clip-path-21"><path class="cls-4" d="M-368.56,157.31a9,9,0,0,0,3.79-5,16.66,16.66,0,0,1-5.47,2.21,8.39,8.39,0,0,0-6.29-2.87,8.86,8.86,0,0,0-8.61,9.09,9.44,9.44,0,0,0,.22,2.07,24.07,24.07,0,0,1-17.76-9.5,9.38,9.38,0,0,0-1.17,4.57,9.26,9.26,0,0,0,3.83,7.57,8.28,8.28,0,0,1-3.9-1.14v.11A9,9,0,0,0-397,173.3a7.74,7.74,0,0,1-2.27.32,7.88,7.88,0,0,1-1.62-.16,8.7,8.7,0,0,0,8,6.31,16.73,16.73,0,0,1-10.7,3.89,17.53,17.53,0,0,1-2.06-.12,23.56,23.56,0,0,0,13.21,4.08c15.85,0,24.52-13.85,24.52-25.86,0-.39,0-.79,0-1.17a18.07,18.07,0,0,0,4.3-4.71A16.53,16.53,0,0,1-368.56,157.31Z"/></clipPath><clipPath id="clip-path-22"><circle class="cls-1" cx="-63.4" cy="167.62" r="44"/></clipPath><clipPath id="clip-path-23"><path class="cls-4" d="M-49.08,155.83a2.62,2.62,0,0,1-2.62,2.62,2.62,2.62,0,0,1-2.62-2.62,2.62,2.62,0,0,1,2.62-2.62A2.63,2.63,0,0,1-49.08,155.83ZM-63.36,175a7.34,7.34,0,0,1-7.34-7.34,7.34,7.34,0,0,1,7.34-7.34A7.34,7.34,0,0,1-56,167.66,7.34,7.34,0,0,1-63.36,175Zm0-18.64a11.3,11.3,0,0,0-11.3,11.3A11.3,11.3,0,0,0-63.36,179,11.31,11.31,0,0,0-52,167.66,11.3,11.3,0,0,0-63.36,156.36Zm0-10.74c-6,0-6.73,0-9.07.13a16.35,16.35,0,0,0-5.34,1,10.89,10.89,0,0,0-3.9,2.54,10.89,10.89,0,0,0-2.54,3.9,16.35,16.35,0,0,0-1,5.34c-.11,2.34-.13,3.09-.13,9.07s0,6.72.13,9.07a16.35,16.35,0,0,0,1,5.34,11,11,0,0,0,2.54,3.9,10.73,10.73,0,0,0,3.9,2.53,16.06,16.06,0,0,0,5.34,1c2.34.1,3.09.13,9.07.13s6.72,0,9.07-.13a16.06,16.06,0,0,0,5.34-1,10.81,10.81,0,0,0,3.9-2.53,10.81,10.81,0,0,0,2.53-3.9,16.06,16.06,0,0,0,1-5.34c.1-2.35.13-3.1.13-9.07s0-6.73-.13-9.07a16.06,16.06,0,0,0-1-5.34,10.73,10.73,0,0,0-2.53-3.9,11,11,0,0,0-3.9-2.54,16.35,16.35,0,0,0-5.34-1C-56.68,145.64-57.43,145.62-63.4,145.62Zm0,4c5.87,0,6.57,0,8.89.13a12.2,12.2,0,0,1,4.08.76,6.79,6.79,0,0,1,2.53,1.64,6.9,6.9,0,0,1,1.65,2.53,12.28,12.28,0,0,1,.76,4.09c.1,2.32.12,3,.12,8.89s0,6.57-.12,8.89a12.2,12.2,0,0,1-.76,4.08,6.81,6.81,0,0,1-1.65,2.53,6.81,6.81,0,0,1-2.53,1.65,12.2,12.2,0,0,1-4.08.76c-2.32.1-3,.12-8.89.12s-6.57,0-8.89-.12a12.28,12.28,0,0,1-4.09-.76,6.9,6.9,0,0,1-2.53-1.65,6.79,6.79,0,0,1-1.64-2.53,12.2,12.2,0,0,1-.76-4.08c-.11-2.32-.13-3-.13-8.89s0-6.57.13-8.89a12.28,12.28,0,0,1,.76-4.09,6.87,6.87,0,0,1,1.64-2.53,6.87,6.87,0,0,1,2.53-1.64,12.28,12.28,0,0,1,4.09-.76c2.32-.11,3-.13,8.89-.13"/></clipPath><clipPath id="clip-path-24"><circle class="cls-1" cx="-278.21" cy="167.62" r="44"/></clipPath><clipPath id="clip-path-25"><path class="cls-4" d="M-258.21,187.62H-267V173.56c0-3.69-1.38-6.2-4.42-6.2a4.53,4.53,0,0,0-4.22,3.33,6.69,6.69,0,0,0-.19,2.22v14.71h-8.76s.11-24.91,0-27.18h8.76v4.27c.52-1.87,3.31-4.53,7.78-4.53,5.54,0,9.89,3.91,9.89,12.33Zm-35.29-30.57h-.05a4.51,4.51,0,0,1-4.66-4.71,4.55,4.55,0,0,1,4.77-4.72,4.53,4.53,0,0,1,4.7,4.71A4.55,4.55,0,0,1-293.5,157.05Zm-3.7,3.39h7.8v27.18h-7.8Z"/></clipPath><clipPath id="clip-path-26"><circle class="cls-1" cx="-170.8" cy="167.62" r="44"/></clipPath><clipPath id="clip-path-27"><path class="cls-4" d="M-151.26,163.91q-8.06,5.06-12.23,7.85c-.93.63-1.69,1.13-2.27,1.48a13.85,13.85,0,0,1-2.32,1.09,7.33,7.33,0,0,1-2.7.56h-.05a7.42,7.42,0,0,1-2.7-.56,14.24,14.24,0,0,1-2.32-1.09c-.58-.35-1.34-.85-2.27-1.48q-3.31-2.25-12.2-7.85a12.43,12.43,0,0,1-2.48-2v18a3.37,3.37,0,0,0,1.15,2.57,3.94,3.94,0,0,0,2.77,1.07h36.15a3.94,3.94,0,0,0,2.77-1.07A3.38,3.38,0,0,0-148.8,180v-18A13.89,13.89,0,0,1-151.26,163.91Zm-37.32-2.43c.56.37,2.23,1.45,5,3.24l6.44,4.15,1,.69q.8.54,1.32.87c.36.22.78.46,1.28.73a7.6,7.6,0,0,0,1.41.62,4.49,4.49,0,0,0,1.23.2h.05a4.37,4.37,0,0,0,1.23-.2,7.6,7.6,0,0,0,1.41-.62c.5-.27.93-.51,1.28-.73s.79-.51,1.32-.87.88-.59,1-.69l11.49-7.39a11.24,11.24,0,0,0,3-2.79,5.67,5.67,0,0,0,1.21-3.43,3.36,3.36,0,0,0-1.17-2.57,3.93,3.93,0,0,0-2.76-1.07h-36.15a3.59,3.59,0,0,0-2.9,1.18,4.37,4.37,0,0,0-1,3,5.11,5.11,0,0,0,1.35,3.1A11.62,11.62,0,0,0-188.58,161.48Z"/></clipPath><clipPath id="clip-path-28"><circle class="cls-1" cx="44" cy="167.62" r="44"/></clipPath><clipPath id="clip-path-29"><circle class="cls-5" cx="151.4" cy="-75.18" r="44"/></clipPath></defs><path class="cls-7" d="M-368.56-85.49a9.06,9.06,0,0,0,3.79-5,16.88,16.88,0,0,1-5.47,2.21,8.39,8.39,0,0,0-6.29-2.87,8.85,8.85,0,0,0-8.61,9.08,9.32,9.32,0,0,0,.22,2.07,24.06,24.06,0,0,1-17.76-9.49,9.32,9.32,0,0,0-1.17,4.57A9.22,9.22,0,0,0-400-77.39a8.27,8.27,0,0,1-3.9-1.13v.11A9,9,0,0,0-397-69.5a8.09,8.09,0,0,1-2.27.32,8.64,8.64,0,0,1-1.62-.16,8.7,8.7,0,0,0,8,6.31,16.73,16.73,0,0,1-10.7,3.89,15.61,15.61,0,0,1-2.06-.13,23.49,23.49,0,0,0,13.21,4.09c15.85,0,24.52-13.85,24.52-25.86,0-.4,0-.79,0-1.18a17.87,17.87,0,0,0,4.3-4.7A16.53,16.53,0,0,1-368.56-85.49Z"/><g class="cls-8"><rect class="cls-9" x="-629.61" y="-199.18" width="1328" height="1168"/></g><path class="cls-7" d="M-49.08-87a2.62,2.62,0,0,1-2.62,2.62A2.62,2.62,0,0,1-54.32-87a2.62,2.62,0,0,1,2.62-2.62A2.62,2.62,0,0,1-49.08-87ZM-63.36-67.8a7.34,7.34,0,0,1-7.34-7.34,7.34,7.34,0,0,1,7.34-7.34A7.34,7.34,0,0,1-56-75.14,7.34,7.34,0,0,1-63.36-67.8Zm0-18.65a11.31,11.31,0,0,0-11.3,11.31,11.3,11.3,0,0,0,11.3,11.3A11.3,11.3,0,0,0-52-75.14,11.31,11.31,0,0,0-63.36-86.45Zm0-10.73c-6,0-6.73,0-9.07.13a16.09,16.09,0,0,0-5.34,1,10.63,10.63,0,0,0-3.9,2.54,10.94,10.94,0,0,0-2.54,3.89,16.36,16.36,0,0,0-1,5.35c-.11,2.34-.13,3.09-.13,9.07s0,6.72.13,9.07a16.35,16.35,0,0,0,1,5.34,10.94,10.94,0,0,0,2.54,3.89,10.63,10.63,0,0,0,3.9,2.54,16.09,16.09,0,0,0,5.34,1c2.34.11,3.09.14,9.07.14s6.72,0,9.07-.14a16.09,16.09,0,0,0,5.34-1,10.71,10.71,0,0,0,3.9-2.54,10.78,10.78,0,0,0,2.53-3.89,16.06,16.06,0,0,0,1-5.34c.1-2.35.13-3.1.13-9.07s0-6.73-.13-9.07a16.07,16.07,0,0,0-1-5.35,10.78,10.78,0,0,0-2.53-3.89A10.71,10.71,0,0,0-49-96a16.09,16.09,0,0,0-5.34-1C-56.68-97.16-57.43-97.18-63.4-97.18Zm0,4c5.87,0,6.57,0,8.89.13a12,12,0,0,1,4.08.76,6.67,6.67,0,0,1,2.53,1.64,6.81,6.81,0,0,1,1.65,2.53,12.28,12.28,0,0,1,.76,4.09c.1,2.32.12,3,.12,8.89s0,6.57-.12,8.89a12.2,12.2,0,0,1-.76,4.08,6.81,6.81,0,0,1-1.65,2.53A6.81,6.81,0,0,1-50.43-58a12,12,0,0,1-4.08.75c-2.32.11-3,.13-8.89.13s-6.57,0-8.89-.13A12.09,12.09,0,0,1-76.38-58a6.9,6.9,0,0,1-2.53-1.65,6.79,6.79,0,0,1-1.64-2.53,12.2,12.2,0,0,1-.76-4.08c-.11-2.32-.13-3-.13-8.89s0-6.57.13-8.89a12.28,12.28,0,0,1,.76-4.09,6.79,6.79,0,0,1,1.64-2.53,6.75,6.75,0,0,1,2.53-1.64,12,12,0,0,1,4.09-.76c2.32-.11,3-.13,8.89-.13"/><g class="cls-11"><rect class="cls-9" x="-547.4" y="-199.18" width="1328" height="1168"/></g><path class="cls-7" d="M-258.21-55.18H-267V-69.25c0-3.68-1.38-6.19-4.42-6.19a4.52,4.52,0,0,0-4.22,3.33,6.67,6.67,0,0,0-.19,2.22v14.71h-8.76s.11-24.91,0-27.18h8.76v4.27c.52-1.87,3.31-4.53,7.78-4.53,5.54,0,9.89,3.91,9.89,12.33ZM-293.5-85.76h-.05a4.51,4.51,0,0,1-4.66-4.7,4.55,4.55,0,0,1,4.77-4.72,4.53,4.53,0,0,1,4.7,4.71A4.54,4.54,0,0,1-293.5-85.76Zm-3.7,3.4h7.8v27.17h-7.8Z"/><g class="cls-13"><rect class="cls-9" x="-1122.21" y="-199.18" width="1328" height="1168"/></g><path class="cls-7" d="M-151.26-78.89q-8.06,5-12.23,7.84c-.93.64-1.69,1.14-2.27,1.49a13.85,13.85,0,0,1-2.32,1.09,7.54,7.54,0,0,1-2.7.56h-.05a7.63,7.63,0,0,1-2.7-.56,14.24,14.24,0,0,1-2.32-1.09c-.58-.35-1.34-.85-2.27-1.49q-3.31-2.25-12.2-7.84a12.13,12.13,0,0,1-2.48-2v18.05a3.37,3.37,0,0,0,1.15,2.57,3.94,3.94,0,0,0,2.77,1.07h36.15A3.94,3.94,0,0,0-150-60.25a3.38,3.38,0,0,0,1.16-2.57V-80.87A13.5,13.5,0,0,1-151.26-78.89Zm-37.32-2.43,5,3.24c2.8,1.79,5,3.18,6.44,4.15l1,.69c.53.36,1,.64,1.32.86s.78.47,1.28.74a7.51,7.51,0,0,0,1.41.61,4.18,4.18,0,0,0,1.23.21h.05a4.07,4.07,0,0,0,1.23-.21,7.51,7.51,0,0,0,1.41-.61c.5-.27.93-.52,1.28-.74s.79-.5,1.32-.86.88-.59,1-.69q2.25-1.45,11.49-7.39a11.28,11.28,0,0,0,3-2.8,5.65,5.65,0,0,0,1.21-3.43A3.37,3.37,0,0,0-150-90.12a4,4,0,0,0-2.76-1.06h-36.15a3.59,3.59,0,0,0-2.9,1.18,4.36,4.36,0,0,0-1,3,5.07,5.07,0,0,0,1.35,3.1A11.67,11.67,0,0,0-188.58-81.32Z"/><g class="cls-15"><rect class="cls-9" x="-534.8" y="-439.18" width="1328" height="1168"/></g><path class="cls-18" d="M-368.56,33.69a9,9,0,0,0,3.79-5,16.86,16.86,0,0,1-5.47,2.2A8.39,8.39,0,0,0-376.53,28a8.86,8.86,0,0,0-8.61,9.09,9.44,9.44,0,0,0,.22,2.07,24.07,24.07,0,0,1-17.76-9.5,9.38,9.38,0,0,0-1.17,4.57A9.24,9.24,0,0,0-400,41.8a8.28,8.28,0,0,1-3.9-1.14v.11A9,9,0,0,0-397,49.68a7.74,7.74,0,0,1-2.27.32,7.88,7.88,0,0,1-1.62-.16,8.7,8.7,0,0,0,8,6.31A16.73,16.73,0,0,1-403.55,60a17.53,17.53,0,0,1-2.06-.12A23.56,23.56,0,0,0-392.4,64c15.85,0,24.52-13.85,24.52-25.86,0-.39,0-.79,0-1.17a17.91,17.91,0,0,0,4.3-4.71A16.53,16.53,0,0,1-368.56,33.69Z"/><g class="cls-19"><rect class="cls-5" x="-629.61" y="-80" width="1328" height="1168"/></g><path class="cls-18" d="M-49.08,32.21a2.62,2.62,0,0,1-2.62,2.62,2.62,2.62,0,0,1-2.62-2.62,2.62,2.62,0,0,1,2.62-2.62A2.63,2.63,0,0,1-49.08,32.21ZM-63.36,51.38A7.34,7.34,0,0,1-70.7,44a7.34,7.34,0,0,1,7.34-7.34A7.34,7.34,0,0,1-56,44,7.34,7.34,0,0,1-63.36,51.38Zm0-18.64A11.3,11.3,0,0,0-74.66,44a11.3,11.3,0,0,0,11.3,11.31A11.31,11.31,0,0,0-52,44,11.3,11.3,0,0,0-63.36,32.74Zm0-10.74c-6,0-6.73,0-9.07.13a16.06,16.06,0,0,0-5.34,1,10.73,10.73,0,0,0-3.9,2.53,11,11,0,0,0-2.54,3.9,16.35,16.35,0,0,0-1,5.34c-.11,2.35-.13,3.1-.13,9.07s0,6.72.13,9.07a16.35,16.35,0,0,0,1,5.34,11,11,0,0,0,2.54,3.9,10.73,10.73,0,0,0,3.9,2.53,16.06,16.06,0,0,0,5.34,1c2.34.1,3.09.13,9.07.13s6.72,0,9.07-.13a16.06,16.06,0,0,0,5.34-1,10.81,10.81,0,0,0,3.9-2.53,10.81,10.81,0,0,0,2.53-3.9,16.06,16.06,0,0,0,1-5.34c.1-2.35.13-3.1.13-9.07s0-6.72-.13-9.07a16.06,16.06,0,0,0-1-5.34,10.81,10.81,0,0,0-2.53-3.9A10.81,10.81,0,0,0-49,23.16a16.06,16.06,0,0,0-5.34-1C-56.68,22-57.43,22-63.4,22Zm0,4c5.87,0,6.57,0,8.89.13a12.2,12.2,0,0,1,4.08.76,6.92,6.92,0,0,1,2.53,1.64A6.93,6.93,0,0,1-46.25,31a12.14,12.14,0,0,1,.76,4.08c.1,2.32.12,3,.12,8.89s0,6.57-.12,8.89A12.14,12.14,0,0,1-46.25,57a6.93,6.93,0,0,1-1.65,2.54,6.92,6.92,0,0,1-2.53,1.64,12.2,12.2,0,0,1-4.08.76c-2.32.1-3,.13-8.89.13s-6.57,0-8.89-.13a12.28,12.28,0,0,1-4.09-.76,7,7,0,0,1-2.53-1.64A6.91,6.91,0,0,1-80.55,57a12.14,12.14,0,0,1-.76-4.08c-.11-2.32-.13-3-.13-8.89s0-6.57.13-8.89A12.14,12.14,0,0,1-80.55,31a6.91,6.91,0,0,1,1.64-2.54,7,7,0,0,1,2.53-1.64,12.28,12.28,0,0,1,4.09-.76c2.32-.1,3-.13,8.89-.13"/><g class="cls-21"><rect class="cls-5" x="-547.4" y="-80" width="1328" height="1168"/></g><path class="cls-18" d="M-258.21,64H-267V49.94c0-3.68-1.38-6.19-4.42-6.19a4.52,4.52,0,0,0-4.22,3.33,6.64,6.64,0,0,0-.19,2.22V64h-8.76s.11-24.91,0-27.17h8.76v4.26c.52-1.86,3.31-4.53,7.78-4.53,5.54,0,9.89,3.92,9.89,12.33ZM-293.5,33.43h-.05a4.51,4.51,0,0,1-4.66-4.71A4.55,4.55,0,0,1-293.44,24a4.53,4.53,0,0,1,4.7,4.71A4.55,4.55,0,0,1-293.5,33.43Zm-3.7,3.4h7.8V64h-7.8Z"/><g class="cls-23"><rect class="cls-5" x="-1122.21" y="-80" width="1328" height="1168"/></g><path class="cls-18" d="M-151.26,40.3q-8.06,5-12.23,7.84c-.93.63-1.69,1.13-2.27,1.48a14.61,14.61,0,0,1-2.32,1.1,7.52,7.52,0,0,1-2.7.55h-.05a7.6,7.6,0,0,1-2.7-.55,15.05,15.05,0,0,1-2.32-1.1c-.58-.35-1.34-.85-2.27-1.48q-3.31-2.25-12.2-7.84a12.84,12.84,0,0,1-2.48-2v18a3.37,3.37,0,0,0,1.15,2.57A3.94,3.94,0,0,0-188.88,60h36.15A3.94,3.94,0,0,0-150,58.93a3.38,3.38,0,0,0,1.16-2.57v-18A13.93,13.93,0,0,1-151.26,40.3Zm-37.32-2.44c.56.37,2.23,1.45,5,3.24l6.44,4.15,1,.69q.8.54,1.32.87c.36.22.78.46,1.28.74a8.23,8.23,0,0,0,1.41.61,4.14,4.14,0,0,0,1.23.2h.05a4,4,0,0,0,1.23-.2,8.23,8.23,0,0,0,1.41-.61c.5-.28.93-.52,1.28-.74s.79-.51,1.32-.87l1-.69L-153,37.86a11.24,11.24,0,0,0,3-2.79,5.67,5.67,0,0,0,1.21-3.43A3.36,3.36,0,0,0-150,29.07,4,4,0,0,0-152.73,28h-36.15a3.59,3.59,0,0,0-2.9,1.18,4.37,4.37,0,0,0-1,3,5.09,5.09,0,0,0,1.35,3.1A11.62,11.62,0,0,0-188.58,37.86Z"/><g class="cls-25"><rect class="cls-5" x="-534.8" y="-320" width="1328" height="1168"/></g><g class="cls-26"><g class="cls-27"><path class="cls-5" d="M44,4A40,40,0,1,1,4,44,40,40,0,0,1,44,4m0-4A44,44,0,1,0,88,44,44,44,0,0,0,44,0Z"/></g></g><polygon class="cls-18" points="61.58 17.6 35.21 24.2 26.42 43.97 38.48 40.23 30.82 59.35 40.22 55.77 37.41 76.93 49.78 48.26 44.68 49.84 56.03 31.77 48.53 33.85 61.58 17.6"/><path class="cls-29" d="M-368.56,157.31a9,9,0,0,0,3.79-5,16.66,16.66,0,0,1-5.47,2.21,8.39,8.39,0,0,0-6.29-2.87,8.86,8.86,0,0,0-8.61,9.09,9.44,9.44,0,0,0,.22,2.07,24.07,24.07,0,0,1-17.76-9.5,9.38,9.38,0,0,0-1.17,4.57,9.26,9.26,0,0,0,3.83,7.57,8.28,8.28,0,0,1-3.9-1.14v.11A9,9,0,0,0-397,173.3a7.74,7.74,0,0,1-2.27.32,7.88,7.88,0,0,1-1.62-.16,8.7,8.7,0,0,0,8,6.31,16.73,16.73,0,0,1-10.7,3.89,17.53,17.53,0,0,1-2.06-.12,23.56,23.56,0,0,0,13.21,4.08c15.85,0,24.52-13.85,24.52-25.86,0-.39,0-.79,0-1.17a18.07,18.07,0,0,0,4.3-4.71A16.53,16.53,0,0,1-368.56,157.31Z"/><g class="cls-30"><rect class="cls-31" x="-629.61" y="43.62" width="1328" height="1168"/></g><path class="cls-29" d="M-49.08,155.83a2.62,2.62,0,0,1-2.62,2.62,2.62,2.62,0,0,1-2.62-2.62,2.62,2.62,0,0,1,2.62-2.62A2.63,2.63,0,0,1-49.08,155.83ZM-63.36,175a7.34,7.34,0,0,1-7.34-7.34,7.34,7.34,0,0,1,7.34-7.34A7.34,7.34,0,0,1-56,167.66,7.34,7.34,0,0,1-63.36,175Zm0-18.64a11.3,11.3,0,0,0-11.3,11.3A11.3,11.3,0,0,0-63.36,179,11.31,11.31,0,0,0-52,167.66,11.3,11.3,0,0,0-63.36,156.36Zm0-10.74c-6,0-6.73,0-9.07.13a16.35,16.35,0,0,0-5.34,1,10.89,10.89,0,0,0-3.9,2.54,10.89,10.89,0,0,0-2.54,3.9,16.35,16.35,0,0,0-1,5.34c-.11,2.34-.13,3.09-.13,9.07s0,6.72.13,9.07a16.35,16.35,0,0,0,1,5.34,11,11,0,0,0,2.54,3.9,10.73,10.73,0,0,0,3.9,2.53,16.06,16.06,0,0,0,5.34,1c2.34.1,3.09.13,9.07.13s6.72,0,9.07-.13a16.06,16.06,0,0,0,5.34-1,10.81,10.81,0,0,0,3.9-2.53,10.81,10.81,0,0,0,2.53-3.9,16.06,16.06,0,0,0,1-5.34c.1-2.35.13-3.1.13-9.07s0-6.73-.13-9.07a16.06,16.06,0,0,0-1-5.34,10.73,10.73,0,0,0-2.53-3.9,11,11,0,0,0-3.9-2.54,16.35,16.35,0,0,0-5.34-1C-56.68,145.64-57.43,145.62-63.4,145.62Zm0,4c5.87,0,6.57,0,8.89.13a12.2,12.2,0,0,1,4.08.76,6.79,6.79,0,0,1,2.53,1.64,6.9,6.9,0,0,1,1.65,2.53,12.28,12.28,0,0,1,.76,4.09c.1,2.32.12,3,.12,8.89s0,6.57-.12,8.89a12.2,12.2,0,0,1-.76,4.08,6.81,6.81,0,0,1-1.65,2.53,6.81,6.81,0,0,1-2.53,1.65,12.2,12.2,0,0,1-4.08.76c-2.32.1-3,.12-8.89.12s-6.57,0-8.89-.12a12.28,12.28,0,0,1-4.09-.76,6.9,6.9,0,0,1-2.53-1.65,6.79,6.79,0,0,1-1.64-2.53,12.2,12.2,0,0,1-.76-4.08c-.11-2.32-.13-3-.13-8.89s0-6.57.13-8.89a12.28,12.28,0,0,1,.76-4.09,6.87,6.87,0,0,1,1.64-2.53,6.87,6.87,0,0,1,2.53-1.64,12.28,12.28,0,0,1,4.09-.76c2.32-.11,3-.13,8.89-.13"/><g class="cls-33"><rect class="cls-31" x="-547.4" y="43.62" width="1328" height="1168"/></g><path class="cls-29" d="M-258.21,187.62H-267V173.56c0-3.69-1.38-6.2-4.42-6.2a4.53,4.53,0,0,0-4.22,3.33,6.69,6.69,0,0,0-.19,2.22v14.71h-8.76s.11-24.91,0-27.18h8.76v4.27c.52-1.87,3.31-4.53,7.78-4.53,5.54,0,9.89,3.91,9.89,12.33Zm-35.29-30.57h-.05a4.51,4.51,0,0,1-4.66-4.71,4.55,4.55,0,0,1,4.77-4.72,4.53,4.53,0,0,1,4.7,4.71A4.55,4.55,0,0,1-293.5,157.05Zm-3.7,3.39h7.8v27.18h-7.8Z"/><g class="cls-35"><rect class="cls-31" x="-1122.21" y="43.62" width="1328" height="1168"/></g><path class="cls-29" d="M-151.26,163.91q-8.06,5.06-12.23,7.85c-.93.63-1.69,1.13-2.27,1.48a13.85,13.85,0,0,1-2.32,1.09,7.33,7.33,0,0,1-2.7.56h-.05a7.42,7.42,0,0,1-2.7-.56,14.24,14.24,0,0,1-2.32-1.09c-.58-.35-1.34-.85-2.27-1.48q-3.31-2.25-12.2-7.85a12.43,12.43,0,0,1-2.48-2v18a3.37,3.37,0,0,0,1.15,2.57,3.94,3.94,0,0,0,2.77,1.07h36.15a3.94,3.94,0,0,0,2.77-1.07A3.38,3.38,0,0,0-148.8,180v-18A13.89,13.89,0,0,1-151.26,163.91Zm-37.32-2.43c.56.37,2.23,1.45,5,3.24l6.44,4.15,1,.69q.8.54,1.32.87c.36.22.78.46,1.28.73a7.6,7.6,0,0,0,1.41.62,4.49,4.49,0,0,0,1.23.2h.05a4.37,4.37,0,0,0,1.23-.2,7.6,7.6,0,0,0,1.41-.62c.5-.27.93-.51,1.28-.73s.79-.51,1.32-.87.88-.59,1-.69l11.49-7.39a11.24,11.24,0,0,0,3-2.79,5.67,5.67,0,0,0,1.21-3.43,3.36,3.36,0,0,0-1.17-2.57,3.93,3.93,0,0,0-2.76-1.07h-36.15a3.59,3.59,0,0,0-2.9,1.18,4.37,4.37,0,0,0-1,3,5.11,5.11,0,0,0,1.35,3.1A11.62,11.62,0,0,0-188.58,161.48Z"/><g class="cls-37"><rect class="cls-31" x="-534.8" y="-196.38" width="1328" height="1168"/></g><circle class="cls-5" cx="151.4" cy="-75.18" r="44"/><g class="cls-39"><rect class="cls-5" x="-332.6" y="-199.18" width="1328" height="1168"/></g></svg>