<svg id="Layer_1" data-name="Layer 1" xmlns="http://www.w3.org/2000/svg" xmlns:xlink="http://www.w3.org/1999/xlink" viewBox="0 0 88 88"><defs><style>.cls-1,.cls-5{fill:none;}.cls-10,.cls-2,.cls-8{fill:#1a2966;}.cls-2,.cls-3,.cls-6{clip-rule:evenodd;}.cls-20,.cls-3,.cls-4{fill:#dc554f;}.cls-5{stroke:#fff;stroke-miterlimit:10;}.cls-31,.cls-33,.cls-6{fill:#fff;}.cls-7{clip-path:url(#clip-path);}.cls-20,.cls-31,.cls-8{fill-rule:evenodd;}.cls-9{clip-path:url(#clip-path-2);}.cls-11{clip-path:url(#clip-path-3);}.cls-12{clip-path:url(#clip-path-4);}.cls-13{clip-path:url(#clip-path-5);}.cls-14{clip-path:url(#clip-path-6);}.cls-15{clip-path:url(#clip-path-7);}.cls-16{clip-path:url(#clip-path-8);}.cls-17{clip-path:url(#clip-path-9);}.cls-18{clip-path:url(#clip-path-10);}.cls-19{clip-path:url(#clip-path-11);}.cls-21{clip-path:url(#clip-path-12);}.cls-22{clip-path:url(#clip-path-13);}.cls-23{clip-path:url(#clip-path-14);}.cls-24{clip-path:url(#clip-path-15);}.cls-25{clip-path:url(#clip-path-16);}.cls-26{clip-path:url(#clip-path-17);}.cls-27{clip-path:url(#clip-path-18);}.cls-28{clip-path:url(#clip-path-19);}.cls-29{clip-path:url(#clip-path-20);}.cls-30{clip-path:url(#clip-path-21);}.cls-32{clip-path:url(#clip-path-22);}.cls-34{clip-path:url(#clip-path-23);}.cls-35{clip-path:url(#clip-path-24);}.cls-36{clip-path:url(#clip-path-25);}.cls-37{clip-path:url(#clip-path-26);}.cls-38{clip-path:url(#clip-path-27);}.cls-39{clip-path:url(#clip-path-28);}.cls-40{clip-path:url(#clip-path-29);}</style><clipPath id="clip-path"><circle class="cls-1" cx="44" cy="-75.18" r="44"/></clipPath><clipPath id="clip-path-2"><path class="cls-2" d="M61.05-85.49a9.06,9.06,0,0,0,3.79-5,16.88,16.88,0,0,1-5.47,2.21,8.39,8.39,0,0,0-6.29-2.87,8.86,8.86,0,0,0-8.62,9.08A10,10,0,0,0,44.68-80a24.08,24.08,0,0,1-17.76-9.49,9.43,9.43,0,0,0-1.16,4.57,9.22,9.22,0,0,0,3.83,7.56,8.27,8.27,0,0,1-3.9-1.13v.11A9,9,0,0,0,32.6-69.5a8.09,8.09,0,0,1-2.27.32,8.56,8.56,0,0,1-1.62-.16,8.69,8.69,0,0,0,8,6.31,16.73,16.73,0,0,1-10.7,3.89A15.5,15.5,0,0,1,24-59.27a23.46,23.46,0,0,0,13.21,4.09C53.06-55.18,61.72-69,61.72-81c0-.4,0-.79,0-1.18a18,18,0,0,0,4.3-4.7A16.7,16.7,0,0,1,61.05-85.49Z"/></clipPath><clipPath id="clip-path-3"><circle class="cls-1" cx="366.21" cy="-75.18" r="44"/></clipPath><clipPath id="clip-path-4"><path class="cls-2" d="M380.52-87a2.62,2.62,0,0,1-2.62,2.62A2.62,2.62,0,0,1,375.28-87a2.62,2.62,0,0,1,2.62-2.62A2.62,2.62,0,0,1,380.52-87ZM366.25-67.8a7.34,7.34,0,0,1-7.34-7.34,7.34,7.34,0,0,1,7.34-7.34,7.34,7.34,0,0,1,7.34,7.34A7.34,7.34,0,0,1,366.25-67.8Zm0-18.65a11.32,11.32,0,0,0-11.31,11.31,11.31,11.31,0,0,0,11.31,11.3,11.3,11.3,0,0,0,11.3-11.3A11.31,11.31,0,0,0,366.25-86.45Zm0-10.73c-6,0-6.73,0-9.07.13a16.1,16.1,0,0,0-5.35,1,10.68,10.68,0,0,0-3.89,2.54,10.68,10.68,0,0,0-2.54,3.89,16.1,16.1,0,0,0-1,5.35c-.11,2.34-.13,3.09-.13,9.07s0,6.72.13,9.07a16.09,16.09,0,0,0,1,5.34,10.68,10.68,0,0,0,2.54,3.89,10.68,10.68,0,0,0,3.89,2.54,16.1,16.1,0,0,0,5.35,1c2.34.11,3.09.14,9.07.14s6.72,0,9.07-.14a16.09,16.09,0,0,0,5.34-1,10.68,10.68,0,0,0,3.89-2.54,10.68,10.68,0,0,0,2.54-3.89,16.09,16.09,0,0,0,1-5.34c.11-2.35.14-3.1.14-9.07s0-6.73-.14-9.07a16.1,16.1,0,0,0-1-5.35,10.68,10.68,0,0,0-2.54-3.89A10.68,10.68,0,0,0,380.62-96a16.09,16.09,0,0,0-5.34-1C372.93-97.16,372.18-97.18,366.21-97.18Zm0,4c5.87,0,6.57,0,8.89.13a12,12,0,0,1,4.08.76,6.67,6.67,0,0,1,2.53,1.64,6.81,6.81,0,0,1,1.65,2.53,12.09,12.09,0,0,1,.75,4.09c.11,2.32.13,3,.13,8.89s0,6.57-.13,8.89a12,12,0,0,1-.75,4.08,6.81,6.81,0,0,1-1.65,2.53A6.81,6.81,0,0,1,379.18-58a12,12,0,0,1-4.08.75c-2.32.11-3,.13-8.89.13s-6.57,0-8.89-.13a12.09,12.09,0,0,1-4.09-.75,6.81,6.81,0,0,1-2.53-1.65,6.67,6.67,0,0,1-1.64-2.53,12,12,0,0,1-.76-4.08c-.11-2.32-.13-3-.13-8.89s0-6.57.13-8.89a12,12,0,0,1,.76-4.09,6.67,6.67,0,0,1,1.64-2.53,6.67,6.67,0,0,1,2.53-1.64,12,12,0,0,1,4.09-.76c2.32-.11,3-.13,8.89-.13"/></clipPath><clipPath id="clip-path-5"><circle class="cls-1" cx="151.4" cy="-75.18" r="44"/></clipPath><clipPath id="clip-path-6"><path class="cls-2" d="M171.4-55.18h-8.84V-69.25c0-3.68-1.38-6.19-4.42-6.19a4.52,4.52,0,0,0-4.22,3.33,6.67,6.67,0,0,0-.19,2.22v14.71H145s.11-24.91,0-27.18h8.76v4.27c.51-1.87,3.31-4.53,7.78-4.53,5.54,0,9.89,3.91,9.89,12.33ZM136.11-85.76h-.06a4.5,4.5,0,0,1-4.65-4.7,4.55,4.55,0,0,1,4.76-4.72,4.53,4.53,0,0,1,4.71,4.71A4.54,4.54,0,0,1,136.11-85.76Zm-3.7,3.4h7.8v27.17h-7.8Z"/></clipPath><clipPath id="clip-path-7"><circle class="cls-1" cx="258.8" cy="-75.18" r="44"/></clipPath><clipPath id="clip-path-8"><path class="cls-2" d="M278.35-78.89q-8.06,5-12.23,7.84c-.93.64-1.69,1.14-2.27,1.49a13.85,13.85,0,0,1-2.32,1.09,7.63,7.63,0,0,1-2.7.56h-.05a7.54,7.54,0,0,1-2.7-.56,13.85,13.85,0,0,1-2.32-1.09c-.58-.35-1.34-.85-2.27-1.49q-3.31-2.25-12.21-7.84a12.4,12.4,0,0,1-2.48-2v18.05A3.38,3.38,0,0,0,238-60.25a3.94,3.94,0,0,0,2.77,1.07h36.15a3.94,3.94,0,0,0,2.77-1.07,3.37,3.37,0,0,0,1.15-2.57V-80.87A13.09,13.09,0,0,1,278.35-78.89ZM241-81.32l5,3.24c2.8,1.79,4.94,3.18,6.43,4.15.17.1.51.33,1,.69s1,.64,1.32.86.78.47,1.28.74a7.51,7.51,0,0,0,1.41.61,4.07,4.07,0,0,0,1.23.21h.05a4.18,4.18,0,0,0,1.23-.21,7.51,7.51,0,0,0,1.41-.61c.5-.27.92-.52,1.27-.74s.8-.5,1.33-.86l1-.69,11.5-7.39a11.28,11.28,0,0,0,3-2.8,5.7,5.7,0,0,0,1.2-3.43,3.4,3.4,0,0,0-1.16-2.57,4,4,0,0,0-2.76-1.06H240.73A3.63,3.63,0,0,0,237.82-90a4.36,4.36,0,0,0-1,3,5.07,5.07,0,0,0,1.35,3.1A11.7,11.7,0,0,0,241-81.32Z"/></clipPath><clipPath id="clip-path-9"><circle class="cls-1" cx="473.61" cy="-75.18" r="44"/></clipPath><clipPath id="clip-path-10"><circle class="cls-1" cx="44" cy="44" r="44"/></clipPath><clipPath id="clip-path-11"><rect class="cls-1" x="-200" y="-80" width="1328" height="1168"/></clipPath><clipPath id="clip-path-12"><path class="cls-3" d="M61.05,33.69a9,9,0,0,0,3.79-5,16.86,16.86,0,0,1-5.47,2.2A8.39,8.39,0,0,0,53.08,28a8.86,8.86,0,0,0-8.62,9.09,10.1,10.1,0,0,0,.22,2.07,24.09,24.09,0,0,1-17.76-9.5,9.48,9.48,0,0,0-1.16,4.57,9.24,9.24,0,0,0,3.83,7.57,8.28,8.28,0,0,1-3.9-1.14v.11a9,9,0,0,0,6.91,8.91,8.24,8.24,0,0,1-3.89.16,8.69,8.69,0,0,0,8,6.31A16.73,16.73,0,0,1,26.06,60,17.41,17.41,0,0,1,24,59.92,23.53,23.53,0,0,0,37.21,64c15.85,0,24.51-13.85,24.51-25.86,0-.39,0-.79,0-1.17A18.09,18.09,0,0,0,66,32.26,16.7,16.7,0,0,1,61.05,33.69Z"/></clipPath><clipPath id="clip-path-13"><rect class="cls-4" x="-200" y="-80" width="1328" height="1168"/></clipPath><clipPath id="clip-path-14"><circle class="cls-1" cx="366.21" cy="44" r="44"/></clipPath><clipPath id="clip-path-15"><path class="cls-3" d="M380.52,32.21a2.62,2.62,0,1,1-2.62-2.62A2.62,2.62,0,0,1,380.52,32.21ZM366.25,51.38A7.34,7.34,0,1,1,373.59,44,7.34,7.34,0,0,1,366.25,51.38Zm0-18.64A11.31,11.31,0,1,0,377.55,44,11.31,11.31,0,0,0,366.25,32.74Zm0-10.74c-6,0-6.73,0-9.07.13a16.07,16.07,0,0,0-5.35,1,11.23,11.23,0,0,0-6.43,6.43,16.09,16.09,0,0,0-1,5.34c-.11,2.35-.13,3.1-.13,9.07s0,6.72.13,9.07a16.09,16.09,0,0,0,1,5.34,11.23,11.23,0,0,0,6.43,6.43,16.07,16.07,0,0,0,5.35,1c2.34.1,3.09.13,9.07.13s6.72,0,9.07-.13a16.06,16.06,0,0,0,5.34-1,11.23,11.23,0,0,0,6.43-6.43,16.09,16.09,0,0,0,1-5.34c.11-2.35.14-3.1.14-9.07s0-6.72-.14-9.07a16.09,16.09,0,0,0-1-5.34,11.23,11.23,0,0,0-6.43-6.43,16.06,16.06,0,0,0-5.34-1C372.93,22,372.18,22,366.21,22Zm0,4c5.87,0,6.57,0,8.89.13a12.2,12.2,0,0,1,4.08.76A7.26,7.26,0,0,1,383.36,31a12,12,0,0,1,.75,4.08c.11,2.32.13,3,.13,8.89s0,6.57-.13,8.89a12,12,0,0,1-.75,4.08,7.26,7.26,0,0,1-4.18,4.18,12.2,12.2,0,0,1-4.08.76c-2.32.1-3,.13-8.89.13s-6.57,0-8.89-.13a12.28,12.28,0,0,1-4.09-.76,6.92,6.92,0,0,1-2.53-1.64A6.78,6.78,0,0,1,349.06,57a11.89,11.89,0,0,1-.76-4.08c-.11-2.32-.13-3-.13-8.89s0-6.57.13-8.89a11.89,11.89,0,0,1,.76-4.08,6.78,6.78,0,0,1,1.64-2.54,6.92,6.92,0,0,1,2.53-1.64,12.28,12.28,0,0,1,4.09-.76c2.32-.1,3-.13,8.89-.13"/></clipPath><clipPath id="clip-path-16"><circle class="cls-1" cx="151.4" cy="44" r="44"/></clipPath><clipPath id="clip-path-17"><path class="cls-3" d="M171.4,64h-8.84V49.94c0-3.68-1.38-6.19-4.42-6.19a4.52,4.52,0,0,0-4.22,3.33,6.64,6.64,0,0,0-.19,2.22V64H145s.11-24.91,0-27.17h8.76v4.26c.51-1.86,3.31-4.53,7.78-4.53,5.54,0,9.89,3.92,9.89,12.33ZM136.11,33.43h-.06a4.51,4.51,0,0,1-4.65-4.71,4.74,4.74,0,0,1,9.47,0A4.55,4.55,0,0,1,136.11,33.43Zm-3.7,3.4h7.8V64h-7.8Z"/></clipPath><clipPath id="clip-path-18"><circle class="cls-1" cx="258.8" cy="44" r="44"/></clipPath><clipPath id="clip-path-19"><path class="cls-3" d="M278.35,40.3q-8.06,5-12.23,7.84c-.93.63-1.69,1.13-2.27,1.48a14.61,14.61,0,0,1-2.32,1.1,7.6,7.6,0,0,1-2.7.55h-.05a7.52,7.52,0,0,1-2.7-.55,14.61,14.61,0,0,1-2.32-1.1c-.58-.35-1.34-.85-2.27-1.48q-3.31-2.25-12.21-7.84a13.15,13.15,0,0,1-2.48-2v18A3.38,3.38,0,0,0,238,58.93,3.94,3.94,0,0,0,240.73,60h36.15a3.94,3.94,0,0,0,2.77-1.07,3.37,3.37,0,0,0,1.15-2.57v-18A13.5,13.5,0,0,1,278.35,40.3ZM241,37.86q.83.55,5,3.24l6.43,4.15,1,.69q.79.54,1.32.87c.35.22.78.46,1.28.74a8.23,8.23,0,0,0,1.41.61,4,4,0,0,0,1.23.2h.05a4.14,4.14,0,0,0,1.23-.2,8.23,8.23,0,0,0,1.41-.61c.5-.28.92-.52,1.27-.74s.8-.51,1.33-.87l1-.69,11.5-7.39a11.24,11.24,0,0,0,3-2.79,5.73,5.73,0,0,0,1.2-3.43,3.38,3.38,0,0,0-1.16-2.57A4,4,0,0,0,276.88,28H240.73a3.63,3.63,0,0,0-2.91,1.18,4.37,4.37,0,0,0-1,3,5.09,5.09,0,0,0,1.35,3.1A11.65,11.65,0,0,0,241,37.86Z"/></clipPath><clipPath id="clip-path-20"><circle class="cls-1" cx="473.61" cy="44" r="44"/></clipPath><clipPath id="clip-path-21"><circle class="cls-5" cx="44" cy="167.62" r="44"/></clipPath><clipPath id="clip-path-22"><path class="cls-6" d="M61.05,157.31a9,9,0,0,0,3.79-5,16.66,16.66,0,0,1-5.47,2.21,8.39,8.39,0,0,0-6.29-2.87,8.86,8.86,0,0,0-8.62,9.09,10.1,10.1,0,0,0,.22,2.07,24.09,24.09,0,0,1-17.76-9.5,9.48,9.48,0,0,0-1.16,4.57,9.26,9.26,0,0,0,3.83,7.57,8.28,8.28,0,0,1-3.9-1.14v.11a9,9,0,0,0,6.91,8.91,8.24,8.24,0,0,1-3.89.16,8.69,8.69,0,0,0,8,6.31,16.73,16.73,0,0,1-10.7,3.89,17.41,17.41,0,0,1-2.06-.12,23.53,23.53,0,0,0,13.21,4.08c15.85,0,24.51-13.85,24.51-25.86,0-.39,0-.79,0-1.17a18.25,18.25,0,0,0,4.3-4.71A16.7,16.7,0,0,1,61.05,157.31Z"/></clipPath><clipPath id="clip-path-23"><circle class="cls-5" cx="366.21" cy="167.62" r="44"/></clipPath><clipPath id="clip-path-24"><path class="cls-6" d="M380.52,155.83a2.62,2.62,0,1,1-2.62-2.62A2.62,2.62,0,0,1,380.52,155.83ZM366.25,175a7.34,7.34,0,1,1,7.34-7.34A7.34,7.34,0,0,1,366.25,175Zm0-18.64a11.31,11.31,0,1,0,11.3,11.3A11.31,11.31,0,0,0,366.25,156.36Zm0-10.74c-6,0-6.73,0-9.07.13a16.36,16.36,0,0,0-5.35,1,10.94,10.94,0,0,0-3.89,2.54,10.63,10.63,0,0,0-2.54,3.9,16.09,16.09,0,0,0-1,5.34c-.11,2.34-.13,3.09-.13,9.07s0,6.72.13,9.07a16.09,16.09,0,0,0,1,5.34,11.23,11.23,0,0,0,6.43,6.43,16.07,16.07,0,0,0,5.35,1c2.34.1,3.09.13,9.07.13s6.72,0,9.07-.13a16.06,16.06,0,0,0,5.34-1,11.23,11.23,0,0,0,6.43-6.43,16.09,16.09,0,0,0,1-5.34c.11-2.35.14-3.1.14-9.07s0-6.73-.14-9.07a16.09,16.09,0,0,0-1-5.34,10.63,10.63,0,0,0-2.54-3.9,10.94,10.94,0,0,0-3.89-2.54,16.35,16.35,0,0,0-5.34-1C372.93,145.64,372.18,145.62,366.21,145.62Zm0,4c5.87,0,6.57,0,8.89.13a12.2,12.2,0,0,1,4.08.76,6.79,6.79,0,0,1,2.53,1.64,6.9,6.9,0,0,1,1.65,2.53,12.09,12.09,0,0,1,.75,4.09c.11,2.32.13,3,.13,8.89s0,6.57-.13,8.89a12,12,0,0,1-.75,4.08,7.33,7.33,0,0,1-4.18,4.18,12.2,12.2,0,0,1-4.08.76c-2.32.1-3,.12-8.89.12s-6.57,0-8.89-.12a12.28,12.28,0,0,1-4.09-.76,6.81,6.81,0,0,1-2.53-1.65,6.67,6.67,0,0,1-1.64-2.53,12,12,0,0,1-.76-4.08c-.11-2.32-.13-3-.13-8.89s0-6.57.13-8.89a12,12,0,0,1,.76-4.09,7.22,7.22,0,0,1,4.17-4.17,12.28,12.28,0,0,1,4.09-.76c2.32-.11,3-.13,8.89-.13"/></clipPath><clipPath id="clip-path-25"><circle class="cls-5" cx="151.4" cy="167.62" r="44"/></clipPath><clipPath id="clip-path-26"><path class="cls-6" d="M171.4,187.62h-8.84V173.56c0-3.69-1.38-6.2-4.42-6.2a4.53,4.53,0,0,0-4.22,3.33,6.69,6.69,0,0,0-.19,2.22v14.71H145s.11-24.91,0-27.18h8.76v4.27c.51-1.87,3.31-4.53,7.78-4.53,5.54,0,9.89,3.91,9.89,12.33Zm-35.29-30.57h-.06a4.79,4.79,0,1,1,.06,0Zm-3.7,3.39h7.8v27.18h-7.8Z"/></clipPath><clipPath id="clip-path-27"><circle class="cls-5" cx="258.8" cy="167.62" r="44"/></clipPath><clipPath id="clip-path-28"><path class="cls-6" d="M278.35,163.91q-8.06,5.06-12.23,7.85c-.93.63-1.69,1.13-2.27,1.48a13.85,13.85,0,0,1-2.32,1.09,7.42,7.42,0,0,1-2.7.56h-.05a7.33,7.33,0,0,1-2.7-.56,13.85,13.85,0,0,1-2.32-1.09c-.58-.35-1.34-.85-2.27-1.48q-3.31-2.25-12.21-7.85a12.73,12.73,0,0,1-2.48-2v18a3.38,3.38,0,0,0,1.16,2.57,3.94,3.94,0,0,0,2.77,1.07h36.15a3.94,3.94,0,0,0,2.77-1.07A3.37,3.37,0,0,0,280.8,180v-18A13.46,13.46,0,0,1,278.35,163.91ZM241,161.48q.83.56,5,3.24l6.43,4.15c.17.1.51.34,1,.69s1,.65,1.32.87.78.46,1.28.73a7.6,7.6,0,0,0,1.41.62,4.37,4.37,0,0,0,1.23.2h.05a4.49,4.49,0,0,0,1.23-.2,7.6,7.6,0,0,0,1.41-.62c.5-.27.92-.51,1.27-.73s.8-.51,1.33-.87l1-.69,11.5-7.39a11.24,11.24,0,0,0,3-2.79,5.73,5.73,0,0,0,1.2-3.43,3.38,3.38,0,0,0-1.16-2.57,3.93,3.93,0,0,0-2.76-1.07H240.73a3.63,3.63,0,0,0-2.91,1.18,4.37,4.37,0,0,0-1,3,5.11,5.11,0,0,0,1.35,3.1A11.65,11.65,0,0,0,241,161.48Z"/></clipPath><clipPath id="clip-path-29"><circle class="cls-5" cx="473.61" cy="167.62" r="44"/></clipPath></defs><path class="cls-8" d="M61.05-85.49a9.06,9.06,0,0,0,3.79-5,16.88,16.88,0,0,1-5.47,2.21,8.39,8.39,0,0,0-6.29-2.87,8.86,8.86,0,0,0-8.62,9.08A10,10,0,0,0,44.68-80a24.08,24.08,0,0,1-17.76-9.49,9.43,9.43,0,0,0-1.16,4.57,9.22,9.22,0,0,0,3.83,7.56,8.27,8.27,0,0,1-3.9-1.13v.11A9,9,0,0,0,32.6-69.5a8.09,8.09,0,0,1-2.27.32,8.56,8.56,0,0,1-1.62-.16,8.69,8.69,0,0,0,8,6.31,16.73,16.73,0,0,1-10.7,3.89A15.5,15.5,0,0,1,24-59.27a23.46,23.46,0,0,0,13.21,4.09C53.06-55.18,61.72-69,61.72-81c0-.4,0-.79,0-1.18a18,18,0,0,0,4.3-4.7A16.7,16.7,0,0,1,61.05-85.49Z"/><g class="cls-9"><rect class="cls-10" x="-200" y="-199.18" width="1328" height="1168"/></g><path class="cls-8" d="M380.52-87a2.62,2.62,0,0,1-2.62,2.62A2.62,2.62,0,0,1,375.28-87a2.62,2.62,0,0,1,2.62-2.62A2.62,2.62,0,0,1,380.52-87ZM366.25-67.8a7.34,7.34,0,0,1-7.34-7.34,7.34,7.34,0,0,1,7.34-7.34,7.34,7.34,0,0,1,7.34,7.34A7.34,7.34,0,0,1,366.25-67.8Zm0-18.65a11.32,11.32,0,0,0-11.31,11.31,11.31,11.31,0,0,0,11.31,11.3,11.3,11.3,0,0,0,11.3-11.3A11.31,11.31,0,0,0,366.25-86.45Zm0-10.73c-6,0-6.73,0-9.07.13a16.1,16.1,0,0,0-5.35,1,10.68,10.68,0,0,0-3.89,2.54,10.68,10.68,0,0,0-2.54,3.89,16.1,16.1,0,0,0-1,5.35c-.11,2.34-.13,3.09-.13,9.07s0,6.72.13,9.07a16.09,16.09,0,0,0,1,5.34,10.68,10.68,0,0,0,2.54,3.89,10.68,10.68,0,0,0,3.89,2.54,16.1,16.1,0,0,0,5.35,1c2.34.11,3.09.14,9.07.14s6.72,0,9.07-.14a16.09,16.09,0,0,0,5.34-1,10.68,10.68,0,0,0,3.89-2.54,10.68,10.68,0,0,0,2.54-3.89,16.09,16.09,0,0,0,1-5.34c.11-2.35.14-3.1.14-9.07s0-6.73-.14-9.07a16.1,16.1,0,0,0-1-5.35,10.68,10.68,0,0,0-2.54-3.89A10.68,10.68,0,0,0,380.62-96a16.09,16.09,0,0,0-5.34-1C372.93-97.16,372.18-97.18,366.21-97.18Zm0,4c5.87,0,6.57,0,8.89.13a12,12,0,0,1,4.08.76,6.67,6.67,0,0,1,2.53,1.64,6.81,6.81,0,0,1,1.65,2.53,12.09,12.09,0,0,1,.75,4.09c.11,2.32.13,3,.13,8.89s0,6.57-.13,8.89a12,12,0,0,1-.75,4.08,6.81,6.81,0,0,1-1.65,2.53A6.81,6.81,0,0,1,379.18-58a12,12,0,0,1-4.08.75c-2.32.11-3,.13-8.89.13s-6.57,0-8.89-.13a12.09,12.09,0,0,1-4.09-.75,6.81,6.81,0,0,1-2.53-1.65,6.67,6.67,0,0,1-1.64-2.53,12,12,0,0,1-.76-4.08c-.11-2.32-.13-3-.13-8.89s0-6.57.13-8.89a12,12,0,0,1,.76-4.09,6.67,6.67,0,0,1,1.64-2.53,6.67,6.67,0,0,1,2.53-1.64,12,12,0,0,1,4.09-.76c2.32-.11,3-.13,8.89-.13"/><g class="cls-12"><rect class="cls-10" x="-117.79" y="-199.18" width="1328" height="1168"/></g><path class="cls-8" d="M171.4-55.18h-8.84V-69.25c0-3.68-1.38-6.19-4.42-6.19a4.52,4.52,0,0,0-4.22,3.33,6.67,6.67,0,0,0-.19,2.22v14.71H145s.11-24.91,0-27.18h8.76v4.27c.51-1.87,3.31-4.53,7.78-4.53,5.54,0,9.89,3.91,9.89,12.33ZM136.11-85.76h-.06a4.5,4.5,0,0,1-4.65-4.7,4.55,4.55,0,0,1,4.76-4.72,4.53,4.53,0,0,1,4.71,4.71A4.54,4.54,0,0,1,136.11-85.76Zm-3.7,3.4h7.8v27.17h-7.8Z"/><g class="cls-14"><rect class="cls-10" x="-692.6" y="-199.18" width="1328" height="1168"/></g><path class="cls-8" d="M278.35-78.89q-8.06,5-12.23,7.84c-.93.64-1.69,1.14-2.27,1.49a13.85,13.85,0,0,1-2.32,1.09,7.63,7.63,0,0,1-2.7.56h-.05a7.54,7.54,0,0,1-2.7-.56,13.85,13.85,0,0,1-2.32-1.09c-.58-.35-1.34-.85-2.27-1.49q-3.31-2.25-12.21-7.84a12.4,12.4,0,0,1-2.48-2v18.05A3.38,3.38,0,0,0,238-60.25a3.94,3.94,0,0,0,2.77,1.07h36.15a3.94,3.94,0,0,0,2.77-1.07,3.37,3.37,0,0,0,1.15-2.57V-80.87A13.09,13.09,0,0,1,278.35-78.89ZM241-81.32l5,3.24c2.8,1.79,4.94,3.18,6.43,4.15.17.1.51.33,1,.69s1,.64,1.32.86.78.47,1.28.74a7.51,7.51,0,0,0,1.41.61,4.07,4.07,0,0,0,1.23.21h.05a4.18,4.18,0,0,0,1.23-.21,7.51,7.51,0,0,0,1.41-.61c.5-.27.92-.52,1.27-.74s.8-.5,1.33-.86l1-.69,11.5-7.39a11.28,11.28,0,0,0,3-2.8,5.7,5.7,0,0,0,1.2-3.43,3.4,3.4,0,0,0-1.16-2.57,4,4,0,0,0-2.76-1.06H240.73A3.63,3.63,0,0,0,237.82-90a4.36,4.36,0,0,0-1,3,5.07,5.07,0,0,0,1.35,3.1A11.7,11.7,0,0,0,241-81.32Z"/><g class="cls-16"><rect class="cls-10" x="-105.2" y="-439.18" width="1328" height="1168"/></g><g class="cls-18"><g class="cls-19"><path class="cls-4" d="M44,4A40,40,0,1,1,4,44,40,40,0,0,1,44,4m0-4A44,44,0,1,0,88,44,44,44,0,0,0,44,0Z"/></g></g><path class="cls-20" d="M61.05,33.69a9,9,0,0,0,3.79-5,16.86,16.86,0,0,1-5.47,2.2A8.39,8.39,0,0,0,53.08,28a8.86,8.86,0,0,0-8.62,9.09,10.1,10.1,0,0,0,.22,2.07,24.09,24.09,0,0,1-17.76-9.5,9.48,9.48,0,0,0-1.16,4.57,9.24,9.24,0,0,0,3.83,7.57,8.28,8.28,0,0,1-3.9-1.14v.11a9,9,0,0,0,6.91,8.91,8.24,8.24,0,0,1-3.89.16,8.69,8.69,0,0,0,8,6.31A16.73,16.73,0,0,1,26.06,60,17.41,17.41,0,0,1,24,59.92,23.53,23.53,0,0,0,37.21,64c15.85,0,24.51-13.85,24.51-25.86,0-.39,0-.79,0-1.17A18.09,18.09,0,0,0,66,32.26,16.7,16.7,0,0,1,61.05,33.69Z"/><g class="cls-21"><rect class="cls-4" x="-200" y="-80" width="1328" height="1168"/><g class="cls-22"><rect class="cls-4" x="14" y="18" width="62" height="56"/></g></g><path class="cls-20" d="M380.52,32.21a2.62,2.62,0,1,1-2.62-2.62A2.62,2.62,0,0,1,380.52,32.21ZM366.25,51.38A7.34,7.34,0,1,1,373.59,44,7.34,7.34,0,0,1,366.25,51.38Zm0-18.64A11.31,11.31,0,1,0,377.55,44,11.31,11.31,0,0,0,366.25,32.74Zm0-10.74c-6,0-6.73,0-9.07.13a16.07,16.07,0,0,0-5.35,1,11.23,11.23,0,0,0-6.43,6.43,16.09,16.09,0,0,0-1,5.34c-.11,2.35-.13,3.1-.13,9.07s0,6.72.13,9.07a16.09,16.09,0,0,0,1,5.34,11.23,11.23,0,0,0,6.43,6.43,16.07,16.07,0,0,0,5.35,1c2.34.1,3.09.13,9.07.13s6.72,0,9.07-.13a16.06,16.06,0,0,0,5.34-1,11.23,11.23,0,0,0,6.43-6.43,16.09,16.09,0,0,0,1-5.34c.11-2.35.14-3.1.14-9.07s0-6.72-.14-9.07a16.09,16.09,0,0,0-1-5.34,11.23,11.23,0,0,0-6.43-6.43,16.06,16.06,0,0,0-5.34-1C372.93,22,372.18,22,366.21,22Zm0,4c5.87,0,6.57,0,8.89.13a12.2,12.2,0,0,1,4.08.76A7.26,7.26,0,0,1,383.36,31a12,12,0,0,1,.75,4.08c.11,2.32.13,3,.13,8.89s0,6.57-.13,8.89a12,12,0,0,1-.75,4.08,7.26,7.26,0,0,1-4.18,4.18,12.2,12.2,0,0,1-4.08.76c-2.32.1-3,.13-8.89.13s-6.57,0-8.89-.13a12.28,12.28,0,0,1-4.09-.76,6.92,6.92,0,0,1-2.53-1.64A6.78,6.78,0,0,1,349.06,57a11.89,11.89,0,0,1-.76-4.08c-.11-2.32-.13-3-.13-8.89s0-6.57.13-8.89a11.89,11.89,0,0,1,.76-4.08,6.78,6.78,0,0,1,1.64-2.54,6.92,6.92,0,0,1,2.53-1.64,12.28,12.28,0,0,1,4.09-.76c2.32-.1,3-.13,8.89-.13"/><g class="cls-24"><rect class="cls-4" x="-117.79" y="-80" width="1328" height="1168"/></g><path class="cls-20" d="M171.4,64h-8.84V49.94c0-3.68-1.38-6.19-4.42-6.19a4.52,4.52,0,0,0-4.22,3.33,6.64,6.64,0,0,0-.19,2.22V64H145s.11-24.91,0-27.17h8.76v4.26c.51-1.86,3.31-4.53,7.78-4.53,5.54,0,9.89,3.92,9.89,12.33ZM136.11,33.43h-.06a4.51,4.51,0,0,1-4.65-4.71,4.74,4.74,0,0,1,9.47,0A4.55,4.55,0,0,1,136.11,33.43Zm-3.7,3.4h7.8V64h-7.8Z"/><g class="cls-26"><rect class="cls-4" x="-692.6" y="-80" width="1328" height="1168"/></g><path class="cls-20" d="M278.35,40.3q-8.06,5-12.23,7.84c-.93.63-1.69,1.13-2.27,1.48a14.61,14.61,0,0,1-2.32,1.1,7.6,7.6,0,0,1-2.7.55h-.05a7.52,7.52,0,0,1-2.7-.55,14.61,14.61,0,0,1-2.32-1.1c-.58-.35-1.34-.85-2.27-1.48q-3.31-2.25-12.21-7.84a13.15,13.15,0,0,1-2.48-2v18A3.38,3.38,0,0,0,238,58.93,3.94,3.94,0,0,0,240.73,60h36.15a3.94,3.94,0,0,0,2.77-1.07,3.37,3.37,0,0,0,1.15-2.57v-18A13.5,13.5,0,0,1,278.35,40.3ZM241,37.86q.83.55,5,3.24l6.43,4.15,1,.69q.79.54,1.32.87c.35.22.78.46,1.28.74a8.23,8.23,0,0,0,1.41.61,4,4,0,0,0,1.23.2h.05a4.14,4.14,0,0,0,1.23-.2,8.23,8.23,0,0,0,1.41-.61c.5-.28.92-.52,1.27-.74s.8-.51,1.33-.87l1-.69,11.5-7.39a11.24,11.24,0,0,0,3-2.79,5.73,5.73,0,0,0,1.2-3.43,3.38,3.38,0,0,0-1.16-2.57A4,4,0,0,0,276.88,28H240.73a3.63,3.63,0,0,0-2.91,1.18,4.37,4.37,0,0,0-1,3,5.09,5.09,0,0,0,1.35,3.1A11.65,11.65,0,0,0,241,37.86Z"/><g class="cls-28"><rect class="cls-4" x="-105.2" y="-320" width="1328" height="1168"/></g><g class="cls-30"><rect class="cls-5" x="-200" y="43.62" width="1328" height="1168"/></g><circle class="cls-5" cx="44" cy="167.62" r="44"/><path class="cls-31" d="M61.05,157.31a9,9,0,0,0,3.79-5,16.66,16.66,0,0,1-5.47,2.21,8.39,8.39,0,0,0-6.29-2.87,8.86,8.86,0,0,0-8.62,9.09,10.1,10.1,0,0,0,.22,2.07,24.09,24.09,0,0,1-17.76-9.5,9.48,9.48,0,0,0-1.16,4.57,9.26,9.26,0,0,0,3.83,7.57,8.28,8.28,0,0,1-3.9-1.14v.11a9,9,0,0,0,6.91,8.91,8.24,8.24,0,0,1-3.89.16,8.69,8.69,0,0,0,8,6.31,16.73,16.73,0,0,1-10.7,3.89,17.41,17.41,0,0,1-2.06-.12,23.53,23.53,0,0,0,13.21,4.08c15.85,0,24.51-13.85,24.51-25.86,0-.39,0-.79,0-1.17a18.25,18.25,0,0,0,4.3-4.71A16.7,16.7,0,0,1,61.05,157.31Z"/><g class="cls-32"><rect class="cls-33" x="-200" y="43.62" width="1328" height="1168"/></g><g class="cls-34"><rect class="cls-5" x="-117.79" y="43.62" width="1328" height="1168"/></g><circle class="cls-5" cx="366.21" cy="167.62" r="44"/><path class="cls-31" d="M380.52,155.83a2.62,2.62,0,1,1-2.62-2.62A2.62,2.62,0,0,1,380.52,155.83ZM366.25,175a7.34,7.34,0,1,1,7.34-7.34A7.34,7.34,0,0,1,366.25,175Zm0-18.64a11.31,11.31,0,1,0,11.3,11.3A11.31,11.31,0,0,0,366.25,156.36Zm0-10.74c-6,0-6.73,0-9.07.13a16.36,16.36,0,0,0-5.35,1,10.94,10.94,0,0,0-3.89,2.54,10.63,10.63,0,0,0-2.54,3.9,16.09,16.09,0,0,0-1,5.34c-.11,2.34-.13,3.09-.13,9.07s0,6.72.13,9.07a16.09,16.09,0,0,0,1,5.34,11.23,11.23,0,0,0,6.43,6.43,16.07,16.07,0,0,0,5.35,1c2.34.1,3.09.13,9.07.13s6.72,0,9.07-.13a16.06,16.06,0,0,0,5.34-1,11.23,11.23,0,0,0,6.43-6.43,16.09,16.09,0,0,0,1-5.34c.11-2.35.14-3.1.14-9.07s0-6.73-.14-9.07a16.09,16.09,0,0,0-1-5.34,10.63,10.63,0,0,0-2.54-3.9,10.94,10.94,0,0,0-3.89-2.54,16.35,16.35,0,0,0-5.34-1C372.93,145.64,372.18,145.62,366.21,145.62Zm0,4c5.87,0,6.57,0,8.89.13a12.2,12.2,0,0,1,4.08.76,6.79,6.79,0,0,1,2.53,1.64,6.9,6.9,0,0,1,1.65,2.53,12.09,12.09,0,0,1,.75,4.09c.11,2.32.13,3,.13,8.89s0,6.57-.13,8.89a12,12,0,0,1-.75,4.08,7.33,7.33,0,0,1-4.18,4.18,12.2,12.2,0,0,1-4.08.76c-2.32.1-3,.12-8.89.12s-6.57,0-8.89-.12a12.28,12.28,0,0,1-4.09-.76,6.81,6.81,0,0,1-2.53-1.65,6.67,6.67,0,0,1-1.64-2.53,12,12,0,0,1-.76-4.08c-.11-2.32-.13-3-.13-8.89s0-6.57.13-8.89a12,12,0,0,1,.76-4.09,7.22,7.22,0,0,1,4.17-4.17,12.28,12.28,0,0,1,4.09-.76c2.32-.11,3-.13,8.89-.13"/><g class="cls-35"><rect class="cls-33" x="-117.79" y="43.62" width="1328" height="1168"/></g><g class="cls-36"><rect class="cls-5" x="-692.6" y="43.62" width="1328" height="1168"/></g><circle class="cls-5" cx="151.4" cy="167.62" r="44"/><path class="cls-31" d="M171.4,187.62h-8.84V173.56c0-3.69-1.38-6.2-4.42-6.2a4.53,4.53,0,0,0-4.22,3.33,6.69,6.69,0,0,0-.19,2.22v14.71H145s.11-24.91,0-27.18h8.76v4.27c.51-1.87,3.31-4.53,7.78-4.53,5.54,0,9.89,3.91,9.89,12.33Zm-35.29-30.57h-.06a4.79,4.79,0,1,1,.06,0Zm-3.7,3.39h7.8v27.18h-7.8Z"/><g class="cls-37"><rect class="cls-33" x="-692.6" y="43.62" width="1328" height="1168"/></g><g class="cls-38"><rect class="cls-5" x="-105.2" y="-196.38" width="1328" height="1168"/></g><circle class="cls-5" cx="258.8" cy="167.62" r="44"/><path class="cls-31" d="M278.35,163.91q-8.06,5.06-12.23,7.85c-.93.63-1.69,1.13-2.27,1.48a13.85,13.85,0,0,1-2.32,1.09,7.42,7.42,0,0,1-2.7.56h-.05a7.33,7.33,0,0,1-2.7-.56,13.85,13.85,0,0,1-2.32-1.09c-.58-.35-1.34-.85-2.27-1.48q-3.31-2.25-12.21-7.85a12.73,12.73,0,0,1-2.48-2v18a3.38,3.38,0,0,0,1.16,2.57,3.94,3.94,0,0,0,2.77,1.07h36.15a3.94,3.94,0,0,0,2.77-1.07A3.37,3.37,0,0,0,280.8,180v-18A13.46,13.46,0,0,1,278.35,163.91ZM241,161.48q.83.56,5,3.24l6.43,4.15c.17.1.51.34,1,.69s1,.65,1.32.87.78.46,1.28.73a7.6,7.6,0,0,0,1.41.62,4.37,4.37,0,0,0,1.23.2h.05a4.49,4.49,0,0,0,1.23-.2,7.6,7.6,0,0,0,1.41-.62c.5-.27.92-.51,1.27-.73s.8-.51,1.33-.87l1-.69,11.5-7.39a11.24,11.24,0,0,0,3-2.79,5.73,5.73,0,0,0,1.2-3.43,3.38,3.38,0,0,0-1.16-2.57,3.93,3.93,0,0,0-2.76-1.07H240.73a3.63,3.63,0,0,0-2.91,1.18,4.37,4.37,0,0,0-1,3,5.11,5.11,0,0,0,1.35,3.1A11.65,11.65,0,0,0,241,161.48Z"/><g class="cls-39"><rect class="cls-33" x="-105.2" y="-196.38" width="1328" height="1168"/></g><g class="cls-40"><rect class="cls-5" x="-10.39" y="43.62" width="1328" height="1168"/></g><circle class="cls-5" cx="473.61" cy="167.62" r="44"/></svg>