<svg id="Layer_1" data-name="Layer 1" xmlns="http://www.w3.org/2000/svg" xmlns:xlink="http://www.w3.org/1999/xlink" viewBox="0 0 88 88"><defs><style>.cls-1,.cls-5{fill:none;}.cls-2,.cls-4,.cls-9{fill:#1a2966;}.cls-2,.cls-3,.cls-6{clip-rule:evenodd;}.cls-20,.cls-22,.cls-3{fill:#dc554f;}.cls-5{stroke:#fff;stroke-miterlimit:10;}.cls-31,.cls-33,.cls-6{fill:#fff;}.cls-7{clip-path:url(#clip-path);}.cls-8{clip-path:url(#clip-path-2);}.cls-20,.cls-31,.cls-9{fill-rule:evenodd;}.cls-10{clip-path:url(#clip-path-3);}.cls-11{clip-path:url(#clip-path-4);}.cls-12{clip-path:url(#clip-path-5);}.cls-13{clip-path:url(#clip-path-6);}.cls-14{clip-path:url(#clip-path-7);}.cls-15{clip-path:url(#clip-path-8);}.cls-16{clip-path:url(#clip-path-9);}.cls-17{clip-path:url(#clip-path-10);}.cls-18{clip-path:url(#clip-path-11);}.cls-19{clip-path:url(#clip-path-12);}.cls-21{clip-path:url(#clip-path-13);}.cls-23{clip-path:url(#clip-path-14);}.cls-24{clip-path:url(#clip-path-15);}.cls-25{clip-path:url(#clip-path-16);}.cls-26{clip-path:url(#clip-path-17);}.cls-27{clip-path:url(#clip-path-18);}.cls-28{clip-path:url(#clip-path-19);}.cls-29{clip-path:url(#clip-path-20);}.cls-30{clip-path:url(#clip-path-21);}.cls-32{clip-path:url(#clip-path-22);}</style><clipPath id="clip-path"><circle class="cls-1" cx="44" cy="44" r="44"/></clipPath><clipPath id="clip-path-2"><rect class="cls-1" x="-200" y="-80" width="1328" height="1168"/></clipPath><clipPath id="clip-path-3"><path class="cls-2" d="M61.05,33.69a9,9,0,0,0,3.79-5,16.86,16.86,0,0,1-5.47,2.2A8.39,8.39,0,0,0,53.08,28a8.86,8.86,0,0,0-8.62,9.09,10.1,10.1,0,0,0,.22,2.07,24.09,24.09,0,0,1-17.76-9.5,9.48,9.48,0,0,0-1.16,4.57,9.24,9.24,0,0,0,3.83,7.57,8.28,8.28,0,0,1-3.9-1.14v.11a9,9,0,0,0,6.91,8.91,8.24,8.24,0,0,1-3.89.16,8.69,8.69,0,0,0,8,6.31A16.73,16.73,0,0,1,26.06,60,17.41,17.41,0,0,1,24,59.92,23.53,23.53,0,0,0,37.21,64c15.85,0,24.51-13.85,24.51-25.86,0-.39,0-.79,0-1.17A18.09,18.09,0,0,0,66,32.26,16.7,16.7,0,0,1,61.05,33.69Z"/></clipPath><clipPath id="clip-path-4"><rect class="cls-4" x="-200" y="-80" width="1328" height="1168"/></clipPath><clipPath id="clip-path-5"><circle class="cls-1" cx="366.21" cy="44" r="44"/></clipPath><clipPath id="clip-path-6"><path class="cls-2" d="M380.52,32.21a2.62,2.62,0,1,1-2.62-2.62A2.62,2.62,0,0,1,380.52,32.21ZM366.25,51.38A7.34,7.34,0,1,1,373.59,44,7.34,7.34,0,0,1,366.25,51.38Zm0-18.64A11.31,11.31,0,1,0,377.55,44,11.31,11.31,0,0,0,366.25,32.74Zm0-10.74c-6,0-6.73,0-9.07.13a16.07,16.07,0,0,0-5.35,1,11.23,11.23,0,0,0-6.43,6.43,16.09,16.09,0,0,0-1,5.34c-.11,2.35-.13,3.1-.13,9.07s0,6.72.13,9.07a16.09,16.09,0,0,0,1,5.34,11.23,11.23,0,0,0,6.43,6.43,16.07,16.07,0,0,0,5.35,1c2.34.1,3.09.13,9.07.13s6.72,0,9.07-.13a16.06,16.06,0,0,0,5.34-1,11.23,11.23,0,0,0,6.43-6.43,16.09,16.09,0,0,0,1-5.34c.11-2.35.14-3.1.14-9.07s0-6.72-.14-9.07a16.09,16.09,0,0,0-1-5.34,11.23,11.23,0,0,0-6.43-6.43,16.06,16.06,0,0,0-5.34-1C372.93,22,372.18,22,366.21,22Zm0,4c5.87,0,6.57,0,8.89.13a12.2,12.2,0,0,1,4.08.76A7.26,7.26,0,0,1,383.36,31a12,12,0,0,1,.75,4.08c.11,2.32.13,3,.13,8.89s0,6.57-.13,8.89a12,12,0,0,1-.75,4.08,7.26,7.26,0,0,1-4.18,4.18,12.2,12.2,0,0,1-4.08.76c-2.32.1-3,.13-8.89.13s-6.57,0-8.89-.13a12.28,12.28,0,0,1-4.09-.76,6.92,6.92,0,0,1-2.53-1.64A6.78,6.78,0,0,1,349.06,57a11.89,11.89,0,0,1-.76-4.08c-.11-2.32-.13-3-.13-8.89s0-6.57.13-8.89a11.89,11.89,0,0,1,.76-4.08,6.78,6.78,0,0,1,1.64-2.54,6.92,6.92,0,0,1,2.53-1.64,12.28,12.28,0,0,1,4.09-.76c2.32-.1,3-.13,8.89-.13"/></clipPath><clipPath id="clip-path-7"><circle class="cls-1" cx="151.4" cy="44" r="44"/></clipPath><clipPath id="clip-path-8"><path class="cls-2" d="M171.4,64h-8.84V49.94c0-3.68-1.38-6.19-4.42-6.19a4.52,4.52,0,0,0-4.22,3.33,6.64,6.64,0,0,0-.19,2.22V64H145s.11-24.91,0-27.17h8.76v4.26c.51-1.86,3.31-4.53,7.78-4.53,5.54,0,9.89,3.92,9.89,12.33ZM136.11,33.43h-.06a4.51,4.51,0,0,1-4.65-4.71,4.74,4.74,0,0,1,9.47,0A4.55,4.55,0,0,1,136.11,33.43Zm-3.7,3.4h7.8V64h-7.8Z"/></clipPath><clipPath id="clip-path-9"><circle class="cls-1" cx="258.8" cy="44" r="44"/></clipPath><clipPath id="clip-path-10"><path class="cls-2" d="M278.35,40.3q-8.06,5-12.23,7.84c-.93.63-1.69,1.13-2.27,1.48a14.61,14.61,0,0,1-2.32,1.1,7.6,7.6,0,0,1-2.7.55h-.05a7.52,7.52,0,0,1-2.7-.55,14.61,14.61,0,0,1-2.32-1.1c-.58-.35-1.34-.85-2.27-1.48q-3.31-2.25-12.21-7.84a13.15,13.15,0,0,1-2.48-2v18A3.38,3.38,0,0,0,238,58.93,3.94,3.94,0,0,0,240.73,60h36.15a3.94,3.94,0,0,0,2.77-1.07,3.37,3.37,0,0,0,1.15-2.57v-18A13.5,13.5,0,0,1,278.35,40.3ZM241,37.86q.83.55,5,3.24l6.43,4.15,1,.69q.79.54,1.32.87c.35.22.78.46,1.28.74a8.23,8.23,0,0,0,1.41.61,4,4,0,0,0,1.23.2h.05a4.14,4.14,0,0,0,1.23-.2,8.23,8.23,0,0,0,1.41-.61c.5-.28.92-.52,1.27-.74s.8-.51,1.33-.87l1-.69,11.5-7.39a11.24,11.24,0,0,0,3-2.79,5.73,5.73,0,0,0,1.2-3.43,3.38,3.38,0,0,0-1.16-2.57A4,4,0,0,0,276.88,28H240.73a3.63,3.63,0,0,0-2.91,1.18,4.37,4.37,0,0,0-1,3,5.09,5.09,0,0,0,1.35,3.1A11.65,11.65,0,0,0,241,37.86Z"/></clipPath><clipPath id="clip-path-11"><circle class="cls-1" cx="473.61" cy="44" r="44"/></clipPath><clipPath id="clip-path-12"><circle class="cls-1" cx="44" cy="163.18" r="44"/></clipPath><clipPath id="clip-path-13"><path class="cls-3" d="M61.05,152.88a9.06,9.06,0,0,0,3.79-5,16.64,16.64,0,0,1-5.47,2.2,8.42,8.42,0,0,0-6.29-2.87,8.86,8.86,0,0,0-8.62,9.09,10,10,0,0,0,.22,2.07,24.08,24.08,0,0,1-17.76-9.49,9.43,9.43,0,0,0-1.16,4.57A9.22,9.22,0,0,0,29.59,161a8.27,8.27,0,0,1-3.9-1.13V160a9,9,0,0,0,6.91,8.91,8.09,8.09,0,0,1-2.27.32,8.56,8.56,0,0,1-1.62-.16,8.69,8.69,0,0,0,8,6.31,16.73,16.73,0,0,1-10.7,3.89A15.5,15.5,0,0,1,24,179.1a23.45,23.45,0,0,0,13.21,4.08c15.85,0,24.51-13.84,24.51-25.85,0-.4,0-.79,0-1.18a18,18,0,0,0,4.3-4.7A16.7,16.7,0,0,1,61.05,152.88Z"/></clipPath><clipPath id="clip-path-14"><circle class="cls-1" cx="366.21" cy="163.18" r="44"/></clipPath><clipPath id="clip-path-15"><path class="cls-3" d="M380.52,151.4a2.62,2.62,0,1,1-2.62-2.62A2.62,2.62,0,0,1,380.52,151.4Zm-14.27,19.17a7.34,7.34,0,1,1,7.34-7.34A7.34,7.34,0,0,1,366.25,170.57Zm0-18.65a11.31,11.31,0,1,0,11.3,11.31A11.31,11.31,0,0,0,366.25,151.92Zm0-10.74c-6,0-6.73,0-9.07.14a15.85,15.85,0,0,0-5.35,1,11.31,11.31,0,0,0-6.43,6.43,16.09,16.09,0,0,0-1,5.34c-.11,2.35-.13,3.1-.13,9.07s0,6.73.13,9.08a16.09,16.09,0,0,0,1,5.34,11.31,11.31,0,0,0,6.43,6.43,16.1,16.1,0,0,0,5.35,1c2.34.11,3.09.13,9.07.13s6.72,0,9.07-.13a16.09,16.09,0,0,0,5.34-1,11.31,11.31,0,0,0,6.43-6.43,16.09,16.09,0,0,0,1-5.34c.11-2.35.14-3.1.14-9.08s0-6.72-.14-9.07a16.09,16.09,0,0,0-1-5.34,11.31,11.31,0,0,0-6.43-6.43,15.84,15.84,0,0,0-5.34-1C372.93,141.21,372.18,141.18,366.21,141.18Zm0,4c5.87,0,6.57,0,8.89.13a12,12,0,0,1,4.08.75,7.33,7.33,0,0,1,4.18,4.18,12,12,0,0,1,.75,4.08c.11,2.32.13,3,.13,8.89s0,6.57-.13,8.89a12.09,12.09,0,0,1-.75,4.09,6.81,6.81,0,0,1-1.65,2.53,6.67,6.67,0,0,1-2.53,1.64,12,12,0,0,1-4.08.76c-2.32.11-3,.13-8.89.13s-6.57,0-8.89-.13a12,12,0,0,1-4.09-.76,7.22,7.22,0,0,1-4.17-4.17,12,12,0,0,1-.76-4.09c-.11-2.32-.13-3-.13-8.89s0-6.57.13-8.89a12,12,0,0,1,.76-4.08,6.67,6.67,0,0,1,1.64-2.53,6.81,6.81,0,0,1,2.53-1.65,12.09,12.09,0,0,1,4.09-.75c2.32-.11,3-.13,8.89-.13"/></clipPath><clipPath id="clip-path-16"><circle class="cls-1" cx="151.4" cy="163.18" r="44"/></clipPath><clipPath id="clip-path-17"><path class="cls-3" d="M171.4,183.18h-8.84V169.12c0-3.68-1.38-6.19-4.42-6.19a4.52,4.52,0,0,0-4.22,3.33,6.64,6.64,0,0,0-.19,2.22v14.7H145s.11-24.91,0-27.17h8.76v4.26c.51-1.86,3.31-4.52,7.78-4.52,5.54,0,9.89,3.91,9.89,12.32Zm-35.29-30.57h-.06a4.79,4.79,0,1,1,.06,0Zm-3.7,3.4h7.8v27.17h-7.8Z"/></clipPath><clipPath id="clip-path-18"><circle class="cls-1" cx="258.8" cy="163.18" r="44"/></clipPath><clipPath id="clip-path-19"><path class="cls-3" d="M278.35,159.48q-8.06,5-12.23,7.84c-.93.64-1.69,1.13-2.27,1.49a13.85,13.85,0,0,1-2.32,1.09,7.63,7.63,0,0,1-2.7.56h-.05a7.54,7.54,0,0,1-2.7-.56,13.85,13.85,0,0,1-2.32-1.09c-.58-.36-1.34-.85-2.27-1.49q-3.31-2.25-12.21-7.84a13.15,13.15,0,0,1-2.48-2v18.05a3.4,3.4,0,0,0,1.16,2.57,3.93,3.93,0,0,0,2.77,1.06h36.15a3.93,3.93,0,0,0,2.77-1.06,3.39,3.39,0,0,0,1.15-2.57V157.5A13.09,13.09,0,0,1,278.35,159.48ZM241,157.05l5,3.24q4.2,2.69,6.43,4.14l1,.7,1.32.86c.35.22.78.47,1.28.74a7.51,7.51,0,0,0,1.41.61,4.07,4.07,0,0,0,1.23.21h.05a4.18,4.18,0,0,0,1.23-.21,7.51,7.51,0,0,0,1.41-.61c.5-.27.92-.52,1.27-.74s.8-.51,1.33-.86l1-.7,11.5-7.38a11.44,11.44,0,0,0,3-2.8,5.7,5.7,0,0,0,1.2-3.43,3.38,3.38,0,0,0-1.16-2.57,4,4,0,0,0-2.76-1.07H240.73a3.63,3.63,0,0,0-2.91,1.19,4.34,4.34,0,0,0-1,2.95,5.09,5.09,0,0,0,1.35,3.1A11.7,11.7,0,0,0,241,157.05Z"/></clipPath><clipPath id="clip-path-20"><circle class="cls-1" cx="473.61" cy="163.18" r="44"/></clipPath><clipPath id="clip-path-21"><circle class="cls-5" cx="258.8" cy="286.8" r="44"/></clipPath><clipPath id="clip-path-22"><path class="cls-6" d="M278.35,283.1q-8.06,5-12.23,7.84c-.93.64-1.69,1.13-2.27,1.49a14.69,14.69,0,0,1-2.32,1.09,7.63,7.63,0,0,1-2.7.56h-.05a7.54,7.54,0,0,1-2.7-.56,14.69,14.69,0,0,1-2.32-1.09c-.58-.36-1.34-.85-2.27-1.49q-3.31-2.25-12.21-7.84a13.15,13.15,0,0,1-2.48-2v18.05a3.36,3.36,0,0,0,1.16,2.56,3.9,3.9,0,0,0,2.77,1.07h36.15a3.9,3.9,0,0,0,2.77-1.07,3.35,3.35,0,0,0,1.15-2.56V281.12A13.09,13.09,0,0,1,278.35,283.1ZM241,280.67l5,3.24q4.2,2.68,6.43,4.14l1,.7,1.32.86c.35.22.78.47,1.28.74a7.51,7.51,0,0,0,1.41.61,4.07,4.07,0,0,0,1.23.21h.05a4.18,4.18,0,0,0,1.23-.21,7.51,7.51,0,0,0,1.41-.61c.5-.27.92-.52,1.27-.74s.8-.51,1.33-.86l1-.7,11.5-7.38a11.44,11.44,0,0,0,3-2.8,5.7,5.7,0,0,0,1.2-3.43,3.38,3.38,0,0,0-1.16-2.57,4,4,0,0,0-2.76-1.07H240.73a3.66,3.66,0,0,0-2.91,1.18,4.38,4.38,0,0,0-1,3,5.09,5.09,0,0,0,1.35,3.1A11.7,11.7,0,0,0,241,280.67Z"/></clipPath></defs><g class="cls-7"><g class="cls-8"><path class="cls-4" d="M44,4A40,40,0,1,1,4,44,40,40,0,0,1,44,4m0-4A44,44,0,1,0,88,44,44,44,0,0,0,44,0Z"/></g></g><path class="cls-9" d="M61.05,33.69a9,9,0,0,0,3.79-5,16.86,16.86,0,0,1-5.47,2.2A8.39,8.39,0,0,0,53.08,28a8.86,8.86,0,0,0-8.62,9.09,10.1,10.1,0,0,0,.22,2.07,24.09,24.09,0,0,1-17.76-9.5,9.48,9.48,0,0,0-1.16,4.57,9.24,9.24,0,0,0,3.83,7.57,8.28,8.28,0,0,1-3.9-1.14v.11a9,9,0,0,0,6.91,8.91,8.24,8.24,0,0,1-3.89.16,8.69,8.69,0,0,0,8,6.31A16.73,16.73,0,0,1,26.06,60,17.41,17.41,0,0,1,24,59.92,23.53,23.53,0,0,0,37.21,64c15.85,0,24.51-13.85,24.51-25.86,0-.39,0-.79,0-1.17A18.09,18.09,0,0,0,66,32.26,16.7,16.7,0,0,1,61.05,33.69Z"/><g class="cls-10"><rect class="cls-4" x="-200" y="-80" width="1328" height="1168"/><g class="cls-11"><rect class="cls-4" x="14" y="18" width="62" height="56"/></g></g><path class="cls-9" d="M380.52,32.21a2.62,2.62,0,1,1-2.62-2.62A2.62,2.62,0,0,1,380.52,32.21ZM366.25,51.38A7.34,7.34,0,1,1,373.59,44,7.34,7.34,0,0,1,366.25,51.38Zm0-18.64A11.31,11.31,0,1,0,377.55,44,11.31,11.31,0,0,0,366.25,32.74Zm0-10.74c-6,0-6.73,0-9.07.13a16.07,16.07,0,0,0-5.35,1,11.23,11.23,0,0,0-6.43,6.43,16.09,16.09,0,0,0-1,5.34c-.11,2.35-.13,3.1-.13,9.07s0,6.72.13,9.07a16.09,16.09,0,0,0,1,5.34,11.23,11.23,0,0,0,6.43,6.43,16.07,16.07,0,0,0,5.35,1c2.34.1,3.09.13,9.07.13s6.72,0,9.07-.13a16.06,16.06,0,0,0,5.34-1,11.23,11.23,0,0,0,6.43-6.43,16.09,16.09,0,0,0,1-5.34c.11-2.35.14-3.1.14-9.07s0-6.72-.14-9.07a16.09,16.09,0,0,0-1-5.34,11.23,11.23,0,0,0-6.43-6.43,16.06,16.06,0,0,0-5.34-1C372.93,22,372.18,22,366.21,22Zm0,4c5.87,0,6.57,0,8.89.13a12.2,12.2,0,0,1,4.08.76A7.26,7.26,0,0,1,383.36,31a12,12,0,0,1,.75,4.08c.11,2.32.13,3,.13,8.89s0,6.57-.13,8.89a12,12,0,0,1-.75,4.08,7.26,7.26,0,0,1-4.18,4.18,12.2,12.2,0,0,1-4.08.76c-2.32.1-3,.13-8.89.13s-6.57,0-8.89-.13a12.28,12.28,0,0,1-4.09-.76,6.92,6.92,0,0,1-2.53-1.64A6.78,6.78,0,0,1,349.06,57a11.89,11.89,0,0,1-.76-4.08c-.11-2.32-.13-3-.13-8.89s0-6.57.13-8.89a11.89,11.89,0,0,1,.76-4.08,6.78,6.78,0,0,1,1.64-2.54,6.92,6.92,0,0,1,2.53-1.64,12.28,12.28,0,0,1,4.09-.76c2.32-.1,3-.13,8.89-.13"/><g class="cls-13"><rect class="cls-4" x="-117.79" y="-80" width="1328" height="1168"/></g><path class="cls-9" d="M171.4,64h-8.84V49.94c0-3.68-1.38-6.19-4.42-6.19a4.52,4.52,0,0,0-4.22,3.33,6.64,6.64,0,0,0-.19,2.22V64H145s.11-24.91,0-27.17h8.76v4.26c.51-1.86,3.31-4.53,7.78-4.53,5.54,0,9.89,3.92,9.89,12.33ZM136.11,33.43h-.06a4.51,4.51,0,0,1-4.65-4.71,4.74,4.74,0,0,1,9.47,0A4.55,4.55,0,0,1,136.11,33.43Zm-3.7,3.4h7.8V64h-7.8Z"/><g class="cls-15"><rect class="cls-4" x="-692.6" y="-80" width="1328" height="1168"/></g><path class="cls-9" d="M278.35,40.3q-8.06,5-12.23,7.84c-.93.63-1.69,1.13-2.27,1.48a14.61,14.61,0,0,1-2.32,1.1,7.6,7.6,0,0,1-2.7.55h-.05a7.52,7.52,0,0,1-2.7-.55,14.61,14.61,0,0,1-2.32-1.1c-.58-.35-1.34-.85-2.27-1.48q-3.31-2.25-12.21-7.84a13.15,13.15,0,0,1-2.48-2v18A3.38,3.38,0,0,0,238,58.93,3.94,3.94,0,0,0,240.73,60h36.15a3.94,3.94,0,0,0,2.77-1.07,3.37,3.37,0,0,0,1.15-2.57v-18A13.5,13.5,0,0,1,278.35,40.3ZM241,37.86q.83.55,5,3.24l6.43,4.15,1,.69q.79.54,1.32.87c.35.22.78.46,1.28.74a8.23,8.23,0,0,0,1.41.61,4,4,0,0,0,1.23.2h.05a4.14,4.14,0,0,0,1.23-.2,8.23,8.23,0,0,0,1.41-.61c.5-.28.92-.52,1.27-.74s.8-.51,1.33-.87l1-.69,11.5-7.39a11.24,11.24,0,0,0,3-2.79,5.73,5.73,0,0,0,1.2-3.43,3.38,3.38,0,0,0-1.16-2.57A4,4,0,0,0,276.88,28H240.73a3.63,3.63,0,0,0-2.91,1.18,4.37,4.37,0,0,0-1,3,5.09,5.09,0,0,0,1.35,3.1A11.65,11.65,0,0,0,241,37.86Z"/><g class="cls-17"><rect class="cls-4" x="-105.2" y="-320" width="1328" height="1168"/></g><path class="cls-20" d="M61.05,152.88a9.06,9.06,0,0,0,3.79-5,16.64,16.64,0,0,1-5.47,2.2,8.42,8.42,0,0,0-6.29-2.87,8.86,8.86,0,0,0-8.62,9.09,10,10,0,0,0,.22,2.07,24.08,24.08,0,0,1-17.76-9.49,9.43,9.43,0,0,0-1.16,4.57A9.22,9.22,0,0,0,29.59,161a8.27,8.27,0,0,1-3.9-1.13V160a9,9,0,0,0,6.91,8.91,8.09,8.09,0,0,1-2.27.32,8.56,8.56,0,0,1-1.62-.16,8.69,8.69,0,0,0,8,6.31,16.73,16.73,0,0,1-10.7,3.89A15.5,15.5,0,0,1,24,179.1a23.45,23.45,0,0,0,13.21,4.08c15.85,0,24.51-13.84,24.51-25.85,0-.4,0-.79,0-1.18a18,18,0,0,0,4.3-4.7A16.7,16.7,0,0,1,61.05,152.88Z"/><g class="cls-21"><rect class="cls-22" x="-200" y="39.18" width="1328" height="1168"/></g><path class="cls-20" d="M380.52,151.4a2.62,2.62,0,1,1-2.62-2.62A2.62,2.62,0,0,1,380.52,151.4Zm-14.27,19.17a7.34,7.34,0,1,1,7.34-7.34A7.34,7.34,0,0,1,366.25,170.57Zm0-18.65a11.31,11.31,0,1,0,11.3,11.31A11.31,11.31,0,0,0,366.25,151.92Zm0-10.74c-6,0-6.73,0-9.07.14a15.85,15.85,0,0,0-5.35,1,11.31,11.31,0,0,0-6.43,6.43,16.09,16.09,0,0,0-1,5.34c-.11,2.35-.13,3.1-.13,9.07s0,6.73.13,9.08a16.09,16.09,0,0,0,1,5.34,11.31,11.31,0,0,0,6.43,6.43,16.1,16.1,0,0,0,5.35,1c2.34.11,3.09.13,9.07.13s6.72,0,9.07-.13a16.09,16.09,0,0,0,5.34-1,11.31,11.31,0,0,0,6.43-6.43,16.09,16.09,0,0,0,1-5.34c.11-2.35.14-3.1.14-9.08s0-6.72-.14-9.07a16.09,16.09,0,0,0-1-5.34,11.31,11.31,0,0,0-6.43-6.43,15.84,15.84,0,0,0-5.34-1C372.93,141.21,372.18,141.18,366.21,141.18Zm0,4c5.87,0,6.57,0,8.89.13a12,12,0,0,1,4.08.75,7.33,7.33,0,0,1,4.18,4.18,12,12,0,0,1,.75,4.08c.11,2.32.13,3,.13,8.89s0,6.57-.13,8.89a12.09,12.09,0,0,1-.75,4.09,6.81,6.81,0,0,1-1.65,2.53,6.67,6.67,0,0,1-2.53,1.64,12,12,0,0,1-4.08.76c-2.32.11-3,.13-8.89.13s-6.57,0-8.89-.13a12,12,0,0,1-4.09-.76,7.22,7.22,0,0,1-4.17-4.17,12,12,0,0,1-.76-4.09c-.11-2.32-.13-3-.13-8.89s0-6.57.13-8.89a12,12,0,0,1,.76-4.08,6.67,6.67,0,0,1,1.64-2.53,6.81,6.81,0,0,1,2.53-1.65,12.09,12.09,0,0,1,4.09-.75c2.32-.11,3-.13,8.89-.13"/><g class="cls-24"><rect class="cls-22" x="-117.79" y="39.18" width="1328" height="1168"/></g><path class="cls-20" d="M171.4,183.18h-8.84V169.12c0-3.68-1.38-6.19-4.42-6.19a4.52,4.52,0,0,0-4.22,3.33,6.64,6.64,0,0,0-.19,2.22v14.7H145s.11-24.91,0-27.17h8.76v4.26c.51-1.86,3.31-4.52,7.78-4.52,5.54,0,9.89,3.91,9.89,12.32Zm-35.29-30.57h-.06a4.79,4.79,0,1,1,.06,0Zm-3.7,3.4h7.8v27.17h-7.8Z"/><g class="cls-26"><rect class="cls-22" x="-692.6" y="39.18" width="1328" height="1168"/></g><path class="cls-20" d="M278.35,159.48q-8.06,5-12.23,7.84c-.93.64-1.69,1.13-2.27,1.49a13.85,13.85,0,0,1-2.32,1.09,7.63,7.63,0,0,1-2.7.56h-.05a7.54,7.54,0,0,1-2.7-.56,13.85,13.85,0,0,1-2.32-1.09c-.58-.36-1.34-.85-2.27-1.49q-3.31-2.25-12.21-7.84a13.15,13.15,0,0,1-2.48-2v18.05a3.4,3.4,0,0,0,1.16,2.57,3.93,3.93,0,0,0,2.77,1.06h36.15a3.93,3.93,0,0,0,2.77-1.06,3.39,3.39,0,0,0,1.15-2.57V157.5A13.09,13.09,0,0,1,278.35,159.48ZM241,157.05l5,3.24q4.2,2.69,6.43,4.14l1,.7,1.32.86c.35.22.78.47,1.28.74a7.51,7.51,0,0,0,1.41.61,4.07,4.07,0,0,0,1.23.21h.05a4.18,4.18,0,0,0,1.23-.21,7.51,7.51,0,0,0,1.41-.61c.5-.27.92-.52,1.27-.74s.8-.51,1.33-.86l1-.7,11.5-7.38a11.44,11.44,0,0,0,3-2.8,5.7,5.7,0,0,0,1.2-3.43,3.38,3.38,0,0,0-1.16-2.57,4,4,0,0,0-2.76-1.07H240.73a3.63,3.63,0,0,0-2.91,1.19,4.34,4.34,0,0,0-1,2.95,5.09,5.09,0,0,0,1.35,3.1A11.7,11.7,0,0,0,241,157.05Z"/><g class="cls-28"><rect class="cls-22" x="-105.2" y="-200.82" width="1328" height="1168"/></g><g class="cls-30"><rect class="cls-5" x="-105.2" y="-77.2" width="1328" height="1168"/></g><circle class="cls-5" cx="258.8" cy="286.8" r="44"/><path class="cls-31" d="M278.35,283.1q-8.06,5-12.23,7.84c-.93.64-1.69,1.13-2.27,1.49a14.69,14.69,0,0,1-2.32,1.09,7.63,7.63,0,0,1-2.7.56h-.05a7.54,7.54,0,0,1-2.7-.56,14.69,14.69,0,0,1-2.32-1.09c-.58-.36-1.34-.85-2.27-1.49q-3.31-2.25-12.21-7.84a13.15,13.15,0,0,1-2.48-2v18.05a3.36,3.36,0,0,0,1.16,2.56,3.9,3.9,0,0,0,2.77,1.07h36.15a3.9,3.9,0,0,0,2.77-1.07,3.35,3.35,0,0,0,1.15-2.56V281.12A13.09,13.09,0,0,1,278.35,283.1ZM241,280.67l5,3.24q4.2,2.68,6.43,4.14l1,.7,1.32.86c.35.22.78.47,1.28.74a7.51,7.51,0,0,0,1.41.61,4.07,4.07,0,0,0,1.23.21h.05a4.18,4.18,0,0,0,1.23-.21,7.51,7.51,0,0,0,1.41-.61c.5-.27.92-.52,1.27-.74s.8-.51,1.33-.86l1-.7,11.5-7.38a11.44,11.44,0,0,0,3-2.8,5.7,5.7,0,0,0,1.2-3.43,3.38,3.38,0,0,0-1.16-2.57,4,4,0,0,0-2.76-1.07H240.73a3.66,3.66,0,0,0-2.91,1.18,4.38,4.38,0,0,0-1,3,5.09,5.09,0,0,0,1.35,3.1A11.7,11.7,0,0,0,241,280.67Z"/><g class="cls-32"><rect class="cls-33" x="-105.2" y="-77.2" width="1328" height="1168"/></g></svg>